<?xml version="1.0" encoding="UTF-8" standalone="no"?>
<!DOCTYPE svg PUBLIC "-//W3C//DTD SVG 1.1//EN" "http://www.w3.org/Graphics/SVG/1.1/DTD/svg11.dtd">
<svg width="100%" height="100%" viewBox="0 0 265 265" version="1.1" xmlns="http://www.w3.org/2000/svg" xmlns:xlink="http://www.w3.org/1999/xlink" xml:space="preserve" xmlns:serif="http://www.serif.com/" style="fill-rule:evenodd;clip-rule:evenodd;stroke-linejoin:round;stroke-miterlimit:2;">
    <g transform="matrix(1,0,0,1,-2.5981,-2.5981)">
        <g transform="matrix(1,0,0,1,-15.1019,-15.1019)">
            <path d="M62.3,282.3C37.7,282.3 17.7,262.3 17.7,237.7L17.7,62.3C17.7,37.7 37.7,17.7 62.3,17.7L237.8,17.7C262.4,17.7 282.4,37.7 282.4,62.3L282.4,237.8C282.4,262.4 262.4,282.4 237.8,282.4L62.3,282.4L62.3,282.3Z" style="fill:rgb(105,105,105);fill-rule:nonzero;"/>
        </g>
        <g transform="matrix(0.989528,0,0,0.989528,-13.4292,-16.4775)">
            <path d="M216.7,101.2L189.4,101.2C191.7,105.2 193.6,109.2 195.1,113.2L206.8,113.2L223.5,200.8L76.5,200.8L92.8,113.2L106.4,113.2C107.9,109.2 109.8,105.2 112.1,101.2L82.8,101.2L62,216.8L238,216.8L216.7,101.2Z" style="fill:white;fill-rule:nonzero;"/>
        </g>
        <g transform="matrix(0.989528,0,0,0.989528,-13.4292,-16.4775)">
            <path d="M223.5,227.2L76.4,227.2L77.4,221.8L65.8,221.8L62,243.2L238,243.2L234,221.8L222.4,221.8L223.5,227.2Z" style="fill:white;fill-rule:nonzero;"/>
        </g>
        <g transform="matrix(0.989528,0,0,0.989528,-13.4292,-16.4775)">
            <path d="M223.5,253.7L76.4,253.7L77.4,248.3L65.8,248.3L62,269.7L238,269.7L234,248.3L222.4,248.3L223.5,253.7Z" style="fill:white;fill-rule:nonzero;"/>
        </g>
        <g transform="matrix(0.989528,0,0,0.989528,-13.4292,-16.4775)">
            <path d="M138.1,50.2C148.5,50.2 157.3,56.8 160.6,66.1C161.5,63.6 162,60.9 162,58.1C162,44.9 151.3,34.3 138.1,34.3C124.9,34.3 114.2,45 114.2,58.1C114.2,60.9 114.7,63.6 115.6,66.1C118.9,56.8 127.7,50.2 138.1,50.2Z" style="fill:rgb(35,134,197);fill-rule:nonzero;"/>
        </g>
        <g transform="matrix(0.989528,0,0,0.989528,-13.4292,-16.4775)">
            <path d="M131.9,78.7C131,68.4 136.8,59 145.7,55C143.1,54.3 140.4,54.1 137.6,54.3C124.5,55.5 114.8,67 115.9,80.1C117,93.2 128.6,102.9 141.7,101.8C144.5,101.6 147.1,100.8 149.5,99.7C140.1,97.3 132.8,89.1 131.9,78.7Z" style="fill:rgb(26,26,25);fill-rule:nonzero;"/>
        </g>
        <g transform="matrix(0.989528,0,0,0.989528,-13.4292,-16.4775)">
            <path d="M163.8,83.4C153.7,85.8 143.6,81.5 138.2,73.3C137.9,75.9 138.1,78.7 138.7,81.4C141.8,94.2 154.7,102.1 167.5,99C180.3,95.9 188.2,83 185.1,70.2C184.4,67.5 183.3,65 181.9,62.8C180.9,72.5 173.9,81 163.8,83.4Z" style="fill:rgb(239,231,52);fill-rule:nonzero;"/>
        </g>
        <g transform="matrix(0.989528,0,0,0.989528,-13.4292,-16.4775)">
            <path d="M166.1,53.2C167.5,63.5 162.1,73.1 153.4,77.6C156,78.1 158.7,78.3 161.5,77.9C174.6,76.2 183.7,64.1 182,51.1C180.3,38.1 168.2,28.9 155.2,30.6C152.4,31 149.8,31.8 147.5,33C156.9,35 164.7,42.9 166.1,53.2Z" style="fill:rgb(180,36,110);fill-rule:nonzero;"/>
        </g>
        <g transform="matrix(0.965199,0,0,0.965199,83.3622,132.479)">
            <g>
                <path d="M22.08,-1.56L20,-6.32C17.96,-5.28 16.08,-4.92 14,-4.92C8.96,-4.92 8.04,-8.32 8.04,-14C8.04,-19.68 8.96,-23.08 14,-23.08C16.08,-23.08 17.96,-22.72 20,-21.68L22.08,-26.44C19.28,-28.12 16.72,-28.48 13.92,-28.48C5.28,-28.48 1.88,-23.88 1.88,-14C1.88,-4.12 5.28,0.48 13.92,0.48C16.72,0.48 19.28,0.12 22.08,-1.56Z" style="fill:white;fill-rule:nonzero;"/>
                <path d="M49.36,0.36L55.64,-0.12L53.16,-28L45.64,-28L40.44,-7.6L35.08,-28L27.56,-28L25.04,0L31.16,0L32.04,-19.52L37.64,0L43.28,0L48.36,-19.52L49.36,0.36Z" style="fill:white;fill-rule:nonzero;"/>
                <path d="M71.72,0L71.72,-10.24L81.24,-28L74.2,-28L68.76,-15.68L63.56,-28.36L56.28,-27.32L65.6,-10.24L65.6,0L71.72,0Z" style="fill:white;fill-rule:nonzero;"/>
                <path d="M99.76,0.52L106.68,-0.84L96.28,-14.4L105.68,-27.24L98.6,-28L90.28,-15.08L90.28,-28L84.16,-28L84.16,0L90.28,0L90.28,-13.44L99.76,0.52Z" style="fill:white;fill-rule:nonzero;"/>
            </g>
        </g>
    </g>
</svg>
