<?xml version="1.0" encoding="UTF-8" standalone="no"?>
<!DOCTYPE svg PUBLIC "-//W3C//DTD SVG 1.1//EN" "http://www.w3.org/Graphics/SVG/1.1/DTD/svg11.dtd">
<svg width="100%" height="100%" viewBox="0 0 265 265" version="1.1" xmlns="http://www.w3.org/2000/svg" xmlns:xlink="http://www.w3.org/1999/xlink" xml:space="preserve" xmlns:serif="http://www.serif.com/" style="fill-rule:evenodd;clip-rule:evenodd;stroke-linejoin:round;stroke-miterlimit:2;">
    <g transform="matrix(1,0,0,1,-2.5981,-2.5981)">
        <g transform="matrix(1,0,0,1,-15.1019,-15.1019)">
            <path d="M62.3,282.3C37.7,282.3 17.7,262.3 17.7,237.7L17.7,62.3C17.7,37.7 37.7,17.7 62.3,17.7L237.8,17.7C262.4,17.7 282.4,37.7 282.4,62.3L282.4,237.8C282.4,262.4 262.4,282.4 237.8,282.4L62.3,282.4L62.3,282.3Z" style="fill:rgb(105,105,105);fill-rule:nonzero;"/>
        </g>
        <g transform="matrix(0.41908,0,0,0.41908,114.754,7.24192)">
            <path d="M149.2,51C149.2,51 110.6,86.8 110.6,111.1C110.6,133.8 127.9,148.5 149.2,148.5C170.5,148.5 187.8,133.8 187.8,111.1C187.8,86.8 149.2,51 149.2,51Z" style="fill:white;fill-rule:nonzero;"/>
        </g>
        <g transform="matrix(1,0,0,1,-14.25,-10.9139)">
            <g transform="matrix(0.966331,0,0,0.966331,5.02514,4.91106)">
                <path d="M149.2,51C149.2,51 110.6,86.8 110.6,111.1C110.6,133.8 127.9,148.5 149.2,148.5C170.5,148.5 187.8,133.8 187.8,111.1C187.8,86.8 149.2,51 149.2,51Z" style="fill:rgb(9,12,12);fill-rule:nonzero;"/>
            </g>
        </g>
        <g transform="matrix(1,0,0,1,-14.25,-10.9139)">
            <g transform="matrix(0.966331,0,0,0.966331,5.02514,4.91106)">
                <path d="M216,87.4L188.7,87.4C191,91.4 192.9,95.4 194.4,99.4L206,99.4L222.7,187L75.7,187L92,99.4L105.6,99.4C107.1,95.4 109,91.4 111.3,87.4L82,87.4L61.3,203L237.3,203L216,87.4Z" style="fill:white;fill-rule:nonzero;"/>
                <path d="M222.7,213.4L75.7,213.4L76.7,208L65.1,208L61.2,229.4L237.2,229.4L233.3,208L221.7,208L222.7,213.4Z" style="fill:white;fill-rule:nonzero;"/>
                <path d="M222.7,239.9L75.7,239.9L76.7,234.5L65.1,234.5L61.2,255.9L237.2,255.9L233.3,234.5L221.7,234.5L222.7,239.9Z" style="fill:white;fill-rule:nonzero;"/>
            </g>
        </g>
    </g>
</svg>
