<?xml version="1.0" encoding="utf-8"?>
<!-- Generator: Adobe Illustrator 17.1.0, SVG Export Plug-In . SVG Version: 6.00 Build 0)  -->
<!DOCTYPE svg PUBLIC "-//W3C//DTD SVG 1.1//EN" "http://www.w3.org/Graphics/SVG/1.1/DTD/svg11.dtd">
<svg version="1.1" id="Layer_1" xmlns="http://www.w3.org/2000/svg" xmlns:xlink="http://www.w3.org/1999/xlink" x="0px" y="0px"
	 viewBox="0 0 309 303" style="enable-background:new 0 0 309 303;" xml:space="preserve">
<style type="text/css">
	.st0{fill:none;}
</style>
<g id="Copiers_1_">
	<rect x="101.1" y="222.4" class="st0" width="189" height="35.2"/>
	<path class="st0" d="M101.1,142.5h147v47.9h-21.3c-5.4-13.8-28.4-12.7-28.4-12.7h-97.2v40h189v-96.6l-189,0.1V142.5z"/>
	<path class="st0" d="M91.4,121.1l-31.1,0v57.5L17,158.6v10.8l43.2,21.1v41.5L17,211.8v10.8l43.2,21.1v35.8c0,3.6,0,13.5,16.2,13.5
		h14.9V121.1z"/>
	<path class="st0" d="M101.1,262.3V293h172.8c4.7,0,16.2,0,16.2-13.5v-17.1H101.1z"/>
	<path class="st0" d="M130.9,75v-2.2h0l0-15.8c-30,8.7-30,18.5-30,31.4v20.4h178.1V75H130.9z M244.7,100.9h-7.4v-6.7h7.4V100.9z
		 M234.1,100.9h-7.4v-6.7h7.4V100.9z M234.1,90.7h-7.4V84h7.4V90.7z M223.3,100.8H216v-6.7h7.4V100.8z M223.3,90.7H216V84h7.4V90.7z
		 M244.7,90.7h-7.4V84h7.4V90.7z M269.6,100.7h-21.3v-17h21.3V100.7z"/>
	<polygon class="st0" points="269.8,8.2 122.4,59.9 114.4,80.6 269.8,25.1 	"/>
</g>
</svg>
