<?xml version="1.0" encoding="utf-8"?>
<!-- Generator: Adobe Illustrator 17.1.0, SVG Export Plug-In . SVG Version: 6.00 Build 0)  -->
<?xml-stylesheet href="styles.css" type="text/css"?>
<!DOCTYPE svg PUBLIC "-//W3C//DTD SVG 1.1//EN" "http://www.w3.org/Graphics/SVG/1.1/DTD/svg11.dtd">
<svg version="1.1" id="Layer_1" xmlns="http://www.w3.org/2000/svg" xmlns:xlink="http://www.w3.org/1999/xlink" x="0px" y="0px"
	 viewBox="0 0 360 360" enable-background="new 0 0 360 360" xml:space="preserve">
<g id="Copiers_1_" class="change">
	<rect x="110.5" y="253.3"  width="216" height="40.2"/>
	<path fill="#474747" d="M110.5,162h167.9v54.7h-24.3c-6.2-15.8-32.5-14.5-32.5-14.5H110.5v45.7h216V137.5l-216,0.1V162z" />
	<path fill="#474747" d="M99.4,137.6l-35.6,0v65.7l-49.4-22.9v12.3l49.4,24.1v47.4l-49.4-22.9v12.3l49.4,24.1v40.9
		c0,4.2,0,15.5,18.5,15.5h17.1V137.6z" class="middle" />
	<path  d="M110.5,298.9v35H308c5.3,0,18.5,0,18.5-15.5v-19.5H110.5z" class="test"/>
	<path  d="M144.5,84.8v-2.6h0l0-18c-34.3,10-34.3,21.1-34.3,35.9v23.4h203.5V84.8H144.5z M274.6,114.4h-8.4v-7.7h8.4
		V114.4z M262.4,114.4H254v-7.7h8.4V114.4z M262.4,102.8H254v-7.7h8.4V102.8z M250.2,114.3h-8.4v-7.7h8.4V114.3z M250.2,102.8h-8.4
		v-7.7h8.4V102.8z M274.6,102.8h-8.4v-7.7h8.4V102.8z M303,114.2h-24.3V94.8H303V114.2z"/>
	<polygon  points="303.3,8.5 134.8,67.6 125.7,91.2 303.3,27.9 	"/>
</g>
</svg>
