<svg id="Layer_1" data-name="Layer 1" xmlns="http://www.w3.org/2000/svg" viewBox="0 0 747.49 59.66"><defs><style>.cls-1{fill:#ff8836;}.cls-2{fill:#fff;}</style></defs><title>lead_generation</title><path class="cls-1" d="M11.51,70.12a7,7,0,0,1-7-7V57.48a7,7,0,0,1,3.54-6.09V32.9a7,7,0,0,1-3.54-6.08v-5.7a7,7,0,0,1,7-7h19.8a7,7,0,0,1,7,7v5.64a7,7,0,0,1-4.56,6.56V44.38a7,7,0,0,1,6.86-5.6H46a7,7,0,0,1,7,7.22L52.4,63.33a7,7,0,0,1-7,6.79Z" transform="translate(-4.51 -11.12)"/><path class="cls-1" d="M64,70.78c-13.56,0-22.66-8.92-22.66-22.18,0-13.73,9.19-23.32,22.36-23.32,12.56,0,20.68,8,20.68,20.38,0,.86-.07,3-.14,4.1a7,7,0,0,1-.46,2.05A7,7,0,0,1,84,56.43C81.16,65.42,73.71,70.78,64,70.78Z" transform="translate(-4.51 -11.12)"/><path class="cls-1" d="M104.75,70.78a15.09,15.09,0,0,1-7.15-1.6,18.06,18.06,0,0,1-7.73,1.6c-9.57,0-16-6-16-15a15.06,15.06,0,0,1,2.75-9.36,12.65,12.65,0,0,1-1.37-5.88,13.86,13.86,0,0,1,6.34-11.82c3.42-2.3,8-3.46,13.62-3.46,17.73,0,20.38,11.49,20.38,18.34v8.47a7,7,0,0,1,2.87,4l1,3.54A7,7,0,0,1,117,66.93,21.08,21.08,0,0,1,104.75,70.78ZM99,55.25Zm-8.54-.15ZM99,54.51Z" transform="translate(-4.51 -11.12)"/><path class="cls-1" d="M126.65,70.78c-9.42,0-19.48-5.84-19.48-22.24,0-12.95,6.4-21.48,17-23a6.88,6.88,0,0,1-.33-2.13V18.6a7,7,0,0,1,6.77-7l15.06-.48h.23a7,7,0,0,1,7,7V51.9a7,7,0,0,1,3.6,6.12v5.1a7,7,0,0,1-7,7H135.89a7,7,0,0,1-2.63-.51A18.54,18.54,0,0,1,126.65,70.78Z" transform="translate(-4.51 -11.12)"/><path class="cls-1" d="M184.07,70.78c-16.18,0-25.84-10.63-25.84-28.42,0-17.29,11.1-28.9,27.64-28.9A22.74,22.74,0,0,1,194,14.88a6.91,6.91,0,0,1,3.4-.88h5.28a7,7,0,0,1,7,6.8s.43,14.7.43,14.76a7,7,0,0,1,4.56,6.56v5.64a7,7,0,0,1-3.72,6.18v9.3a7,7,0,0,1-7,7h-6.12a7,7,0,0,1-4.08-1.31A25.06,25.06,0,0,1,184.07,70.78ZM187.19,33c-.66,0-.71,0-1.07.67a8.5,8.5,0,0,0-.67,1.85,6.92,6.92,0,0,1,2.46-.44h2C189.18,33,188.48,33,187.19,33Z" transform="translate(-4.51 -11.12)"/><path class="cls-1" d="M225.71,70.78c-13.56,0-22.66-8.92-22.66-22.18,0-13.73,9.19-23.32,22.36-23.32,12.56,0,20.68,8,20.68,20.38,0,.94-.07,3.09-.14,4.09a7,7,0,0,1-.46,2.06,7,7,0,0,1,.16,4.62C242.86,65.42,235.4,70.78,225.71,70.78Z" transform="translate(-4.51 -11.12)"/><path class="cls-1" d="M262.19,70.12a7,7,0,0,1-1.32-.13,7.2,7.2,0,0,1-1.32.13H242.21a7,7,0,0,1-7-7V58a7,7,0,0,1,3.66-6.15v-7.5a7,7,0,0,1-3.66-6.15v-5a7,7,0,0,1,6.77-7l13.14-.42h.23a7,7,0,0,1,3.31.83,20.21,20.21,0,0,1,7.49-1.31c10.12,0,16.42,6.34,16.42,16.54v10A7,7,0,0,1,286.22,58v5.1a7,7,0,0,1-7,7Zm1.88-26.65Z" transform="translate(-4.51 -11.12)"/><path class="cls-1" d="M297.11,70.78c-13.56,0-22.66-8.92-22.66-22.18,0-13.73,9.19-23.32,22.36-23.32,12.56,0,20.67,8,20.67,20.38,0,.85-.06,3-.13,4.09a7,7,0,0,1-.46,2.06,7,7,0,0,1,.16,4.62C314.26,65.42,306.8,70.78,297.11,70.78Z" transform="translate(-4.51 -11.12)"/><path class="cls-1" d="M313.37,70.12a7,7,0,0,1-7-7V58a7,7,0,0,1,3.9-6.28v-7.3a7,7,0,0,1-3.9-6.28V33.24a7,7,0,0,1,6.76-7l14-.48h.24a7,7,0,0,1,3,.67,17.11,17.11,0,0,1,6.3-1.15c8.5,0,14.43,6.16,14.43,15,0,6.86-4.09,12.12-10.12,13.53A6.92,6.92,0,0,1,342.45,58v5.1a7,7,0,0,1-7,7Z" transform="translate(-4.51 -11.12)"/><path class="cls-1" d="M369.22,70.78a15.08,15.08,0,0,1-7.14-1.6,18.14,18.14,0,0,1-7.74,1.6c-9.57,0-16-6-16-15a15,15,0,0,1,2.76-9.36,12.66,12.66,0,0,1-1.38-5.88,13.87,13.87,0,0,1,6.35-11.82c3.42-2.3,8-3.46,13.61-3.46,17.74,0,20.38,11.49,20.38,18.34v8.47a7,7,0,0,1,2.88,4l1,3.54a7,7,0,0,1-2.42,7.32A21.12,21.12,0,0,1,369.22,70.78Zm-5.76-15.53Zm0-.74Z" transform="translate(-4.51 -11.12)"/><path class="cls-1" d="M391.3,70.78c-11.19,0-17.61-6.25-17.61-17.14V44.82a7,7,0,0,1-4.5-6.54V32.94a7,7,0,0,1,4.5-6.54v-.84a7,7,0,0,1,5.76-6.89l6.72-1.2a7.33,7.33,0,0,1,1.24-.11h4.38a7,7,0,0,1,7,7v1.58h1.81a7,7,0,0,1,7,7v5.34a7,7,0,0,1-7,7h-1.81v.28a7.08,7.08,0,0,1,1.5.23l4.09,1.08a7,7,0,0,1,5.06,8.19C408.63,59,406.18,70.78,391.3,70.78Z" transform="translate(-4.51 -11.12)"/><path class="cls-1" d="M403.18,70.12a7,7,0,0,1-7-7v-5a7,7,0,0,1,4.5-6.54V44.75a7,7,0,0,1-4.31-6.47V33.42a7,7,0,0,1,2.81-5.61,15.18,15.18,0,0,1-.42-3.57c0-7.69,5.62-13.06,13.66-13.06s13.42,5.22,13.42,13a14.38,14.38,0,0,1-.95,5.28,7,7,0,0,1,.89,3.42v18.7a7,7,0,0,1,4.56,6.56v5a7,7,0,0,1-7,7Z" transform="translate(-4.51 -11.12)"/><path class="cls-1" d="M440.68,70.78c-14.19,0-23-8.66-23-22.6s9.17-22.9,23.37-22.9c14.38,0,23,8.47,23,22.66S455.07,70.78,440.68,70.78Z" transform="translate(-4.51 -11.12)"/><path class="cls-1" d="M479.62,70.12A7.2,7.2,0,0,1,478.3,70a7.12,7.12,0,0,1-1.32.13H459.64a7,7,0,0,1-7-7V58a7,7,0,0,1,3.66-6.15v-7.5a7,7,0,0,1-3.66-6.15v-5a7,7,0,0,1,6.78-7l13.14-.42h.23a7,7,0,0,1,3.31.83,20.16,20.16,0,0,1,7.48-1.31c10.13,0,16.42,6.34,16.42,16.54v10A7,7,0,0,1,503.66,58v5.1a7,7,0,0,1-7,7Zm1.89-26.65Z" transform="translate(-4.51 -11.12)"/><path class="cls-2" d="M31.31,21.12v5.64l-4.56.54V57.06h2.16c6.54,0,10.26-2.16,11.7-11.28H46l-.54,17.34H11.51V57.48L15.05,57V27.3l-3.54-.48v-5.7Z" transform="translate(-4.51 -11.12)"/><path class="cls-2" d="M63.71,32.28c7.92,0,13.68,4.14,13.68,13.38,0,.78-.06,2.76-.12,3.6H59.81c.12,4.68.9,8.88,5.94,8.88,3.48,0,5-2.46,6.42-5.58l5.1,1.8c-1.92,6.18-6.72,9.42-13.26,9.42-10,0-15.66-6.12-15.66-15.18C48.35,38.16,54.89,32.28,63.71,32.28Zm2.46,12.9V44c0-5.46-.24-7.68-2.88-7.68-3,0-3.42,4-3.42,8.88Z" transform="translate(-4.51 -11.12)"/><path class="cls-2" d="M97.49,47.46V43.08c0-4.32-1-7-5-7-1.86,0-2.64.54-2.64,1.74a4.71,4.71,0,0,0,.12.84h2.46a12.19,12.19,0,0,1,.36,2.46c0,2.58-1.56,4.62-5.28,4.62a4.89,4.89,0,0,1-5.28-5.22c0-5,4.32-8.28,13-8.28,8.16,0,13.38,2.58,13.38,11.34v11.7c0,1.92,0,3.06,1.14,3.06a4.72,4.72,0,0,0,2-.48l1,3.54a14.53,14.53,0,0,1-7.92,2.34c-4.2,0-5.76-1.8-6.6-4.56-.66,1.56-2.46,4.56-8.28,4.56-4.86,0-9-2.1-9-8,0-6.54,4.14-8.34,12.3-8.34Zm0,6.84V50.88H95.63C92.75,50.88,92,52,92,55c0,2.7.9,4,2.82,4C96.35,59,97.49,58,97.49,54.3Z" transform="translate(-4.51 -11.12)"/><path class="cls-2" d="M145.85,57.6l3.6.42v5.1H135.89l-.6-3.78H135c-1.14,2.16-3.66,4.44-8.34,4.44-8,0-12.48-5.4-12.48-15.24s4.44-16.26,13.5-16.26a8.09,8.09,0,0,1,7,3.3l.18-.06V23.88l-4-.48V18.6l15.06-.48ZM135,51.42v-8c0-4.14-1.92-6.42-4.86-6.42-3.6,0-4.32,3.66-4.32,11.22,0,6.6.48,10.74,4.44,10.74C133.79,58.92,135,55.74,135,51.42Z" transform="translate(-4.51 -11.12)"/><path class="cls-2" d="M177.83,42c0,8.4,1.2,15.84,8.22,15.84a7.7,7.7,0,0,0,6.78-4V48.24l-4.92-.48V42.12h19.74v5.64l-3.72.42V63.24h-6.12c-.42-1.26-.9-2.64-2.22-2.64-2,0-4.56,3.18-11.52,3.18-11.52,0-18.84-6.42-18.84-21.42,0-14.52,8.94-21.9,20.64-21.9,5.88,0,7.86,2.52,9.72,2.52.9,0,1.38-.72,1.8-2h5.28l.42,14.58h-5.7c-1.8-7.08-4.86-9.54-10.2-9.54C180.35,26,177.83,32.4,177.83,42Z" transform="translate(-4.51 -11.12)"/><path class="cls-2" d="M225.41,32.28c7.92,0,13.68,4.14,13.68,13.38,0,.78-.06,2.76-.12,3.6H221.51c.12,4.68.9,8.88,5.94,8.88,3.48,0,5-2.46,6.42-5.58l5.1,1.8c-1.92,6.18-6.72,9.42-13.26,9.42-10,0-15.66-6.12-15.66-15.18C210.05,38.16,216.59,32.28,225.41,32.28Zm2.46,12.9V44c0-5.46-.24-7.68-2.88-7.68-3,0-3.42,4-3.42,8.88Z" transform="translate(-4.51 -11.12)"/><path class="cls-2" d="M255.35,32.76l.42,5.7h.42c1.38-3.18,3.6-6.18,10-6.18,5.7,0,9.42,2.52,9.42,9.54V57.6l3.65.42v5.1h-17V58l2.28-.42V43.38c0-2.88-.18-5-2.88-5S257,39.84,257,44.7V57.6l2.58.42v5.1H242.21V58l3.66-.42v-19l-3.66-.42v-5Z" transform="translate(-4.51 -11.12)"/><path class="cls-2" d="M296.81,32.28c7.91,0,13.67,4.14,13.67,13.38,0,.78-.06,2.76-.11,3.6H292.91c.12,4.68.9,8.88,5.94,8.88,3.48,0,5-2.46,6.41-5.58l5.11,1.8c-1.92,6.18-6.72,9.42-13.26,9.42-10,0-15.66-6.12-15.66-15.18C281.45,38.16,288,32.28,296.81,32.28Zm2.46,12.9V44c0-5.46-.24-7.68-2.88-7.68-3,0-3.42,4-3.42,8.88Z" transform="translate(-4.51 -11.12)"/><path class="cls-2" d="M335.45,58v5.1H313.37V58l3.9-.42v-19l-3.9-.48V33.24l14-.48.42,5.16h.24c1.32-2.64,3.6-5.64,8.64-5.64,4.43,0,7.43,2.7,7.43,8,0,4.32-2.52,6.9-6.42,6.9-4.43,0-5.64-2.76-5.57-6.18l2.57-.66a3.94,3.94,0,0,0,.12-.84c0-1-.59-1.44-1.61-1.44-3.42,0-4.86,4-4.86,9V57.6Z" transform="translate(-4.51 -11.12)"/><path class="cls-2" d="M362,47.46V43.08c0-4.32-1-7-5-7-1.86,0-2.64.54-2.64,1.74a4.71,4.71,0,0,0,.12.84h2.46a12.19,12.19,0,0,1,.36,2.46c0,2.58-1.56,4.62-5.28,4.62a4.89,4.89,0,0,1-5.28-5.22c0-5,4.32-8.28,13-8.28,8.16,0,13.38,2.58,13.38,11.34v11.7c0,1.92,0,3.06,1.14,3.06a4.72,4.72,0,0,0,2-.48l1,3.54a14.53,14.53,0,0,1-7.92,2.34c-4.2,0-5.76-1.8-6.6-4.56-.66,1.56-2.46,4.56-8.28,4.56-4.86,0-9-2.1-9-8,0-6.54,4.14-8.34,12.3-8.34Zm0,6.84V50.88H360.1c-2.88,0-3.66,1.14-3.66,4.08,0,2.7.9,4,2.82,4C360.82,59,362,58,362,54.3Z" transform="translate(-4.51 -11.12)"/><path class="cls-2" d="M380.69,38.28h-4.5V32.94h4.5V25.56l6.72-1.2h4.38v8.58h8.81v5.34h-8.81V54.36c0,2.46.77,3.78,2.75,3.78,2.22,0,2.94-1.8,4-5.58l4.08,1.08c-1.38,6.66-4,10.14-11.28,10.14-6.84,0-10.61-2.76-10.61-10.14Z" transform="translate(-4.51 -11.12)"/><path class="cls-2" d="M418.78,32.88V57.72l4.56.42v5H403.18v-5l4.5-.42v-19l-4.31-.42V33.42Zm-6.36-14.7c4,0,6.42,2,6.42,6,0,3.48-1.86,6.12-6.6,6.12-5.22,0-6.48-3.3-6.48-6.06C405.76,21.06,407.5,18.18,412.42,18.18Z" transform="translate(-4.51 -11.12)"/><path class="cls-2" d="M441,32.28c11.58,0,16,6.54,16,15.66,0,9.36-5.16,15.84-16.32,15.84-11.4,0-16-6.48-16-15.6C424.67,38.82,430.06,32.28,441,32.28Zm-.24,4.08c-3.72,0-4.5,3.48-4.5,11.4,0,8.7.78,11.88,4.62,11.88,3.6,0,4.44-3.42,4.44-11.46C445.36,39.66,444.7,36.36,440.8,36.36Z" transform="translate(-4.51 -11.12)"/><path class="cls-2" d="M472.78,32.76l.42,5.7h.42c1.38-3.18,3.6-6.18,10-6.18,5.7,0,9.42,2.52,9.42,9.54V57.6l3.66.42v5.1h-17V58l2.28-.42V43.38c0-2.88-.18-5-2.88-5s-4.62,1.5-4.62,6.36V57.6L477,58v5.1H459.64V58l3.66-.42v-19l-3.66-.42v-5Z" transform="translate(-4.51 -11.12)"/><path d="M533.24,55.52c0-3.66-3.6-4.38-11.22-6.06-8.88-2-12.66-6.24-12.66-13.32,0-7.44,5.22-13.2,14.58-13.2,5.34,0,7.56,2.46,8.7,2.46.9,0,1.2-.72,1.74-1.92h4.44l.42,12.84h-5.82c-1.5-4.8-3.78-7.86-9.18-7.86-2.94,0-5.82,1.08-5.82,4.5s3.48,4.14,8.16,5.28c8.82,2.16,15.12,4.2,15.12,14.16,0,8.22-6.36,13.86-14.58,13.86-5.82,0-8-2.46-9.48-2.46-.9,0-1.2.66-1.86,2.58h-5.16L510,51.92h5.88c1.44,5.34,4.26,8.52,10.2,8.52C530.54,60.44,533.24,58.82,533.24,55.52Z" transform="translate(-4.51 -11.12)"/><path d="M559.46,34.76c7.92,0,13.68,4.14,13.68,13.38,0,.78-.06,2.76-.12,3.6H555.56c.12,4.68.9,8.88,5.94,8.88,3.48,0,5-2.46,6.42-5.58l5.1,1.8c-1.92,6.18-6.72,9.42-13.26,9.42-10,0-15.66-6.12-15.66-15.18C544.1,40.64,550.64,34.76,559.46,34.76Zm2.46,12.9v-1.2c0-5.46-.24-7.68-2.88-7.68-3,0-3.42,4-3.42,8.88Z" transform="translate(-4.51 -11.12)"/><path d="M598.1,60.5v5.1H576V60.5l3.9-.42v-19l-3.9-.48V35.72l14-.48.42,5.16h.24c1.32-2.64,3.6-5.64,8.64-5.64,4.44,0,7.44,2.7,7.44,8,0,4.32-2.52,6.9-6.42,6.9-4.44,0-5.64-2.76-5.58-6.18l2.58-.66a4.71,4.71,0,0,0,.12-.84c0-1-.6-1.44-1.62-1.44-3.42,0-4.86,4-4.86,9V60.08Z" transform="translate(-4.51 -11.12)"/><path d="M607.7,35.42h17.64v5l-3.36.3,5.4,14.4h.24l4.86-14.4-3.24-.3v-5h11.82v5l-3,.3-8.82,24.9h-8.52L610.4,40.7l-2.7-.3Z" transform="translate(-4.51 -11.12)"/><path d="M657.44,35.36V60.2l4.56.42v5H641.84v-5l4.5-.42v-19L642,40.76V35.9Zm-6.36-14.7c4,0,6.42,2,6.42,6,0,3.48-1.86,6.12-6.6,6.12-5.22,0-6.48-3.3-6.48-6.06C644.42,23.54,646.16,20.66,651.08,20.66Z" transform="translate(-4.51 -11.12)"/><path d="M691.4,44.18c0,2.88-1.74,5.7-5.46,5.7-3.54,0-4.74-2.7-4.74-5a12.72,12.72,0,0,1,.36-2.58H684a6.68,6.68,0,0,0,.12-1c0-1.74-1.2-2.34-3-2.34-4.8,0-6.12,5.16-6.12,11.46,0,6.6,1,10.32,5.64,10.32,3.48,0,4.74-3.06,5.88-5.88l5.16,1.74c-.84,3.66-4.08,9.72-13,9.72-10,0-15.36-5.7-15.36-15.06,0-9.84,5.88-16.44,16.32-16.44C688.4,34.76,691.4,39.5,691.4,44.18Z" transform="translate(-4.51 -11.12)"/><path d="M709.58,34.76c7.92,0,13.68,4.14,13.68,13.38,0,.78-.06,2.76-.12,3.6H705.68c.12,4.68.9,8.88,5.94,8.88,3.48,0,5-2.46,6.42-5.58l5.1,1.8c-1.92,6.18-6.72,9.42-13.26,9.42-10,0-15.66-6.12-15.66-15.18C694.22,40.64,700.76,34.76,709.58,34.76ZM712,47.66v-1.2c0-5.46-.24-7.68-2.88-7.68-3,0-3.42,4-3.42,8.88Z" transform="translate(-4.51 -11.12)"/><path d="M726.32,56.06h4.44c1.26,3.06,3.9,5.7,8.82,5.7,3.3,0,4.5-.84,4.5-2.52,0-2.16-2.94-2.58-6.48-3.12-5.1-.84-11.28-2.16-11.28-10.56,0-6.72,5.1-10.8,11.82-10.8,4.26,0,5.4,1.86,7,1.86.9,0,.9-.36,1.32-1.32h3.78v9.24h-4.32c-1.8-3.84-3.72-5.4-7.5-5.4-2,0-4.26.48-4.26,2.58,0,1.92,2.76,2.46,6.42,3.18,5.1,1,11.46,2.58,11.46,10.62,0,7.2-4.92,10.74-11.58,10.74-5.22,0-6.9-2-8.46-2-.72,0-1,.48-1.44,1.5h-4.2Z" transform="translate(-4.51 -11.12)"/></svg>