<?xml version="1.0" encoding="UTF-8"?>
<svg id="Layer_1" data-name="Layer 1" xmlns="http://www.w3.org/2000/svg" viewBox="0 0 720.47 104.35">
  <path d="M0,13.87h32.58c16.29,0,28.48,7.1,28.48,22,0,10.09-6.62,16.44-16.16,19.42v.28c11.49.8,20.37,10.4,20.26,21.92,0,15.81-14.7,24.53-33,24.53H0V13.87ZM12.71,50.47h17.36c9.67,0,17.48-3.61,17.48-13.2,0-7-4.64-12.95-14.83-12.95H12.72v26.15h-.01ZM12.71,91.56h18.68c7.68,0,20.26-2.49,20.26-14.94,0-10.46-7.81-15.69-20.13-15.69H12.71v30.64h0Z" fill="#fff"/>
  <path d="M87.81,13.87v54c0,11,5.83,25.15,23.58,25.15s23.61-14.16,23.61-25.11V13.91h12.71v55.86c0,20.42-15.76,34.49-36.29,34.49s-36.32-14.07-36.32-34.49V13.87h12.71Z" fill="#fff"/>
  <path d="M185.56,64.42l-35.49-50.55h16.29l25.56,38.7,26.36-38.7h15.5l-35.5,50.55v37.6h-12.72v-37.6Z" fill="#fff"/>
  <path d="M237.88,13.87h60.53v11.2h-47.81v26.28h44.5v11.22h-44.5v28.25h50.2v11.21h-62.92V13.87Z" fill="#fff"/>
  <path d="M312.19,13.87h33c24,0,30.06,13.57,30.06,24.65s-8.87,21.79-23,23.28l26.62,40.22h-15.96l-23.84-38.85h-14.17v38.85h-12.71V13.87ZM324.9,52.72h16.69c10.06,0,20.13-2.24,20.13-14.19s-10.07-14.19-20.13-14.19h-16.69v28.38Z" fill="#fff"/>
  <path d="M382.74,90.81l50.18-65.74h-48.68v-11.2h63.62v11.2l-49.93,65.74h50.68v11.21h-65.87v-11.21Z" fill="#fff"/>
  <path d="M555.06,13.87h15.69l48.55,72.46h.25V13.87h12v88.15h-15.23l-49.06-72.45h-.26v72.47h-12V13.87h.06Z" fill="#fff"/>
  <path d="M647.94,13.87h56.9v11.2h-44.95v26.28h41.84v11.22h-41.84v28.24h47.19v11.21h-59.14V13.87Z" fill="#fff"/>
  <path d="M466.64,81.38l7.2.29c-4.75-6.25-7.48-13.8-7.84-21.64-1.2-20.26,12-37.36,32.66-38.56,8.36-.61,16.65,1.9,23.27,7.05l8.13.33.63-6.86c-8.52-7.11-19.83-11-32.6-10.22-26.73,1.55-44.85,22.31-43.31,48.91.45,10.47,4.37,20.49,11.14,28.49l.72-7.79Z" fill="#fff"/>
  <path d="M535,26.1l-.7,7.55-7.39-.3c5.26,6.42,8.31,14.36,8.68,22.65,1.18,20.26-12,37.37-32.68,38.57-8.92.66-17.73-2.25-24.51-8.08l-7.51-.31-.69,7.29c8.59,7.47,20.16,11.55,33.26,10.79,26.73-1.55,44.85-22.31,43.31-48.91-.67-11.63-4.95-21.71-11.77-29.25Z" fill="#fbd157"/>
  <path d="M705.56,6.97c0-.94.2-1.86.59-2.71.39-.83.93-1.58,1.6-2.21.69-.63,1.5-1.14,2.37-1.48,1.86-.74,3.93-.74,5.79,0,.87.35,1.67.86,2.36,1.5.67.63,1.21,1.38,1.6,2.21.79,1.72.79,3.7,0,5.42-.39.83-.93,1.58-1.6,2.21-.69.64-1.49,1.15-2.36,1.5-1.86.74-3.93.74-5.79,0-.87-.35-1.67-.86-2.36-1.5-.67-.63-1.21-1.38-1.6-2.21-.4-.85-.61-1.79-.6-2.73ZM706.88,6.97c0,.77.16,1.53.48,2.23.31.69.76,1.31,1.31,1.83.58.53,1.26.95,2,1.23,1.53.6,3.24.6,4.77,0,.74-.28,1.42-.7,2-1.23.55-.52,1-1.14,1.31-1.83.64-1.42.64-3.04,0-4.46-.31-.69-.76-1.31-1.31-1.83-.58-.53-1.26-.95-2-1.23-1.53-.6-3.24-.6-4.77,0-.74.28-1.42.7-2,1.23-.55.52-1,1.14-1.31,1.83-.32.7-.48,1.46-.47,2.23h-.01ZM710.14,2.97h3.29c.81-.06,1.61.16,2.27.62.5.45.77,1.11.73,1.78.05.59-.16,1.16-.58,1.58-.4.36-.91.58-1.45.62l2.2,3.38h-1.6l-2.12-3.26h-1.14v3.26h-1.56V2.95l-.04.02ZM711.7,6.44h1.86c.22-.01.44-.06.65-.14.18-.07.35-.19.47-.34.13-.18.19-.4.18-.62.01-.22-.05-.44-.18-.62-.12-.15-.29-.27-.47-.34-.21-.08-.43-.12-.65-.13h-1.86v2.23-.04Z" fill="#fff"/>
</svg>