<svg id="Layer_1" data-name="Layer 1" xmlns="http://www.w3.org/2000/svg" viewBox="0 0 24 24"><defs><style>.cls-1{fill:#80e1fd;}</style></defs><title>crosshair</title><path class="cls-1" d="M22,11A10,10,0,0,0,13,2.05V0H11V2.05a10,10,0,0,0-8.95,9H0v2H2.05a10,10,0,0,0,9,9V24h2V22A10,10,0,0,0,22,13H24V11Zm-6.09,2A4,4,0,0,1,13,15.86V14H11v1.86A4,4,0,0,1,8.14,13H10V11H8.14A4,4,0,0,1,11,8.14V10h2V8.14A4,4,0,0,1,15.86,11H14v2ZM11,4.07v2A6,6,0,0,0,6.09,11h-2A8,8,0,0,1,11,4.07ZM4.07,13h2A6,6,0,0,0,11,17.91v2A8,8,0,0,1,4.07,13ZM13,19.93v-2A6,6,0,0,0,17.91,13h2A8,8,0,0,1,13,19.93ZM17.91,11A6,6,0,0,0,13,6.09v-2A8,8,0,0,1,19.93,11Z" transform="translate(0 0)"/></svg>