<svg id="sign" xmlns="http://www.w3.org/2000/svg" viewBox="0 0 438.59 440.97"><defs><style>.cls-1{fill:#ff8935;}.cls-2{fill:#fcfcfc;}</style></defs><title>lead_generation</title><path class="cls-1" d="M438.39,337.32l-30-150.69a28,28,0,0,0-33-22l-45.86,9.12L243,53.51a34.9,34.9,0,1,0-59,0L58.66,227.62l-35.73,7.11a28,28,0,0,0-22,33l30,150.7a28,28,0,0,0,33,22L416.36,370.3A28,28,0,0,0,438.39,337.32ZM213.55,10.53a24.37,24.37,0,1,1-24.37,24.36A24.39,24.39,0,0,1,213.55,10.53ZM191.17,61.64a34.79,34.79,0,0,0,44.75,0L318.23,176,73.8,224.61ZM45.05,281.77a13.85,13.85,0,1,1,10.88-16.29A13.86,13.86,0,0,1,45.05,281.77Zm26.64,133.9a13.85,13.85,0,1,1,10.88-16.29A13.86,13.86,0,0,1,71.69,415.67ZM373,216.52a13.85,13.85,0,1,1,10.88-16.28A13.84,13.84,0,0,1,373,216.52Zm26.63,133.9a13.85,13.85,0,1,1,10.89-16.29A13.84,13.84,0,0,1,399.64,350.42Z" transform="translate(-0.35)"/><path class="cls-2" d="M91.72,308.51c-.63.17-1.21.33-1.8.43a159.65,159.65,0,0,1-5.58,17.66c5.38,2.8,10.28,5.42,14.47,4.29,2.13-.58,3.12-2.63,3.35-2.69s.49,0,.57.28-3.27,9.82-8.33,11.18c-3.85,1-8.64-2.1-13.76-5.53-3.17,5.18-7.32,9.2-13,10.72-7.53,2-12.38-1.78-13.76-6.89-1.62-6,1.44-13.83,10.46-16.27,4.37-1.18,8.7-.19,12.87,1.52,1.77-4.61,3.44-9.62,5.22-14.42-5.85-1.13-10.72-4.56-11.69-8.13-.6-2.24.88-4.3,1.68-4.52s1.28,1.07,2.07,2a17,17,0,0,0,10.14,5.34c3.36-7.63,7.49-13.8,13.87-15.53,4.48-1.21,7.32.62,8.13,3.6C108.07,296.7,103.67,305.28,91.72,308.51ZM62.59,327.36c-4.25,1.14-6.3,5-5.39,8.36.86,3.16,3.75,5,7.77,3.88s6.82-4.68,9.32-9.55C70.3,327.8,66.33,326.35,62.59,327.36ZM99,290.83c-3.34.9-5.44,5.91-7.45,12.62A19,19,0,0,0,94,303c7.18-1.94,9.68-6.87,8.88-9.8A3.07,3.07,0,0,0,99,290.83Z" transform="translate(-0.35)"/><path class="cls-2" d="M113.39,332.56c-3.91,1.06-8-2.08-9.3-6.8-2-7.29,3.11-22.73,10.81-24.81,2.07-.55,3-1.48,4.2-1.81,1.84-.49,4.13,1.17,4.74,3.41,1.16,4.31-3.2,13.5-12.45,16a1.55,1.55,0,0,1-.53.08,12.73,12.73,0,0,0,.07,5c.68,2.53,2,3.89,4.16,3.31,7.64-2.06,10.89-15.15,11.58-15.33s1,.85,1.2,1.71C128.43,315.43,122.93,330,113.39,332.56Zm4.88-29.62c-2,.55-5.24,6.6-6.75,12.43,4.28-2.2,8.94-8.46,8-11.73A.93.93,0,0,0,118.27,302.94Z" transform="translate(-0.35)"/><path class="cls-2" d="M148.62,322.37c-4,1.08-6.23-3.44-6.41-3.39s-2.94,6.47-7.7,7.76c-3.16.85-7-.9-8.35-6-2.28-8.45,4.12-24.48,13.54-27,4.66-1.26,6.13,2.6,6.3,2.55s2.33-4.63,3.36-4.91a4.1,4.1,0,0,1,1.76-.11c.61,0,1.5-.16,1.72.65.85,3.16-5.41,20.14-4.45,23.7a.88.88,0,0,0,1.12.75c3.68-1,7-12.8,7.54-12.95s1,.77,1.31,1.86S153.62,321,148.62,322.37Zm-8.93-25.28c-4.65,1.26-8.13,15.09-6.61,20.72.5,1.84,1.41,2.7,2.56,2.39,1.49-.4,4.77-4.25,4.47-5.34-.12-.46-1.36-.25-1.82-.12l-.12-.46c1.39-.81,6.16-9.38,4.73-14.66C142.42,297.84,141.07,296.72,139.69,297.09Z" transform="translate(-0.35)"/><path class="cls-2" d="M178.79,307.37a.88.88,0,0,0,1.12.75c3.68-1,7-12.8,7.49-12.94s1.06.76,1.36,1.85S184,312.8,179,314.17a6.55,6.55,0,0,1-7.49-3.09c-.47,1.48-2.77,6.42-6.45,7.41-3.16.85-7-.89-8.34-6-2.28-8.44,4.11-24.48,13.54-27,3.27-.89,4.89,2.37,5.09,2.87.81-3.17,3.86-20.4,5-20.71,2.3-.62,4.56,1.6,5.08,3.5C186,273.36,177.52,302.66,178.79,307.37ZM170,289.21c-4.89,1.32-7.82,15.13-6.33,20.64.44,1.61,1.28,2.43,2.48,2.11,3.28-.89,7.61-18,7.22-19.4C172.58,289.63,171.15,288.9,170,289.21Z" transform="translate(-0.35)"/><path class="cls-2" d="M207.47,285.5c.1,1.52.22,3.33.28,5.36a4.54,4.54,0,0,0,1.38-.13,1.89,1.89,0,0,0,1.35-1.17c.29-.08.36,0,.42.2l0,.11c1,3.32-.75,5.88-2.93,6.47l-.46.12c-.94,7.72-5.81,12.3-10.81,13.65s-10.07-.55-11.5-5.83a10.52,10.52,0,0,1,7.28-12.76A17.24,17.24,0,0,1,195,291a69.93,69.93,0,0,0,3.58-8.67c1.87-5.63,5.68-9.56,7.86-10.15,1.44-.38,2.67-.16,2.89.64C209.66,274.18,207.23,280.27,207.47,285.5Zm-13.41,12.2c-3.79,1-5.08,4-4.48,6.26.48,1.78,2.2,3.11,4.79,2.41s5.39-3.55,5.76-9.26A25.17,25.17,0,0,0,194.06,297.7Zm6-12.12c-.29.76-1.28,3.06-2.29,5.25.81,0,1.61,0,2.41,0,0-2.28,0-4.07.08-5.2Z" transform="translate(-0.35)"/><path class="cls-2" d="M202.42,320.53c-2,3.37-5.28,11-8,18.86-.34,1-.68,2-1,3,6.23-2.05,7.06-3.75,7.41-4.53l.8.22c-.43,1.16-1.78,9.42-9.65,11.54l-.69.19c-1,4.41-1.46,7.61-1.15,8.76.45,1.66,1.88,2.39,3.72,1.89,2.41-.65,4.67-4.4,4.84-5.13a6.15,6.15,0,0,0,.81.46l0-.06c.09.35-2.69,9.92-8.78,11.56-3.45.93-6.58-1.3-7.73-5.55-.74-2.76-.53-6.33.26-10.25a82.92,82.92,0,0,1-12,1.14c-6.21,11.23-13.39,21.87-22.87,24.43-9.08,2.45-15.23-2.05-16.92-8.32-2-7.47,2.33-17.4,15.72-21,7-1.9,14-1.63,21.6-1.77,6.61-12.27,13.28-24.55,22.36-27,5.74-1.56,11.88-1,12.09-.19C203.37,319,202.92,319.65,202.42,320.53Zm-55,33.79c-10.28,2.78-13.52,9.07-12.26,13.73,1.07,4,5.47,6.78,11.51,5.15,7.29-2,13-10.67,18.55-20.55C159.11,352.64,153.63,352.64,147.42,354.32ZM192.94,322c-6.37,1.72-11.83,12.32-17.93,23.77a80.69,80.69,0,0,0,10-1.17c.5-1.8,1.15-3.51,1.74-5.22,3.21-8.88,7-16.75,6.86-17.26C193.59,321.87,193.06,322,192.94,322Z" transform="translate(-0.35)"/><path class="cls-2" d="M222.83,338.57a3.74,3.74,0,0,1-2.79-.3c-1.12,3.14-9,24-11,24.56s-4.6-3.57-5-5.12c-.48-1.78-1-8.85-.94-15.1.23-8.76.19-10,2.49-10.66,1.38-.37,3.83-.42,4.3,1.3.62,2.3.12,15.75.28,19.54h.19c.7-1.74,6.95-16.5,6.89-16.72-.13-.46-.54-.41-.95-1.91-.57-2.12,2.48-10,4.38-10.49.8-.22,2.82-.52,3.13.63.47,1.73-3,10.31-3,10.48a2.05,2.05,0,0,0,2.5,1c2.13-.57,3.33-3.18,3.62-3.26s.39.08.47.37C227.59,333.58,225.94,337.73,222.83,338.57Z" transform="translate(-0.35)"/><path class="cls-2" d="M245.84,352.08c-4,1.09-6.23-3.43-6.4-3.39s-2.94,6.47-7.71,7.76c-3.16.85-7-.89-8.34-6-2.28-8.45,4.11-24.48,13.54-27a5.28,5.28,0,0,1,6.3,2.55c.29-.08,2.32-4.64,3.36-4.92a4.07,4.07,0,0,1,1.76-.1c.6,0,1.5-.16,1.71.64.86,3.16-5.41,20.15-4.44,23.71a.87.87,0,0,0,1.12.74c3.68-1,7-12.79,7.54-13s1,.78,1.31,1.87S250.84,350.73,245.84,352.08Zm-8.92-25.27c-4.65,1.26-8.13,15.08-6.61,20.71.5,1.84,1.41,2.71,2.56,2.4,1.49-.41,4.77-4.25,4.47-5.34-.12-.46-1.36-.25-1.82-.13l-.12-.46c1.38-.8,6.16-9.37,4.73-14.66C239.65,327.55,238.3,326.44,236.92,326.81Z" transform="translate(-0.35)"/><path class="cls-2" d="M260.26,348.62c-2.87.78-5.61-2.06-6.49-5.34-1.9-7,3.15-23.91,5.76-25.91a8,8,0,0,1,1.46-.52c1.44-.39,3.53-.64,3.79.34a.93.93,0,0,1,0,.5c-.58,2.63-5.13,20-4.06,24,.23.86.67,1.11,1.13,1,3.56-1,7.23-13.61,7.75-13.75s1.05,1.13,1.27,1.94C271.09,331.88,266.24,347,260.26,348.62ZM265.48,312a5,5,0,0,1-6.33-3.34,5.73,5.73,0,0,1,4.14-6.8,5,5,0,0,1,6.33,3.35A5.71,5.71,0,0,1,265.48,312Z" transform="translate(-0.35)"/><path class="cls-2" d="M275.71,333a17.56,17.56,0,0,0,.39,4.89,2.25,2.25,0,0,0,2.79,1.4c5.46-1.47,9.24-15.32,9.87-15.49s1.09,1.06,1.26,1.69c.54,2-5.12,16.43-12.53,18.43-3.39.92-7.7-1.8-8.43-4.5-2.49-9.2,5.63-41.23,16.72-44.23,2.24-.6,4.38.24,4.63,1.16C291,298.68,284.15,325,275.71,333Zm10.67-32.85c-.86.23-7.22,14.34-9.73,26.06,4.84-6.74,10.23-24.9,10-25.94A.19.19,0,0,0,286.38,300.13Z" transform="translate(-0.35)"/><path class="cls-2" d="M310.72,334.56c-4,1.08-6.23-3.44-6.4-3.39s-2.94,6.46-7.71,7.75c-3.16.86-7-.89-8.34-6-2.28-8.44,4.11-24.48,13.54-27,4.65-1.26,6.13,2.6,6.3,2.55s2.32-4.64,3.36-4.92a4.07,4.07,0,0,1,1.76-.1c.6,0,1.5-.16,1.71.65.86,3.16-5.41,20.14-4.44,23.7a.88.88,0,0,0,1.12.75c3.68-1,7-12.8,7.54-12.95s1,.77,1.31,1.86S315.72,333.2,310.72,334.56Zm-8.92-25.28c-4.65,1.26-8.13,15.09-6.61,20.72.5,1.84,1.41,2.7,2.56,2.39,1.49-.41,4.77-4.25,4.47-5.34-.12-.46-1.36-.25-1.82-.13l-.12-.46c1.38-.8,6.16-9.37,4.73-14.65C304.53,310,303.18,308.91,301.8,309.28Z" transform="translate(-0.35)"/><path class="cls-2" d="M328.62,330c-3.91,1.05-8.35.16-10.36-7.31-.7-2.59,1.5-11.32,4-20,2.68-9.48,5.13-18.66,7.95-19.42,1.55-.42,4.14.05,4.36.86s-1.45,5.14-2.28,8-2,7.26-1.92,7.49l.13,0a9.54,9.54,0,0,1,3.93-2.36c3.16-.85,6,.84,7.25,5.38C344,311.27,339.77,327,328.62,330Zm3.87-28.79c-2,.54-3.14,3.19-3.76,4.34s-4.24,16.93-3.56,19.46a1.8,1.8,0,0,0,2.5,1.24c4.54-1.23,9.36-17.14,7.79-22.95C335.17,302.24,334,300.83,332.49,301.24Z" transform="translate(-0.35)"/><path class="cls-2" d="M351.1,312.61a17.54,17.54,0,0,0,.4,4.89,2.24,2.24,0,0,0,2.78,1.4c5.46-1.47,9.25-15.32,9.88-15.49s1.09,1.06,1.26,1.7c.54,2-5.12,16.42-12.54,18.43-3.39.91-7.7-1.81-8.43-4.51-2.48-9.2,5.64-41.23,16.73-44.23,2.24-.6,4.38.24,4.62,1.16C366.44,278.32,359.54,304.59,351.1,312.61Zm10.68-32.85c-.87.23-7.23,14.35-9.74,26.06,4.84-6.73,10.23-24.9,10-25.93A.19.19,0,0,0,361.78,279.76Z" transform="translate(-0.35)"/><path class="cls-2" d="M373.08,318.39c-3.91,1.06-8-2.09-9.3-6.8-2-7.3,3.11-22.73,10.81-24.81,2.07-.56,3-1.48,4.19-1.81,1.84-.5,4.14,1.16,4.75,3.4,1.16,4.31-3.2,13.51-12.45,16a1.89,1.89,0,0,1-.53.08,12.75,12.75,0,0,0,.06,5c.68,2.53,2,3.89,4.17,3.31,7.64-2.06,10.89-15.15,11.57-15.33s1,.84,1.21,1.71C388.12,301.25,382.61,315.81,373.08,318.39ZM378,288.77c-2,.54-5.25,6.59-6.75,12.43,4.27-2.21,8.93-8.46,8.05-11.73A.93.93,0,0,0,378,288.77Z" transform="translate(-0.35)"/></svg>