<svg id="Layer_1" data-name="Layer 1" xmlns="http://www.w3.org/2000/svg" viewBox="0 0 533.51 533.47"><defs><style>.cls-1{fill:#fdb728;}.cls-2{fill:#fff;}</style></defs><title>marketing_icon</title><path class="cls-1" d="M560,276.74,522.32,319.8l19.51,53.7-50.76,26.61-1.29,57.1-57,6.54-21.92,52.78-55.51-14.39-39.59,41.33-46.54-33.38-51.91,24.3L186,486.52l-57.22,4L117,434.62,62.21,417.76l9.27-56.37L26.49,326l29.1-49.22-29.1-49.23,45-35.43-9.27-56.36L117,118.85,128.82,63,186,67l31.29-47.87,51.91,24.3L315.78,10l39.59,41.33,55.51-14.39L432.8,89.72l57,6.55,1.29,57.1L541.83,180l-19.51,53.7Z" transform="translate(-26.49 -10)"/><path class="cls-2" d="M258,110.27,294.2,453.35c-87.87.61-163.06-65.87-172.49-155.24S171.92,128,258,110.27Zm34.83-3.68,16.28,154.22L463,244.57C446.31,164.11,374.8,106.09,292.81,106.59Zm19.93,188.87L329,449.67c80.46-16.64,138.12-88.29,137.6-170.45Z" transform="translate(-26.49 -10)"/></svg>