<svg id="Layer_1" data-name="Layer 1" xmlns="http://www.w3.org/2000/svg" viewBox="0 0 634.8 124.4"><defs><style>.cls-1{fill:#fff;}</style></defs><title>logo_white</title><path class="cls-1" d="M61,38.6a42.51,42.51,0,0,0-28.2,7.9V.8L4,1.7V15.1H14.6V123.9H32.8v-7.1a43.09,43.09,0,0,0,68.1-35.1A43.57,43.57,0,0,0,61,38.6Zm13.2,61.7,1.5,13.1-11.8-7.6a25.7,25.7,0,0,1-6.2.8,25,25,0,1,1,25-25,24.75,24.75,0,0,1-8.5,18.7Z" transform="translate(-4 -0.8)"/><path class="cls-1" d="M161.2,123.7h18.2V39.4l-28.7.9V53.7h10.6V90.6c0,8.1-5.8,15.3-13.8,16.3a14.77,14.77,0,0,1-2.1.1,16,16,0,0,1-15.9-15.9V39.4l-28.6.9V53.7h10.6V91.2a33.92,33.92,0,0,0,49.9,30" transform="translate(-4 -0.8)"/><path class="cls-1" d="M340.9,40.3a34.09,34.09,0,0,0-15.9,4V40.4l-28.7.9V54.7h10.6v69.7h18.2V74.9c0-8.1,5.8-15.3,13.8-16.3a14.77,14.77,0,0,1,2.1-.1,16,16,0,0,1,15.9,15.9v50.1H375V74.3a34.32,34.32,0,0,0-34.1-34Z" transform="translate(-4 -0.8)"/><path class="cls-1" d="M256,40.3V53.7h10.5v70.2h18.2V39.4Z" transform="translate(-4 -0.8)"/><circle class="cls-1" cx="269.9" cy="14.3" r="11.3"/><path class="cls-1" d="M222.5,72.8c-15.8-3.2-15.8-6.2-15.8-8.5v-.2c0-3.7,4.6-7.6,12.1-7.6a29.53,29.53,0,0,1,17.4,6l10.9-14.3A45.31,45.31,0,0,0,219,38.8c-16.9,0-30.2,11.1-30.2,25.4v.1c0,17.4,15.1,22.7,29.7,25.7,16.1,3.3,16.1,6.3,16.1,8.7v.2c0,5.7-6.6,8.3-13.2,8.3a28.18,28.18,0,0,1-20.3-8.3L188.8,112a46.86,46.86,0,0,0,32.5,13.1c18.1,0,31.2-11,31.2-26.1v-.2C252.5,81.3,237.3,75.8,222.5,72.8Z" transform="translate(-4 -0.8)"/><path class="cls-1" d="M509.8,72.8C494,69.6,494,66.6,494,64.4v-.2c0-3.7,4.6-7.6,12.1-7.6a29.53,29.53,0,0,1,17.4,6l10.9-14.3a45.31,45.31,0,0,0-28.1-9.4c-16.9,0-30.2,11.1-30.2,25.4v.1c0,17.4,15.1,22.7,29.7,25.7,16.1,3.3,16.1,6.3,16.1,8.7V99c0,5.7-6.6,8.3-13.2,8.3a27.71,27.71,0,0,1-20.3-8.4L476,112a46.86,46.86,0,0,0,32.5,13.1c18.1,0,31.2-11,31.2-26.1v-.2C539.8,81.3,524.7,75.8,509.8,72.8Z" transform="translate(-4 -0.8)"/><path class="cls-1" d="M579.6,72.8c-15.8-3.2-15.8-6.2-15.8-8.4v-.2c0-3.7,4.6-7.6,12.1-7.6a29.53,29.53,0,0,1,17.4,6l10.9-14.3a45.31,45.31,0,0,0-28.1-9.4c-16.9,0-30.2,11.1-30.2,25.4v.1c0,17.4,15.1,22.7,29.7,25.7,16.1,3.3,16.1,6.3,16.1,8.7V99c0,5.7-6.6,8.3-13.2,8.3A28.18,28.18,0,0,1,558.2,99l-12.4,13a46.86,46.86,0,0,0,32.5,13.1c18.1,0,31.2-11,31.2-26.1v-.2C609.5,81.3,594.4,75.8,579.6,72.8Z" transform="translate(-4 -0.8)"/><path class="cls-1" d="M619.2,58.9a9.6,9.6,0,0,1,19.2,0,9.24,9.24,0,0,1-3.2,7.4l-2.8-2.6a6.33,6.33,0,0,0,2.3-4.8c0-3.1-2.6-5.3-5.9-5.3a5.64,5.64,0,0,0-5.9,5.5,6.49,6.49,0,0,0,2.3,4.8l-2.5,2.5A9.28,9.28,0,0,1,619.2,58.9Z" transform="translate(-4 -0.8)"/><path class="cls-1" d="M619.2,80v-.3a9.56,9.56,0,0,1,9.5-9.5h.3a9.8,9.8,0,1,1-9.8,9.8Zm15.5,0c0-3.4-2.6-5.6-5.9-5.6h-.3a5.59,5.59,0,0,0-5.6,5.6h0c0,3.4,2.6,5.6,5.9,5.6h.3a5.59,5.59,0,0,0,5.6-5.6Z" transform="translate(-4 -0.8)"/><path class="cls-1" d="M638.3,116.8c0,4-2.5,6.5-7,6.5H619.6V119H630c2.9,0,4.5-1.4,4.5-3.8s-1.6-4-4.5-4H619.7V107H630c2.8,0,4.4-1.4,4.4-3.8s-1.7-4-4.6-4H619.5V95h18.3v4.2H635a6.5,6.5,0,0,1,3.2,5.6,5.93,5.93,0,0,1-3.2,5.5A8.2,8.2,0,0,1,638.3,116.8Z" transform="translate(-4 -0.8)"/><circle class="cls-1" cx="617.9" cy="41" r="2.7"/><path class="cls-1" d="M469.4,89.2a45.24,45.24,0,0,0,.6-7.4,43.1,43.1,0,0,0-86.2-.1c-.1,23.6,0,.1,0,.1v1.9c0,.4.1.9.1,1.4v.5a7.72,7.72,0,0,0,.2,1.5.9.9,0,0,0,.1.5c.1.4.1.9.2,1.3v.3c3.7,20.2,22,35.6,44,35.6a45,45,0,0,0,38.2-20.7L451,94.9a27,27,0,0,1-22.5,11.8c-11.9,0-21.9-7.3-25.3-17.4l66.2-.1ZM427,56.8a24.91,24.91,0,0,1,23.7,17.4H403.2A24.91,24.91,0,0,1,427,56.8Z" transform="translate(-4 -0.8)"/></svg>