<svg xmlns="http://www.w3.org/2000/svg" viewBox="0 0 270.97 189.25"><title>blog_logo</title><polygon points="270.97 160.81 0 140.32 0 0 270.97 20.48 270.97 160.81" style="fill:#153353"/><path d="M42.42,26.34l4.64.36L64.74,69.62,59,69.18,54.76,58.64,34,57.07,29.68,67l-5.58-.42Zm2.24,6.52h-.12L35.9,52.64l17,1.28Z" transform="translate(-5.54 -4.39)" style="fill:#fff"/><path d="M70.26,28.45l12.69,1a24.54,24.54,0,0,1,5,.91,15.17,15.17,0,0,1,4.41,2.06,10.9,10.9,0,0,1,3.14,3.38,9.5,9.5,0,0,1,1.2,4.91,8.53,8.53,0,0,1-2,5.87,9.7,9.7,0,0,1-5.32,3v.12A11.06,11.06,0,0,1,93.2,51a11.28,11.28,0,0,1,3,2.43,11,11,0,0,1,2.67,7.19,9.8,9.8,0,0,1-1.44,5.59,9.68,9.68,0,0,1-3.76,3.27,15.36,15.36,0,0,1-5.23,1.45,31,31,0,0,1-5.78.09L70.26,70Zm4.94,18L82,47a23.28,23.28,0,0,0,3.44,0,8.13,8.13,0,0,0,3-.74,5.18,5.18,0,0,0,2.18-1.89,6.28,6.28,0,0,0,.82-3.43,5.8,5.8,0,0,0-2.79-5.26,9.3,9.3,0,0,0-2.88-1.19A20.09,20.09,0,0,0,82.54,34L75.2,33.4Zm0,19.39,8.34.63a17.4,17.4,0,0,0,3.61-.11,10.17,10.17,0,0,0,3.23-1A6.16,6.16,0,0,0,92.7,63.3,5.79,5.79,0,0,0,93.58,60a7.26,7.26,0,0,0-3.08-6.22,10,10,0,0,0-3.17-1.48,19.68,19.68,0,0,0-3.67-.62L75.2,51Z" transform="translate(-5.54 -4.39)" style="fill:#fff"/><path d="M126.59,75.35a23.77,23.77,0,0,1-8.72-2.3A23.49,23.49,0,0,1,111,68a22.5,22.5,0,0,1-4.52-7.28,24.05,24.05,0,0,1-1.62-8.84,22.22,22.22,0,0,1,1.62-8.6A18.32,18.32,0,0,1,111,36.67a18.91,18.91,0,0,1,6.87-4,21.73,21.73,0,0,1,8.72-1,23.88,23.88,0,0,1,8.73,2.3A23.34,23.34,0,0,1,142.19,39a22.63,22.63,0,0,1,4.52,7.27,24.05,24.05,0,0,1,1.62,8.84,22.18,22.18,0,0,1-1.62,8.6,18.36,18.36,0,0,1-4.52,6.59,19.08,19.08,0,0,1-6.87,4A22,22,0,0,1,126.59,75.35Zm0-4.58a15.63,15.63,0,0,0,6.67-.85,14.27,14.27,0,0,0,5.2-3.3,15.46,15.46,0,0,0,3.38-5.24,18,18,0,0,0,1.2-6.64,19.41,19.41,0,0,0-1.2-6.81,18.8,18.8,0,0,0-3.38-5.75,17.37,17.37,0,0,0-5.2-4.09,17,17,0,0,0-6.67-1.86,15.57,15.57,0,0,0-6.66.85,14.16,14.16,0,0,0-5.2,3.31,15.17,15.17,0,0,0-3.38,5.23,18,18,0,0,0-1.2,6.64,19.37,19.37,0,0,0,1.2,6.81,18.49,18.49,0,0,0,3.38,5.75,17.56,17.56,0,0,0,5.2,4.1A16.92,16.92,0,0,0,126.59,70.77Z" transform="translate(-5.54 -4.39)" style="fill:#fff"/><path d="M187.44,63a23.13,23.13,0,0,1-.85,6.4,13.66,13.66,0,0,1-2.7,5.17,11.71,11.71,0,0,1-4.84,3.34,16.86,16.86,0,0,1-7.29.83,18.11,18.11,0,0,1-7.28-1.94,14.58,14.58,0,0,1-4.85-4.06,16.45,16.45,0,0,1-2.7-5.58,24.56,24.56,0,0,1-.85-6.53V34.94l4.93.37v25a22.89,22.89,0,0,0,.53,4.92,13.13,13.13,0,0,0,1.76,4.3,10.06,10.06,0,0,0,3.29,3.16,11.5,11.5,0,0,0,5.17,1.47,10.55,10.55,0,0,0,5.17-.69,8,8,0,0,0,3.29-2.66,11.13,11.13,0,0,0,1.76-4,21.73,21.73,0,0,0,.53-4.83v-25l4.93.38Z" transform="translate(-5.54 -4.39)" style="fill:#fff"/><path d="M225.51,44.77l-13.75-1v37l-4.93-.37v-37l-13.75-1V37.73l32.43,2.46Z" transform="translate(-5.54 -4.39)" style="fill:#fff"/><path d="M74.88,75.72l9.16.69v33.13l17,1.28v8.46l-26.14-2Z" transform="translate(-5.54 -4.39)" style="fill:#27aae1"/><path d="M106.42,78.1l28.26,2.14v8.45l-19.09-1.44V95l18,1.37v8.46l-18-1.37v8.46l20.14,1.52v8.46l-29.31-2.21Z" transform="translate(-5.54 -4.39)" style="fill:#27aae1"/><path d="M156.76,81.91l7.58.57,18.09,43-10.34-.78-3.58-9.08-16.15-1.22-3.47,8.55-10.1-.77Zm3.53,12.36-5.06,12.54,10.17.77Z" transform="translate(-5.54 -4.39)" style="fill:#27aae1"/><path d="M186.6,84.16l13.74,1A40.6,40.6,0,0,1,209.83,87a23.73,23.73,0,0,1,7.84,4.21A19.84,19.84,0,0,1,223,98.13a22.76,22.76,0,0,1,2,9.84,18.93,18.93,0,0,1-1.9,8.76,17.34,17.34,0,0,1-5.14,6.07,20.87,20.87,0,0,1-7.46,3.4,28.29,28.29,0,0,1-8.87.68l-15-1.13ZM195.76,118l4.76.36a24.8,24.8,0,0,0,5.9-.2,11.59,11.59,0,0,0,4.73-1.79,9.1,9.1,0,0,0,3.14-3.69,13.31,13.31,0,0,0,1.15-5.88,12.08,12.08,0,0,0-1.15-5.4,11.7,11.7,0,0,0-3.08-4,14.7,14.7,0,0,0-4.55-2.55,21.28,21.28,0,0,0-5.49-1.15l-5.41-.41Z" transform="translate(-5.54 -4.39)" style="fill:#27aae1"/><path d="M251.74,99.25a7.33,7.33,0,0,0-3-2.32,11.6,11.6,0,0,0-3.61-1,9.58,9.58,0,0,0-2.06.08,7.39,7.39,0,0,0-2,.59,3.8,3.8,0,0,0-1.53,1.2,3.17,3.17,0,0,0-.59,2,3.59,3.59,0,0,0,1.41,3,14.64,14.64,0,0,0,3.56,2c1.43.58,3,1.17,4.61,1.76a20.65,20.65,0,0,1,4.61,2.35,12.18,12.18,0,0,1,3.55,3.73,11.11,11.11,0,0,1,1.41,5.92,12.75,12.75,0,0,1-1.29,6,11,11,0,0,1-3.5,4,13.64,13.64,0,0,1-5.11,2.14,22.07,22.07,0,0,1-6.13.36,23.3,23.3,0,0,1-7.52-1.81,20.69,20.69,0,0,1-6.46-4.48l6.52-6.67a10.6,10.6,0,0,0,3.55,3.17,10.72,10.72,0,0,0,4.44,1.37,10.15,10.15,0,0,0,2.26-.1,6.83,6.83,0,0,0,2-.63,4,4,0,0,0,1.47-1.24,3.19,3.19,0,0,0,.56-1.9,3.8,3.8,0,0,0-1.44-3.07,14.52,14.52,0,0,0-3.61-2.13c-1.45-.62-3-1.24-4.7-1.88a23.14,23.14,0,0,1-4.7-2.41,12.66,12.66,0,0,1-3.61-3.68,10.29,10.29,0,0,1-1.44-5.69,11.88,11.88,0,0,1,1.32-5.77,11.42,11.42,0,0,1,3.52-4,14.34,14.34,0,0,1,5.08-2.17,20.59,20.59,0,0,1,5.94-.4,24.36,24.36,0,0,1,6.81,1.51,17.32,17.32,0,0,1,5.93,3.8Z" transform="translate(-5.54 -4.39)" style="fill:#27aae1"/><polyline points="199.48 154.4 178.73 189.25 234.98 157.09" style="fill:#153353"/><path d="M24.93,125.26l2.6.2a5.13,5.13,0,0,1,1,.19,2.9,2.9,0,0,1,.9.44,2,2,0,0,1,.63.73,2.14,2.14,0,0,1,.24,1.05,1.85,1.85,0,0,1-.4,1.2,1.81,1.81,0,0,1-1.15.6v0a2.3,2.3,0,0,1,1.45.76,2.34,2.34,0,0,1,.53,1.58,2.57,2.57,0,0,1-.11.6,1.82,1.82,0,0,1-.44.78,2.39,2.39,0,0,1-1,.62,3.7,3.7,0,0,1-1.68.17l-2.66-.2Zm.89,3.9,1.79.13a2.22,2.22,0,0,0,.63,0,1.58,1.58,0,0,0,.57-.22,1.19,1.19,0,0,0,.41-.45,1.31,1.31,0,0,0,.16-.69,1.71,1.71,0,0,0-.05-.39,1.34,1.34,0,0,0-.25-.51,1.67,1.67,0,0,0-.56-.47,2.4,2.4,0,0,0-1-.25l-1.7-.13Zm0,4.09,1.7.13a3.34,3.34,0,0,0,.9,0,1.86,1.86,0,0,0,.73-.25,1.28,1.28,0,0,0,.67-1.2,1.63,1.63,0,0,0-.56-1.32,2.86,2.86,0,0,0-1.63-.55l-1.81-.13Z" transform="translate(-5.54 -4.39)" style="fill:#bcbec0"/><path d="M39,131.8a5.88,5.88,0,0,1-.13,1.15,2.91,2.91,0,0,1-.49,1.09,2.47,2.47,0,0,1-1,.78,3.14,3.14,0,0,1-1.6.22,3.44,3.44,0,0,1-1.6-.46,3.24,3.24,0,0,1-1-.93,3.35,3.35,0,0,1-.49-1.17,6.1,6.1,0,0,1-.12-1.16v-5.48l.88.07v5.38a3.92,3.92,0,0,0,.13,1.09,3,3,0,0,0,.32.78,2,2,0,0,0,.46.52,2.38,2.38,0,0,0,.51.32,2.52,2.52,0,0,0,.48.17l.41.06a2.65,2.65,0,0,0,.4,0,1.85,1.85,0,0,0,.5-.1,2.07,2.07,0,0,0,.5-.24,1.51,1.51,0,0,0,.46-.45,2.47,2.47,0,0,0,.32-.73,3.73,3.73,0,0,0,.13-1.07v-5.38l.89.06Z" transform="translate(-5.54 -4.39)" style="fill:#bcbec0"/><path d="M44,135.44l-.89-.07v-3.76l-3.27-5.22,1.11.08,2.6,4.32,2.61-3.92,1.11.08L44,131.68Z" transform="translate(-5.54 -4.39)" style="fill:#bcbec0"/><path d="M49.14,135l4.68.35v.81l-5.57-.42V127l5.42.41v.81l-4.53-.34v3l4.23.32V132l-4.23-.32Z" transform="translate(-5.54 -4.39)" style="fill:#bcbec0"/><path d="M56.46,136.38l-.89-.06v-8.74l2.69.2a3.68,3.68,0,0,1,2.1.74,2.21,2.21,0,0,1,.77,1.81,2.06,2.06,0,0,1-.57,1.5,2.31,2.31,0,0,1-1.66.59l2.52,4.34-1.09-.08-2.39-4.24-1.48-.11Zm0-4.87,1.58.12a3.48,3.48,0,0,0,1,0,1.68,1.68,0,0,0,.66-.27,1.14,1.14,0,0,0,.36-.46,1.59,1.59,0,0,0,.11-.59,1.71,1.71,0,0,0-.11-.59,1.4,1.4,0,0,0-.36-.52,1.73,1.73,0,0,0-.66-.37,3.76,3.76,0,0,0-1-.2l-1.58-.12Z" transform="translate(-5.54 -4.39)" style="fill:#bcbec0"/><path d="M68.2,129.28l-5.09,6.79,5.17.39v.82L62,136.8v-.74l5.11-6.79-5-.38v-.82l6.14.47Z" transform="translate(-5.54 -4.39)" style="fill:#bcbec0"/><path d="M78.26,133.67a4.6,4.6,0,0,1-.35,1.81,3.89,3.89,0,0,1-2.4,2.22,4.42,4.42,0,0,1-1.8.21,5,5,0,0,1-1.81-.48,4.83,4.83,0,0,1-1.45-1.07,4.94,4.94,0,0,1-1-1.52,5,5,0,0,1-.35-1.86,4.65,4.65,0,0,1,.35-1.82,3.89,3.89,0,0,1,2.4-2.22,4.47,4.47,0,0,1,1.81-.21,4.9,4.9,0,0,1,1.8.48A4.83,4.83,0,0,1,77,130.28a4.94,4.94,0,0,1,1,1.52A5,5,0,0,1,78.26,133.67Zm-1-.08a4.42,4.42,0,0,0-.25-1.45,3.91,3.91,0,0,0-.71-1.26,3.75,3.75,0,0,0-1.13-.91,3.8,3.8,0,0,0-1.5-.43,3.51,3.51,0,0,0-1.51.2,3.13,3.13,0,0,0-1.13.74,3.38,3.38,0,0,0-.71,1.15,4.15,4.15,0,0,0-.24,1.42,4.41,4.41,0,0,0,.24,1.45,4.11,4.11,0,0,0,.71,1.26,3.8,3.8,0,0,0,2.64,1.34,3.44,3.44,0,0,0,1.5-.2,3,3,0,0,0,1.13-.74,3.14,3.14,0,0,0,.71-1.15A4.16,4.16,0,0,0,77.3,133.59Z" transform="translate(-5.54 -4.39)" style="fill:#bcbec0"/><path d="M86.35,137.31h0v-7.4l.89.07v8.73l-1.11-.08L81,130.76h0v7.47l-.88-.06v-8.74l1.11.08Z" transform="translate(-5.54 -4.39)" style="fill:#bcbec0"/><path d="M90.52,138.15l4.68.35v.81l-5.56-.42v-8.73l5.41.41v.81L90.52,131v3l4.24.32v.82l-4.24-.32Z" transform="translate(-5.54 -4.39)" style="fill:#bcbec0"/><path d="M97.27,133.63l-.81-.06.83-2.84,1,.08Z" transform="translate(-5.54 -4.39)" style="fill:#bcbec0"/><path d="M104.29,132.71a2.09,2.09,0,0,0-1.69-1,2.49,2.49,0,0,0-.67,0,1.61,1.61,0,0,0-.6.24,1.27,1.27,0,0,0-.43.46,1.39,1.39,0,0,0-.16.7,1.31,1.31,0,0,0,.33.94,2.85,2.85,0,0,0,.83.6,9,9,0,0,0,1.08.46,5.42,5.42,0,0,1,1.08.53,2.84,2.84,0,0,1,.83.79,2.22,2.22,0,0,1,.33,1.27,2.09,2.09,0,0,1-.25,1.05,2.2,2.2,0,0,1-.67.75,2.86,2.86,0,0,1-.92.42,3.31,3.31,0,0,1-1,.1,4.06,4.06,0,0,1-1.53-.42,3.27,3.27,0,0,1-1.23-1.09l.82-.52a2.24,2.24,0,0,0,.79.83,2.4,2.4,0,0,0,1.19.38,2.11,2.11,0,0,0,.66,0,1.79,1.79,0,0,0,.6-.26,1.65,1.65,0,0,0,.44-.47,1.31,1.31,0,0,0,.17-.67,1.54,1.54,0,0,0-.19-.77,1.87,1.87,0,0,0-.51-.54,3.12,3.12,0,0,0-.72-.4l-.82-.33c-.29-.11-.56-.24-.83-.37a3.31,3.31,0,0,1-.71-.49,2.3,2.3,0,0,1-.51-.71,2.41,2.41,0,0,1-.19-1,2.27,2.27,0,0,1,.24-1.08,2.05,2.05,0,0,1,.64-.73,2.76,2.76,0,0,1,.91-.39,3.55,3.55,0,0,1,1-.06,3.62,3.62,0,0,1,1.35.33,3.24,3.24,0,0,1,1.12.91Z" transform="translate(-5.54 -4.39)" style="fill:#bcbec0"/><path d="M111.34,139.72l4.07.31v.81l-5-.37v-8.74l.89.07Z" transform="translate(-5.54 -4.39)" style="fill:#bcbec0"/><path d="M117.51,140.19l4.68.35v.81l-5.57-.42V132.2l5.42.41v.81l-4.53-.34v3l4.23.32v.82l-4.23-.32Z" transform="translate(-5.54 -4.39)" style="fill:#bcbec0"/><path d="M123.79,141.47l-1-.07,3.81-8.45.86.06,3.8,9-1-.08-1-2.37-4.47-.34Zm1.3-3,3.78.29L127,134Z" transform="translate(-5.54 -4.39)" style="fill:#bcbec0"/><path d="M132.28,133.38l2.9.22a5.38,5.38,0,0,1,1.63.39,5.28,5.28,0,0,1,1.49.94,4.57,4.57,0,0,1,1.06,1.45,4.45,4.45,0,0,1,.41,1.93,4.09,4.09,0,0,1-.41,1.89,3.7,3.7,0,0,1-1.06,1.28,4.27,4.27,0,0,1-1.49.71,5,5,0,0,1-1.63.15l-2.9-.22Zm.89,8,1.73.13a4.49,4.49,0,0,0,1.73-.17,3.25,3.25,0,0,0,1.22-.71,2.77,2.77,0,0,0,.72-1.08,3.57,3.57,0,0,0,.24-1.3,3.85,3.85,0,0,0-.24-1.33,3.34,3.34,0,0,0-.72-1.19,3.74,3.74,0,0,0-1.22-.89,4.73,4.73,0,0,0-1.73-.44l-1.73-.13Z" transform="translate(-5.54 -4.39)" style="fill:#bcbec0"/><path d="M151.43,136.43a3.56,3.56,0,0,0-2.49-1.2,3.36,3.36,0,0,0-1.51.2,3.13,3.13,0,0,0-1.13.74,3.43,3.43,0,0,0-.71,1.15,4.11,4.11,0,0,0-.24,1.42,4.45,4.45,0,0,0,.24,1.45,4.32,4.32,0,0,0,.71,1.26,3.87,3.87,0,0,0,1.13.91,3.73,3.73,0,0,0,1.51.42,5.09,5.09,0,0,0,1.3-.06,4.46,4.46,0,0,0,1.12-.37v-2.93l-2.09-.15v-.82l3,.23V143a5.94,5.94,0,0,1-1.62.54,7,7,0,0,1-1.68.1,5,5,0,0,1-1.81-.48,4.83,4.83,0,0,1-1.44-1.07,4.9,4.9,0,0,1-1-1.52,5,5,0,0,1-.35-1.87,4.6,4.6,0,0,1,.35-1.81,4,4,0,0,1,1-1.38,3.83,3.83,0,0,1,1.44-.84,4.49,4.49,0,0,1,1.81-.21,5.3,5.3,0,0,1,1.81.42,4.44,4.44,0,0,1,1.35,1Z" transform="translate(-5.54 -4.39)" style="fill:#bcbec0"/><path d="M155.47,143.05l4.67.36v.81l-5.56-.42v-8.73l5.41.41v.81l-4.52-.34v3l4.23.32v.82l-4.23-.32Z" transform="translate(-5.54 -4.39)" style="fill:#bcbec0"/><path d="M168.21,143.5h0v-7.4l.88.07v8.73l-1.11-.08-5.2-7.87h0v7.48l-.89-.06v-8.74l1.11.08Z" transform="translate(-5.54 -4.39)" style="fill:#bcbec0"/><path d="M172.38,144.33l4.68.36v.81l-5.57-.42v-8.74l5.42.41v.82l-4.53-.34v3l4.24.32v.81l-4.24-.32Z" transform="translate(-5.54 -4.39)" style="fill:#bcbec0"/><path d="M179.7,145.7l-.89-.07V136.9l2.69.2a3.68,3.68,0,0,1,2.1.74,2.21,2.21,0,0,1,.78,1.81,2,2,0,0,1-.58,1.49,2.26,2.26,0,0,1-1.66.6l2.52,4.34-1.09-.09-2.39-4.24-1.48-.11Zm0-4.87,1.58.12a3.57,3.57,0,0,0,1,0,1.56,1.56,0,0,0,.65-.28,1,1,0,0,0,.36-.45,1.44,1.44,0,0,0,.11-.59,1.52,1.52,0,0,0-.11-.6,1.26,1.26,0,0,0-.36-.51,1.92,1.92,0,0,0-.65-.38,4,4,0,0,0-1-.19l-1.58-.12Z" transform="translate(-5.54 -4.39)" style="fill:#bcbec0"/><path d="M186,146.18l-1-.08,3.8-8.45.87.06,3.8,9-1-.08-1-2.37-4.47-.34Zm1.3-3,3.78.28-1.88-4.73Z" transform="translate(-5.54 -4.39)" style="fill:#bcbec0"/><path d="M196.56,147l-.89-.07V139l-2.93-.22V138l6.74.51v.81l-2.92-.22Z" transform="translate(-5.54 -4.39)" style="fill:#bcbec0"/><path d="M201.72,147.37l-.88-.07v-8.74l.88.07Z" transform="translate(-5.54 -4.39)" style="fill:#bcbec0"/><path d="M212.61,143.82a4.56,4.56,0,0,1-.35,1.81,4.1,4.1,0,0,1-.95,1.38,4,4,0,0,1-1.45.85,4.47,4.47,0,0,1-1.81.21,5,5,0,0,1-3.25-1.55,5,5,0,0,1-1.3-3.39,4.6,4.6,0,0,1,.35-1.81,3.86,3.86,0,0,1,2.4-2.23,4.63,4.63,0,0,1,1.8-.2,4.9,4.9,0,0,1,4.56,4.93Zm-1-.07a4.51,4.51,0,0,0-.24-1.46,3.94,3.94,0,0,0-.71-1.25,3.9,3.9,0,0,0-1.13-.92,3.68,3.68,0,0,0-1.51-.42,3.3,3.3,0,0,0-1.5.2,2.93,2.93,0,0,0-1.13.74,3.28,3.28,0,0,0-.71,1.15,4.11,4.11,0,0,0-.25,1.42,4.46,4.46,0,0,0,.25,1.45,4.11,4.11,0,0,0,.71,1.26,3.75,3.75,0,0,0,1.13.91,3.63,3.63,0,0,0,1.5.42,3.49,3.49,0,0,0,1.51-.19,3.13,3.13,0,0,0,1.13-.74,3.47,3.47,0,0,0,.71-1.15A4.19,4.19,0,0,0,211.64,143.75Z" transform="translate(-5.54 -4.39)" style="fill:#bcbec0"/><path d="M220.7,147.47h0v-7.4l.89.06v8.74l-1.12-.08-5.2-7.87h0v7.48l-.89-.07v-8.73l1.12.08Z" transform="translate(-5.54 -4.39)" style="fill:#bcbec0"/><path d="M227.41,140.57l2.61.2a5.25,5.25,0,0,1,1,.19,3,3,0,0,1,.9.44,2.19,2.19,0,0,1,.63.72,2.33,2.33,0,0,1,.23,1.06,1.81,1.81,0,0,1-.4,1.2,1.76,1.76,0,0,1-1.14.59v0a2.26,2.26,0,0,1,1.45.76,2.32,2.32,0,0,1,.52,1.57,2.58,2.58,0,0,1-.1.61,1.93,1.93,0,0,1-.44.78,2.49,2.49,0,0,1-1,.62,3.84,3.84,0,0,1-1.68.17l-2.67-.2Zm.89,3.89,1.79.14a2.28,2.28,0,0,0,.64,0,1.43,1.43,0,0,0,.57-.23,1.27,1.27,0,0,0,.57-1.14,1.69,1.69,0,0,0-.06-.38,1.42,1.42,0,0,0-.24-.52,1.75,1.75,0,0,0-.56-.46,2.43,2.43,0,0,0-1-.26l-1.71-.13Zm0,4.1,1.71.13a4.42,4.42,0,0,0,.9,0,2.11,2.11,0,0,0,.72-.25,1.28,1.28,0,0,0,.67-1.2,1.63,1.63,0,0,0-.55-1.33,3,3,0,0,0-1.63-.54l-1.82-.14Z" transform="translate(-5.54 -4.39)" style="fill:#bcbec0"/><path d="M236.08,149.15l4.07.31v.81l-5-.37v-8.74l.89.07Z" transform="translate(-5.54 -4.39)" style="fill:#bcbec0"/><path d="M249.87,146.64a4.6,4.6,0,0,1-.34,1.81,3.88,3.88,0,0,1-2.4,2.22,4.49,4.49,0,0,1-1.81.21,5,5,0,0,1-1.81-.48,4.93,4.93,0,0,1-1.44-1.06,4.84,4.84,0,0,1-1-1.53,4.92,4.92,0,0,1-.34-1.86,4.56,4.56,0,0,1,.34-1.81,3.93,3.93,0,0,1,2.4-2.23,4.49,4.49,0,0,1,1.81-.21,4.82,4.82,0,0,1,1.81.49,4.84,4.84,0,0,1,2.4,2.58A5,5,0,0,1,249.87,146.64Zm-1-.07a4.23,4.23,0,0,0-.25-1.46,3.91,3.91,0,0,0-.71-1.26,3.74,3.74,0,0,0-2.63-1.33,3.51,3.51,0,0,0-1.51.19,3.13,3.13,0,0,0-1.13.74,3.45,3.45,0,0,0-.7,1.15,4,4,0,0,0-.25,1.42,4.27,4.27,0,0,0,.25,1.46,4.08,4.08,0,0,0,.7,1.26,4,4,0,0,0,1.13.91,3.73,3.73,0,0,0,1.51.42,3.45,3.45,0,0,0,1.5-.19,3,3,0,0,0,1.13-.75,3.14,3.14,0,0,0,.71-1.15A3.88,3.88,0,0,0,248.91,146.57Z" transform="translate(-5.54 -4.39)" style="fill:#bcbec0"/><path d="M258.1,144.5a3.62,3.62,0,0,0-1.06-.83,3.72,3.72,0,0,0-1.43-.37,3.37,3.37,0,0,0-1.51.19,3,3,0,0,0-1.12.74,3.23,3.23,0,0,0-.71,1.15,4,4,0,0,0-.25,1.42,4.27,4.27,0,0,0,.25,1.46,3.86,3.86,0,0,0,.71,1.25,3.56,3.56,0,0,0,1.12.91,3.73,3.73,0,0,0,1.51.43,5.06,5.06,0,0,0,1.3-.07,4.1,4.1,0,0,0,1.12-.37v-2.92l-2.09-.16v-.81l3,.22V151a6.13,6.13,0,0,1-1.63.54,6.46,6.46,0,0,1-1.68.1,5,5,0,0,1-1.81-.48,4.92,4.92,0,0,1-1.44-1.07,4.68,4.68,0,0,1-1-1.52,5,5,0,0,1-.34-1.86,4.56,4.56,0,0,1,.34-1.81,3.81,3.81,0,0,1,1-1.38,4,4,0,0,1,1.44-.85,4.49,4.49,0,0,1,1.81-.21,5.29,5.29,0,0,1,1.81.43,4.4,4.4,0,0,1,1.35,1Z" transform="translate(-5.54 -4.39)" style="fill:#bcbec0"/></svg>