<?xml version="1.0" encoding="UTF-8"?>
<svg id="Layer_1" xmlns="http://www.w3.org/2000/svg" version="1.1" viewBox="0 0 720.5 104.3">
  <!-- Generator: Adobe Illustrator 29.7.1, SVG Export Plug-In . SVG Version: 2.1.1 Build 8)  -->
  <defs>
    <style>
      .st0 {
        fill: #fff;
      }
    </style>
  </defs>
  <path class="st0" d="M0,13.9h32.6c16.3,0,28.5,7.1,28.5,22s-6.6,16.4-16.2,19.4v.3c11.5.8,20.4,10.4,20.3,21.9,0,15.8-14.7,24.5-33,24.5H0V13.9ZM12.7,50.5h17.4c9.7,0,17.5-3.6,17.5-13.2s-4.6-13-14.8-13H12.7v26.2h0ZM12.7,91.6h18.7c7.7,0,20.3-2.5,20.3-14.9s-7.8-15.7-20.1-15.7H12.7v30.6h0Z"/>
  <path class="st0" d="M87.8,13.9v54c0,11,5.8,25.2,23.6,25.2s23.6-14.2,23.6-25.1V13.9h12.7v55.9c0,20.4-15.8,34.5-36.3,34.5s-36.3-14.1-36.3-34.5V13.9h12.7Z"/>
  <path class="st0" d="M185.6,64.4l-35.5-50.5h16.3l25.6,38.7,26.4-38.7h15.5l-35.5,50.5v37.6h-12.7v-37.6Z"/>
  <path class="st0" d="M237.9,13.9h60.5v11.2h-47.8v26.3h44.5v11.2h-44.5v28.2h50.2v11.2h-62.9V13.9Z"/>
  <path class="st0" d="M312.2,13.9h33c24,0,30.1,13.6,30.1,24.6s-8.9,21.8-23,23.3l26.6,40.2h-16l-23.8-38.8h-14.2v38.8h-12.7V13.9ZM324.9,52.7h16.7c10.1,0,20.1-2.2,20.1-14.2s-10.1-14.2-20.1-14.2h-16.7v28.4Z"/>
  <path class="st0" d="M382.7,90.8l50.2-65.7h-48.7v-11.2h63.6v11.2l-49.9,65.7h50.7v11.2h-65.9v-11.2Z"/>
  <path class="st0" d="M555.1,13.9h15.7l48.5,72.5h.2V13.9h12v88.1h-15.2l-49.1-72.4h-.3v72.5h-12V13.9h0Z"/>
  <path class="st0" d="M647.9,13.9h56.9v11.2h-45v26.3h41.8v11.2h-41.8v28.2h47.2v11.2h-59.1V13.9Z"/>
  <path class="st0" d="M466.6,81.4l7.2.3c-4.7-6.3-7.5-13.8-7.8-21.6-1.2-20.3,12-37.4,32.7-38.6,8.4-.6,16.7,1.9,23.3,7.1l8.1.3.6-6.9c-8.5-7.1-19.8-11-32.6-10.2-26.7,1.5-44.9,22.3-43.3,48.9.4,10.5,4.4,20.5,11.1,28.5l.7-7.8Z"/>
  <path class="st0" d="M535,26.1l-.7,7.6-7.4-.3c5.3,6.4,8.3,14.4,8.7,22.6,1.2,20.3-12,37.4-32.7,38.6-8.9.7-17.7-2.2-24.5-8.1l-7.5-.3-.7,7.3c8.6,7.5,20.2,11.6,33.3,10.8,26.7-1.6,44.8-22.3,43.3-48.9-.7-11.6-5-21.7-11.8-29.3Z"/>
  <path class="st0" d="M705.6,7c0-.9.2-1.9.6-2.7.4-.8.9-1.6,1.6-2.2.7-.6,1.5-1.1,2.4-1.5,1.9-.7,3.9-.7,5.8,0,.9.4,1.7.9,2.4,1.5.7.6,1.2,1.4,1.6,2.2.8,1.7.8,3.7,0,5.4-.4.8-.9,1.6-1.6,2.2-.7.6-1.5,1.1-2.4,1.5-1.9.7-3.9.7-5.8,0-.9-.4-1.7-.9-2.4-1.5-.7-.6-1.2-1.4-1.6-2.2-.4-.9-.6-1.8-.6-2.7ZM706.9,7c0,.8.2,1.5.5,2.2.3.7.8,1.3,1.3,1.8.6.5,1.3,1,2,1.2,1.5.6,3.2.6,4.8,0,.7-.3,1.4-.7,2-1.2.6-.5,1-1.1,1.3-1.8.6-1.4.6-3,0-4.5-.3-.7-.8-1.3-1.3-1.8-.6-.5-1.3-1-2-1.2-1.5-.6-3.2-.6-4.8,0-.7.3-1.4.7-2,1.2-.6.5-1,1.1-1.3,1.8-.3.7-.5,1.5-.5,2.2h0ZM710.1,3h3.3c.8,0,1.6.2,2.3.6.5.5.8,1.1.7,1.8,0,.6-.2,1.2-.6,1.6-.4.4-.9.6-1.5.6l2.2,3.4h-1.6l-2.1-3.3h-1.1v3.3h-1.6V2.9h0ZM711.7,6.4h1.9c.2,0,.4,0,.7-.1.2,0,.3-.2.5-.3.1-.2.2-.4.2-.6,0-.2,0-.4-.2-.6-.1-.2-.3-.3-.5-.3-.2,0-.4-.1-.7-.1h-1.9v2.2h0Z"/>
</svg>