<svg xmlns="http://www.w3.org/2000/svg" viewBox="0 0 450.17 154.55"><title>revbites</title><path d="M70.94,151.45H44.39V95.65H26.55v55.8H0V0H52.69c12,0,18.25,4.55,18.25,16.13v55.8c0,7.4-3.65,10.82-9.73,12.52V85c5.87.57,9.73,4,9.73,11.39Zm-26.55-78V22.39H26.55V73.45Z" style="fill:#a23b36"/><path d="M120.93,128.36h-40v-106h40V38H99.51V68.33h20v15.4h-20v29h21.42Z" style="fill:#a23b36"/><path d="M177.1,92.37c0,13.55-7.81,25.9-15.61,36H143.05c-7.23-9.82-15.6-21.38-15.6-35.46V22.36H146V90.11a39.41,39.41,0,0,0,6,20.46h.71a39.84,39.84,0,0,0,5.81-20.46V22.36H177.1Z" style="fill:#a23b36"/><path d="M263.9,135.51c0,9.87-6.89,15.94-18.44,15.94h-52.7V0h52.7c12,0,18.44,4.36,18.44,15.94V64c0,7.4-3.65,10.82-9.12,12.52v.57c5.47.76,9.12,4,9.12,11.39ZM237.35,65.67V22.39h-18V65.67Zm0,63.38V87.68h-18v41.37Z" style="fill:#a23b36"/><path d="M292.86,128.36H274.27v-106h18.59Z" style="fill:#a23b36"/><path d="M350.45,38H334.14v90.32H315.55V38H299.38V22.36h51.07Z" style="fill:#a23b36"/><path d="M397,128.36H357v-106h40V38H375.56V68.33h20v15.4h-20v29H397Z" style="fill:#a23b36"/><path d="M450.17,117.47c0,8-4.4,10.89-12.63,10.89h-34V112.69h28.09v-29H415.41c-8.65,0-11.91-4.11-11.91-12V33.66c0-8.11,4.4-11.3,12.77-11.3h31.2V38H422.08V68.33h16.17c8.66,0,11.92,4.25,11.92,12.08Z" style="fill:#a23b36"/><polygon points="143.05 128.37 152.27 139.75 161.49 128.37 143.05 128.37" style="fill:#be1e2d;fill-rule:evenodd"/><path d="M282.87,154.55h-7.79V132.48h7.79v3.26H278.7v6.31h3.9v3.21h-3.9v6h4.17Z" style="fill:#231f20"/><path d="M293.85,154.55h-3.62v-8.13h-2.46v8.13h-3.63V134.83c0-1.68.89-2.35,2.52-2.35h4.7c1.63,0,2.49.67,2.49,2.35Zm-3.62-11.37v-7.44h-2.46v7.44Z" style="fill:#231f20"/><path d="M305.07,135.74h-3.18v18.81h-3.62V135.74h-3.15v-3.26h9.95Z" style="fill:#231f20"/><path d="M321.27,135.74h-3.18v18.81h-3.62V135.74h-3.15v-3.26h9.95Z" style="fill:#231f20"/><path d="M332.25,154.55h-3.62v-9.29h-2.46v9.29h-3.63V132.48h3.63v9.57h2.46v-9.57h3.62Z" style="fill:#231f20"/><path d="M341.65,154.55h-7.8V132.48h7.8v3.26h-4.18v6.31h3.9v3.21h-3.9v6h4.18Z" style="fill:#231f20"/><path d="M357.9,154.55h-3.62v-8.13h-2.43v8.13h-3.62V132.48h7.19c1.63,0,2.48.67,2.48,2.35V143a1.68,1.68,0,0,1-1.32,1.83v.08c.8.08,1.32.58,1.32,1.66Zm-3.62-11.37v-7.44h-2.43v7.44Z" style="fill:#231f20"/><path d="M367.3,154.55h-7.79V132.48h7.79v3.26h-4.17v6.31H367v3.21h-3.9v6h4.17Z" style="fill:#231f20"/><path d="M378.25,147.05c0,2.82-1.52,5.39-3,7.5h-3.6c-1.41-2.05-3-4.46-3-7.39V132.48h3.63v14.1a8.57,8.57,0,0,0,1.16,4.26h.14a8.79,8.79,0,0,0,1.13-4.26v-14.1h3.62Z" style="fill:#231f20"/><path d="M389.53,152.28c0,1.57-.77,2.27-2.41,2.27h-4.83c-1.55,0-2.44-.64-2.44-2.27V134.75c0-1.52.8-2.27,2.44-2.27h4.83c1.58,0,2.41.64,2.41,2.27Zm-3.62-1V135.74h-2.44v15.54Z" style="fill:#231f20"/><path d="M398.93,154.55h-7.8V132.48h3.62v18.8h4.18Z" style="fill:#231f20"/><path d="M409.88,152.22c0,1.69-.86,2.33-2.49,2.33h-4.7c-1.63,0-2.49-.64-2.49-2.33V132.48h3.62v18.8h2.44v-18.8h3.62Z" style="fill:#231f20"/><path d="M421.1,135.74h-3.18v18.81H414.3V135.74h-3.15v-3.26h10Z" style="fill:#231f20"/><path d="M426,154.55h-3.62V132.48H426Z" style="fill:#231f20"/><path d="M437.27,152.28c0,1.57-.77,2.27-2.4,2.27H430c-1.55,0-2.43-.64-2.43-2.27V134.75c0-1.52.8-2.27,2.43-2.27h4.84c1.57,0,2.4.64,2.4,2.27Zm-3.62-1V135.74h-2.43v15.54Z" style="fill:#231f20"/><path d="M448.58,154.55H445V135.74H442.5v18.81h-3.62V132.48h7.21c1.63,0,2.49.67,2.49,2.35Z" style="fill:#231f20"/></svg>