<svg xmlns="http://www.w3.org/2000/svg" viewBox="0 0 965.53 286.43"><title>vertibid_white</title><path d="M744.39,281.12H666.55V8.66h77.84a39,39,0,0,1,38.92,38.93v59.55c0,15.57-7.39,26.07-19.46,29.58v.78c12.07,3.5,19.46,14,19.46,29.58V242.2A39,39,0,0,1,744.39,281.12Zm19.46-172.43V46a19.27,19.27,0,0,0-19.46-19.46H686V128.15h58.38A19.27,19.27,0,0,0,763.85,108.69Zm0,135.06V165.52a19.27,19.27,0,0,0-19.46-19.46H686V263.21h58.38A19.27,19.27,0,0,0,763.85,243.75Z" style="fill:#fff"/><path d="M803.94,53a12.84,12.84,0,1,1,12.84,12.84A13,13,0,0,1,803.94,53Zm3.5,228.08V98.18H825V281.12Z" style="fill:#fff"/><path d="M932,281.12V263.6h-.78q-5.84,17.52-28,17.52H884.5a35.39,35.39,0,0,1-35-35V133.21a35.39,35.39,0,0,1,35-35h18.69q22.75,0,28,17.52H932l-.78-17.52V8.66h17.51V281.12Zm-.78-33.47v-116a17.45,17.45,0,0,0-17.52-17.52H884.5A17.69,17.69,0,0,0,867,131.66v116a17.69,17.69,0,0,0,17.51,17.51h29.19A17.44,17.44,0,0,0,931.21,247.65Z" style="fill:#fff"/><path d="M65.7,281.12,7.32,8.67H68L98.78,177.2l1.17,9.73,1.17-9.73L131.87,8.67h60.71L134.2,281.12Z" style="fill:#fff"/><path d="M233.06,211.06V231.3a1,1,0,0,0,1.17,1.17H302v48.65H217.88c-23,0-37.37-15.18-37.37-37.36v-109c0-22.19,14.41-37.37,37.37-37.37h59.55c22.18,0,37.36,15.18,37.36,37.37v76.28Zm29.19-66.94a1,1,0,0,0-1.17-1.17H234.23a1,1,0,0,0-1.17,1.17V176h29.19Z" style="fill:#fff"/><path d="M390.69,146.84a1,1,0,0,0-1.17,1.17V281.12H337V98.19h51.76V116.1h.78c2.72-12.07,16.35-18.69,30.36-18.69h16.35v49.43Z" style="fill:#fff"/><path d="M507.84,281.12c-22.19,0-37.37-15.18-37.37-37.36V146.84H443.23V98.19h27.24V43.7H523V98.19h35v48.65H523V231.3a1,1,0,0,0,1.16,1.17h33.87v48.65Z" style="fill:#fff"/><path d="M578.67,281.12V98.19h52.55V281.12Z" style="fill:#fff"/><line x1="587.73" y1="108.58" x2="587.73" y2="257.24" style="fill:none;stroke:#000;stroke-miterlimit:10"/><line x1="593.37" y1="108.58" x2="593.37" y2="257.24" style="fill:none;stroke:#000;stroke-miterlimit:10"/><line x1="598.33" y1="108.58" x2="598.33" y2="257.24" style="fill:none;stroke:#000;stroke-miterlimit:10"/><line x1="603.28" y1="108.58" x2="603.28" y2="257.24" style="fill:none;stroke:#000;stroke-miterlimit:10"/><line x1="608.24" y1="108.58" x2="608.24" y2="257.24" style="fill:none;stroke:#000;stroke-miterlimit:10"/><line x1="613.19" y1="108.58" x2="613.19" y2="257.24" style="fill:none;stroke:#000;stroke-miterlimit:10"/><line x1="618.15" y1="108.58" x2="618.15" y2="257.24" style="fill:none;stroke:#000;stroke-miterlimit:10"/><line x1="623.1" y1="108.58" x2="623.1" y2="257.24" style="fill:none;stroke:#000;stroke-miterlimit:10"/><rect x="586.44" y="94.37" width="11.98" height="5.27" style="fill:#fff"/><rect x="612.33" y="83.87" width="6.81" height="14.63" style="fill:#fff"/><rect x="604.28" y="92.44" width="17.82" height="5.94" style="fill:#fff"/><polygon points="575.67 64.41 638.09 64.41 635.36 68.29 578.5 67.83 575.67 64.41" style="fill:#40853e"/><polygon points="575.67 64.41 638.09 64.41 606.88 16.81 575.67 64.41" style="fill:#5ebb47"/></svg>