<svg xmlns="http://www.w3.org/2000/svg" viewBox="0 0 941.41 272.46"><title>Asset 1</title><path d="M737.07,272.46H659.23V0h77.84A39,39,0,0,1,776,38.92V98.47c0,15.57-7.39,26.08-19.46,29.58v.78c12.07,3.51,19.46,14,19.46,29.58v75.12A39,39,0,0,1,737.07,272.46ZM756.53,100V37.37A19.28,19.28,0,0,0,737.07,17.9H678.69V119.49h58.38A19.27,19.27,0,0,0,756.53,100Zm0,135.06V156.86a19.27,19.27,0,0,0-19.46-19.46H678.69V254.55h58.38A19.27,19.27,0,0,0,756.53,235.09Z"/><path d="M796.62,44.37a12.85,12.85,0,1,1,12.84,12.85A13,13,0,0,1,796.62,44.37Zm3.5,228.09V89.52h17.52V272.46Z"/><path d="M924.67,272.46V254.94h-.78q-5.83,17.52-28,17.52H877.18a35.39,35.39,0,0,1-35-35V124.55a35.39,35.39,0,0,1,35-35h18.69q22.77,0,28,17.52h.78l-.78-17.52V0h17.52V272.46ZM923.89,239V123a17.43,17.43,0,0,0-17.51-17.51h-29.2A17.69,17.69,0,0,0,859.67,123V239a17.69,17.69,0,0,0,17.51,17.52h29.2A17.44,17.44,0,0,0,923.89,239Z"/><path d="M58.38,272.46,0,0H60.72L91.46,168.54l1.17,9.73,1.17-9.73L124.55,0h60.71L126.88,272.46Z"/><path d="M225.74,202.4v20.24a1,1,0,0,0,1.17,1.17h67.72v48.65H210.56c-23,0-37.36-15.18-37.36-37.37v-109c0-22.18,14.4-37.36,37.36-37.36h59.55c22.18,0,37.36,15.18,37.36,37.36V202.4Zm29.19-66.94a1,1,0,0,0-1.17-1.17H226.91a1,1,0,0,0-1.17,1.17v31.91h29.19Z"/><path d="M383.37,138.18a1,1,0,0,0-1.17,1.17V272.46H329.66V89.53h51.76v17.9h.78c2.73-12.06,16.35-18.68,30.36-18.68h16.35v49.43Z"/><path d="M500.52,272.46c-22.18,0-37.36-15.18-37.36-37.37V138.18H435.91V89.53h27.25V35H515.7V89.53h35v48.65h-35v84.46a1,1,0,0,0,1.17,1.17h33.86v48.65Z"/><path d="M571.36,272.46V89.53H623.9V272.46Z"/><line x1="583.06" y1="99.92" x2="583.06" y2="248.58" style="fill:none;stroke:#fff;stroke-miterlimit:10;stroke-width:4px"/><line x1="592.97" y1="99.92" x2="592.97" y2="248.58" style="fill:none;stroke:#fff;stroke-miterlimit:10;stroke-width:4px"/><line x1="602.87" y1="99.92" x2="602.87" y2="248.58" style="fill:none;stroke:#fff;stroke-miterlimit:10;stroke-width:4px"/><line x1="612.78" y1="99.92" x2="612.78" y2="248.58" style="fill:none;stroke:#fff;stroke-miterlimit:10;stroke-width:4px"/><rect x="580.48" y="85.48" width="11.98" height="5.27"/><rect x="606.36" y="74.99" width="6.81" height="14.63"/><rect x="598.32" y="83.55" width="17.82" height="5.94"/><polygon points="569.71 55.52 632.13 55.52 629.39 59.4 572.54 58.94 569.71 55.52" style="fill:#40853e"/><polygon points="569.71 55.52 632.13 55.52 600.92 7.92 569.71 55.52" style="fill:#5ebb47"/></svg>