<svg xmlns="http://www.w3.org/2000/svg" viewBox="0 0 1926.26 274.09"><title>vertibid_black</title><path d="M745.07,279.48H667.23V7h77.84A39,39,0,0,1,784,46V105.5c0,15.57-7.39,26.08-19.46,29.58v.78c12.07,3.5,19.46,14,19.46,29.58v75.12A39,39,0,0,1,745.07,279.48Zm19.46-172.42V44.39a19.27,19.27,0,0,0-19.46-19.46H686.69V126.52h58.38A19.27,19.27,0,0,0,764.53,107.06Zm0,135.06V163.88a19.27,19.27,0,0,0-19.46-19.46H686.69V261.58h58.38A19.27,19.27,0,0,0,764.53,242.12Z" transform="translate(-8 -7.03)"/><path d="M804.62,51.4a12.85,12.85,0,1,1,12.84,12.84A13,13,0,0,1,804.62,51.4Zm3.5,228.08V96.55h17.52V279.48Z" transform="translate(-8 -7.03)"/><path d="M932.67,279.48V262h-.78q-5.83,17.5-28,17.51H885.18a35.39,35.39,0,0,1-35-35V131.58a35.39,35.39,0,0,1,35-35h18.69q22.77,0,28,17.51h.78l-.78-17.51V7h17.52V279.48ZM931.89,246V130a17.43,17.43,0,0,0-17.51-17.51h-29.2A17.69,17.69,0,0,0,867.67,130V246a17.69,17.69,0,0,0,17.51,17.51h29.2A17.43,17.43,0,0,0,931.89,246Z" transform="translate(-8 -7.03)"/><path d="M66.38,279.48,8,7H68.72L99.46,175.56l1.17,9.73,1.17-9.73L132.55,7h60.71L134.88,279.48Z" transform="translate(-8 -7.03)"/><path d="M233.74,209.43v20.23a1,1,0,0,0,1.17,1.17h67.72v48.65H218.56c-23,0-37.36-15.17-37.36-37.36v-109c0-22.18,14.4-37.36,37.36-37.36h59.55c22.18,0,37.36,15.18,37.36,37.36v76.29Zm29.19-67a1,1,0,0,0-1.17-1.17H234.91a1,1,0,0,0-1.17,1.17V174.4h29.19Z" transform="translate(-8 -7.03)"/><path d="M391.37,145.21a1,1,0,0,0-1.17,1.16V279.48H337.66V96.55h51.76v17.91h.78c2.73-12.07,16.35-18.68,30.36-18.68h16.35v49.43Z" transform="translate(-8 -7.03)"/><path d="M508.52,279.48c-22.18,0-37.36-15.17-37.36-37.36V145.21H443.91V96.55h27.25V42.06H523.7V96.55h35v48.66h-35v84.45a1,1,0,0,0,1.17,1.17h33.86v48.65Z" transform="translate(-8 -7.03)"/><path d="M579.36,279.48V96.55H631.9V279.48Z" transform="translate(-8 -7.03)"/><line x1="583.06" y1="99.92" x2="583.06" y2="248.58" style="fill:none;stroke:#fff;stroke-miterlimit:10;stroke-width:4px"/><line x1="592.97" y1="99.92" x2="592.97" y2="248.58" style="fill:none;stroke:#fff;stroke-miterlimit:10;stroke-width:4px"/><line x1="602.87" y1="99.92" x2="602.87" y2="248.58" style="fill:none;stroke:#fff;stroke-miterlimit:10;stroke-width:4px"/><line x1="612.78" y1="99.92" x2="612.78" y2="248.58" style="fill:none;stroke:#fff;stroke-miterlimit:10;stroke-width:4px"/><rect x="580.48" y="85.48" width="11.98" height="5.27"/><rect x="606.36" y="74.99" width="6.81" height="14.63"/><rect x="598.32" y="83.55" width="17.82" height="5.94"/><polygon points="569.71 55.52 632.13 55.52 629.39 59.4 572.54 58.94 569.71 55.52" style="fill:#40853e"/><polygon points="569.71 55.52 632.13 55.52 600.92 7.92 569.71 55.52" style="fill:#5ebb47"/><path d="M1729.92,281.12h-77.84V8.66h77.84a39,39,0,0,1,38.93,38.93v59.55c0,15.57-7.4,26.07-19.47,29.58v.78c12.07,3.5,19.47,14,19.47,29.58V242.2A39,39,0,0,1,1729.92,281.12Zm19.46-172.43V46a19.27,19.27,0,0,0-19.46-19.46h-58.38V128.15h58.38A19.27,19.27,0,0,0,1749.38,108.69Zm0,135.06V165.52a19.27,19.27,0,0,0-19.46-19.46h-58.38V263.21h58.38A19.27,19.27,0,0,0,1749.38,243.75Z" transform="translate(-8 -7.03)" style="fill:#fff"/><path d="M1789.47,53a12.85,12.85,0,1,1,12.84,12.84A13,13,0,0,1,1789.47,53Zm3.5,228.08V98.18h17.52V281.12Z" transform="translate(-8 -7.03)" style="fill:#fff"/><path d="M1917.52,281.12V263.6h-.78q-5.84,17.52-28,17.52H1870a35.39,35.39,0,0,1-35-35V133.21a35.39,35.39,0,0,1,35-35h18.69q22.77,0,28,17.52h.78l-.78-17.52V8.66h17.52V281.12Zm-.78-33.47v-116a17.44,17.44,0,0,0-17.51-17.52H1870a17.69,17.69,0,0,0-17.51,17.52v116A17.69,17.69,0,0,0,1870,265.16h29.2A17.43,17.43,0,0,0,1916.74,247.65Z" transform="translate(-8 -7.03)" style="fill:#fff"/><path d="M1051.23,281.12,992.85,8.67h60.72l30.74,168.53,1.17,9.73,1.17-9.73L1117.4,8.67h60.71l-58.38,272.45Z" transform="translate(-8 -7.03)" style="fill:#fff"/><path d="M1218.59,211.06V231.3a1,1,0,0,0,1.17,1.17h67.72v48.65h-84.07c-23,0-37.36-15.18-37.36-37.36v-109c0-22.19,14.4-37.37,37.36-37.37H1263c22.18,0,37.36,15.18,37.36,37.37v76.28Zm29.19-66.94a1,1,0,0,0-1.17-1.17h-26.85a1,1,0,0,0-1.17,1.17V176h29.19Z" transform="translate(-8 -7.03)" style="fill:#fff"/><path d="M1376.22,146.84a1,1,0,0,0-1.17,1.17V281.12h-52.54V98.19h51.76V116.1h.78c2.73-12.07,16.35-18.69,30.36-18.69h16.35v49.43Z" transform="translate(-8 -7.03)" style="fill:#fff"/><path d="M1493.37,281.12c-22.18,0-37.36-15.18-37.36-37.36V146.84h-27.25V98.19H1456V43.7h52.54V98.19h35v48.65h-35V231.3a1,1,0,0,0,1.17,1.17h33.86v48.65Z" transform="translate(-8 -7.03)" style="fill:#fff"/><path d="M1564.21,281.12V98.19h52.54V281.12Z" transform="translate(-8 -7.03)" style="fill:#fff"/><line x1="1565.26" y1="101.56" x2="1565.26" y2="250.21" style="fill:none;stroke:#000;stroke-miterlimit:10"/><line x1="1570.91" y1="101.56" x2="1570.91" y2="250.21" style="fill:none;stroke:#000;stroke-miterlimit:10"/><line x1="1575.86" y1="101.56" x2="1575.86" y2="250.21" style="fill:none;stroke:#000;stroke-miterlimit:10"/><line x1="1580.82" y1="101.56" x2="1580.82" y2="250.21" style="fill:none;stroke:#000;stroke-miterlimit:10"/><line x1="1585.77" y1="101.56" x2="1585.77" y2="250.21" style="fill:none;stroke:#000;stroke-miterlimit:10"/><line x1="1590.72" y1="101.56" x2="1590.72" y2="250.21" style="fill:none;stroke:#000;stroke-miterlimit:10"/><line x1="1595.68" y1="101.56" x2="1595.68" y2="250.21" style="fill:none;stroke:#000;stroke-miterlimit:10"/><line x1="1600.63" y1="101.56" x2="1600.63" y2="250.21" style="fill:none;stroke:#000;stroke-miterlimit:10"/><rect x="1563.97" y="87.34" width="11.98" height="5.27" style="fill:#fff"/><rect x="1589.86" y="76.85" width="6.81" height="14.63" style="fill:#fff"/><rect x="1581.82" y="85.41" width="17.82" height="5.94" style="fill:#fff"/><polygon points="1553.21 57.38 1615.62 57.38 1612.89 61.26 1556.04 60.8 1553.21 57.38" style="fill:#40853e"/><polygon points="1553.21 57.38 1615.62 57.38 1584.41 9.78 1553.21 57.38" style="fill:#5ebb47"/></svg>