<svg id="Layer_1" data-name="Layer 1" xmlns="http://www.w3.org/2000/svg" viewBox="0 0 568.42 190.84"><defs><style>.cls-1{fill:#372f0a;}.cls-2{fill:#cfa02b;}.cls-3{fill:#92921d;}.cls-4{fill:#a68f00;}.cls-5{fill:#afc7e8;}</style></defs><title>collage_trucks</title><circle class="cls-1" cx="344.79" cy="69.97" r="12.44"/><circle class="cls-1" cx="262.03" cy="69.97" r="12.44"/><path class="cls-1" d="M342.28,58.77a6.21,6.21,0,0,0-6.22-6.22H305.79c-2.07,0-3.4.58-6.22,6.22,0,0-12.36,23.05-12.65,26.2-0.08.33-8.13,0.33-8.13,0.33h-6.68c0,1,0,19.32,0,21.44a16.63,16.63,0,0,1,13.77-7.3c0.29,0,.58,0,0.87,0h0a16,16,0,0,1,15.63,14.76,14.1,14.1,0,0,1,.12,1.87c0,0.29,0,.58,0,0.87h49.3c0-.46-0.08-1-0.08-1.45A16.09,16.09,0,0,1,378,103.09V91.53l-35.74.41V58.77h0ZM301.61,94.93c-0.5,0-1-.12-1.45-0.21L305,89.91l2.16,2.32a1.86,1.86,0,0,0,2.53.46,1.9,1.9,0,0,0-.25-2.57l-7.21-7.8A1.61,1.61,0,1,0,300,84.44l2.94,3.19-6.3,6.3c-3.4-1.08-5.31-2.74-5.31-4.52l0.12-4.64C291.41,84,306.08,56,306.08,56l30.23-.37-0.87,28.9L335,95.8,316.7,98.91v11.36l-8.38,0C311.14,96.21,301.61,94.93,301.61,94.93Z" transform="translate(-24.03 -47.02)"/><rect class="cls-1" x="322.4" y="34.52" width="31.6" height="5.97"/><path class="cls-2" d="M97.79,66.23h-26c-9.56,0-13.54,5.19-17.35,13.78L44.3,108.78a42,42,0,0,0-1.05,4.38H43s-19-2.35-19,16c0,6.65.49,14.51,0.49,14.51h11.1a20.71,20.71,0,0,1,40.53,0h38.66V80.09C115.14,72.39,107.36,66.23,97.79,66.23ZM58.4,101.73l6.4-18.64c2.43-5.59,4.94-8.92,11-8.92H92.36c6.08,0,11,4,11,8.92v18.64c0,4.94-4.94,8.92-11,8.92H69.42C57.43,110.65,57.18,108.21,58.4,101.73Z" transform="translate(-24.03 -47.02)"/><circle class="cls-2" cx="32.1" cy="102.05" r="15.24"/><path class="cls-2" d="M129.81,47v96.7h64.36a20.68,20.68,0,0,1,40.53,0h17.75V47H129.81Z" transform="translate(-24.03 -47.02)"/><circle class="cls-2" cx="190.4" cy="102.05" r="15.24"/><path class="cls-3" d="M466.22,143.12a15.09,15.09,0,1,0,15.09,15.09A15.09,15.09,0,0,0,466.22,143.12Zm0,22.46a7.37,7.37,0,1,1,7.37-7.37A7.38,7.38,0,0,1,466.22,165.58Z" transform="translate(-24.03 -47.02)"/><path class="cls-3" d="M558.63,143.12a15.09,15.09,0,1,0,15.09,15.09A15.09,15.09,0,0,0,558.63,143.12Zm0,22.46a7.37,7.37,0,1,1,7.37-7.37A7.38,7.38,0,0,1,558.63,165.58Z" transform="translate(-24.03 -47.02)"/><path class="cls-3" d="M532.88,138.34v15.57a7,7,0,0,1-1.48,4.29H540a18.63,18.63,0,1,1,37.25,0h7.47V134H531.4A7,7,0,0,1,532.88,138.34Z" transform="translate(-24.03 -47.02)"/><path class="cls-3" d="M477.83,86.65h24a4.67,4.67,0,0,1,4.67,4.67v15.58a4.67,4.67,0,0,1-4.67,4.67h-24a4.68,4.68,0,0,1-4.68-4.68V91.32A4.67,4.67,0,0,1,477.83,86.65Z"/><path class="cls-3" d="M496.31,134H484.07V91.38a1.18,1.18,0,0,0-1.18-1.18H447.31a2.07,2.07,0,0,0-1.7,1.06l-14.1,28.84a6,6,0,0,0-.52,2.24v27.72h-1.18v8H431v0.1h16.6a18.63,18.63,0,1,1,37.25,0h11.46a7,7,0,0,1-1.48-4.29V138.34A7,7,0,0,1,496.31,134Zm-21-5.16h-1.77v-5h1.77v5Zm1.92-10.3H440.87v-1.37L451.24,96h26v22.58Z" transform="translate(-24.03 -47.02)"/><rect class="cls-3" x="461.38" y="68.41" width="107.04" height="16.66"/><path class="cls-4" d="M175.17,136h-25c-9.19,0-12.93,5-16.59,13.26l-9.68,27.58a25.69,25.69,0,0,0-1,4.23h-0.16l-17.16,5.21,0.49,24.08,11.55-.08a19.87,19.87,0,0,1,38.88,0h35.22v-61C191.77,141.9,184.36,136,175.17,136Zm-34.08,32,5.29-15.21c2-4.56,4.07-7.32,9-7.32h13.5c5,0,9,3.25,9,7.32v15.21c0,4.07-4.07,7.32-9,7.32H150.12C140.27,175.26,140.11,173.3,141.09,167.94Z" transform="translate(-24.03 -47.02)"/><circle class="cls-4" cx="113.07" cy="168.34" r="14.56"/><path class="cls-4" d="M292.39,186.32H205.92V211h48.32a19.89,19.89,0,0,1,39.21,0c13.58,0,13.91-.33,13.91-14.07C307.28,186.4,307,186.32,292.39,186.32Z" transform="translate(-24.03 -47.02)"/><path class="cls-4" d="M307.28,196.16v0Z" transform="translate(-24.03 -47.02)"/><circle class="cls-4" cx="249.73" cy="168.34" r="14.56"/><path class="cls-4" d="M221.13,112.86l-10.74,35.3,84.76,25.22c10.57,3.17,10.57,3.17,13.75-7.4l7.4-24.81Zm81.59,42.54-14.8-4.56,3.42-11,14.8,4.56Zm-43.85-10.25-3.42,11.06L241,151.75l3.42-11.06Zm-13.58-7.48,3.42-11,14.48,4.47-3.42,11Zm20.17,9.52,15,4.64L277,162.89l-15-4.64Zm0.89-3,3.42-11,15,4.64-3.42,11Zm-24.24-19.52-3.42,11-14.24-4.39,3.42-11Zm-18.63,9.6,14.24,4.39-3.42,11.06-14.24-4.39Zm60.11,30.67L287,153.86l14.8,4.56-3.42,11.06Z" transform="translate(-24.03 -47.02)"/><circle class="cls-5" cx="323.89" cy="174.91" r="15.93"/><circle class="cls-5" cx="515.4" cy="174.91" r="15.93"/><circle class="cls-5" cx="453.45" cy="174.91" r="15.93"/><path class="cls-5" d="M557.89,187.15H441.62v11.92H426.19V171.12h13.39V116.31h6.74v-6.16H431.85v55h-5.67v-59.5H380.75c-10.06,0-16,2.83-18.17,14.46L355.45,160l-0.2-.1-35.17,8.6V217l6.55-.2a21.75,21.75,0,0,1,37.32-10.94h77.77v4.69H367.17a23.44,23.44,0,0,1,2.25,6.84h86.66a21.74,21.74,0,0,1,43,0h19a21.74,21.74,0,0,1,43,0c12.7-.49,13.19-4.2,13.19-17.88C574.11,188.81,573.53,187.15,557.89,187.15ZM377.92,114h39.57v35.56h-51.1S370.59,114,377.92,114Z" transform="translate(-24.03 -47.02)"/><path class="cls-5" d="M574.11,199.65v0Z" transform="translate(-24.03 -47.02)"/></svg>