<svg id="Layer_1" data-name="Layer 1" xmlns="http://www.w3.org/2000/svg" viewBox="0 0 692.77 276.56"><defs><style>.cls-1{fill:#aa822d;}.cls-2{fill:#8ab0dd;}.cls-3{fill:#cfa02b;}.cls-4{fill:#afc7e8;}.cls-5{fill:#fdfdfe;}.cls-6{fill:#fdfeff;}</style></defs><title>headline2</title><polygon class="cls-1" points="79.14 101.93 0 101.93 20.7 50.97 12.51 0 91.66 0 79.14 101.93"/><path class="cls-2" d="M687.34,284.07h-79a0.06,0.06,0,0,1-.06-0.07l12.5-101.81a0.06,0.06,0,0,1,.06-0.05h79a0.06,0.06,0,0,1,.05.08l-20.66,50.87a0.06,0.06,0,0,0,0,0L687.39,284A0.06,0.06,0,0,1,687.34,284.07Z" transform="translate(-7.12 -7.5)"/><polygon class="cls-3" points="664.4 123.37 31.29 123.37 43.8 21.44 676.91 21.44 664.4 123.37"/><polygon class="cls-4" points="648.77 245.54 153.37 245.54 165.88 143.6 661.29 143.6 648.77 245.54"/><path class="cls-5" d="M199,55.85c-7.55,0-16.19,22-16.19,32.09,0,4.14,3.63,8.42,6.82,8.42,2.76,0,5.74-3.85,9.15-8.13a2.08,2.08,0,0,1,1.6-1c0.87,0,3.78,2.25,3.78,3.12a4.08,4.08,0,0,1-.8,1.89A41,41,0,0,1,198,99.77c-1.31,1.31-4.57,2-7.41,2-6.68,0-16.63-7.26-16.63-14.23,0-12.71,10.89-37.32,21.71-37.32,6,0,13.87,5,13.87,8.71,0,2.11-2.4,6.75-4.21,9.73A1.91,1.91,0,0,1,204,69.79c-1.16,0-4.5-1.74-4.5-3a6.07,6.07,0,0,1,.65-2c1-2.54,2-4.79,2-6.75C202.09,57.08,200.64,55.85,199,55.85Z" transform="translate(-7.12 -7.5)"/><path class="cls-5" d="M228.29,76.39a2.65,2.65,0,0,0-2.18-2.47c-1.74,0-6,2.69-6.9,5.81-2,6.17-4.86,18.08-5.3,20.33-0.29.94-.51,1.67-1.52,1.67-1.74,0-6-1.89-6-3.85,0-2.61,8.78-36.08,10.89-42.54a1.72,1.72,0,0,1,1.52-1.52c1.38,0,6.24,2.61,6.24,3.85a8.94,8.94,0,0,1-.36,1.81c-1.74,6.1-3.78,13-3.78,13s6-4.86,10.38-4.86c2.11,0,6.1,3,6.1,5.66,0,3.41-4.5,17.57-4.5,21.42a2.49,2.49,0,0,0,1.89,2c2.1,0,6.1-5.59,9.66-12.12,0,0,.65-1.31,1.6-1.31s2.47,1.16,2.47,2a7.73,7.73,0,0,1-.94,2.54c-4,7.26-8.2,13.87-13.5,13.87-3.27,0-9.37-3-9.37-6.32C224.66,90.77,228.29,79.15,228.29,76.39Z" transform="translate(-7.12 -7.5)"/><path class="cls-5" d="M267.79,96.43c-0.87,0-1.89,0-2.9-.07-2.4,3.19-5.23,5.37-8.28,5.37-5.08,0-13.43-4.79-13.43-10,0-10.09,7.19-24.1,15-24.1,5.59,0,13.5,5.3,13.5,9.8,0,3.85-1.45,9.22-3.78,14a5.16,5.16,0,0,0,1.89.29c5.15,0,8.57-7.11,8.57-7.11s0.65-1.31,1.52-1.31,2.61,1.16,2.61,2a7.41,7.41,0,0,1-1,2.54S277,96.43,267.79,96.43Zm-12.63.29c0.8,0,1.81-.73,2.83-2a2,2,0,0,1-.94-1.6c0-1.45,3-4.43,4.65-4.72,1.81-4.14,3.27-9.08,3.27-12.56,0-1.6-2-2.9-3.41-2.9-3.7,0-9.66,12.34-9.66,20.47A3.51,3.51,0,0,0,255.15,96.72Z" transform="translate(-7.12 -7.5)"/><path class="cls-5" d="M301.69,96.43c-0.87,0-1.89,0-2.9-.07-2.4,3.19-5.23,5.37-8.28,5.37-5.08,0-13.43-4.79-13.43-10,0-10.09,7.19-24.1,15-24.1,5.59,0,13.5,5.3,13.5,9.8,0,3.85-1.45,9.22-3.78,14a5.16,5.16,0,0,0,1.89.29c5.16,0,8.57-7.11,8.57-7.11s0.65-1.31,1.52-1.31,2.61,1.16,2.61,2a7.41,7.41,0,0,1-1,2.54S310.91,96.43,301.69,96.43Zm-12.63.29c0.8,0,1.82-.73,2.83-2a2,2,0,0,1-.94-1.6c0-1.45,3-4.43,4.65-4.72,1.82-4.14,3.27-9.08,3.27-12.56,0-1.6-2-2.9-3.41-2.9-3.7,0-9.66,12.34-9.66,20.47A3.51,3.51,0,0,0,289.06,96.72Z" transform="translate(-7.12 -7.5)"/><path class="cls-5" d="M341.47,84.6s0.65-1.31,1.6-1.31,2.47,1.16,2.47,2a7.72,7.72,0,0,1-.94,2.54c-4,7.26-11,13.87-21.93,13.87-7.26,0-14.88-7.77-14.88-12.27,0-3.56,6-6.39,6-6.39s7-10.67,9.44-14.74a3,3,0,0,1,2.32-1.67c0.94,0,5.3,2.83,5.3,4.14,0,7,2.76,13.36,2.76,18.8,0,2.76-2.25,5.88-2.25,5.88C334.5,94,337.91,91.13,341.47,84.6Zm-25,4.57c0,3.63,2.32,7.41,4.28,7.41,2.47,0,4.36-2.54,4.36-5.15,0-5.23-1.67-10.67-1.67-14.59C323.47,76.83,316.5,86.78,316.5,89.17Z" transform="translate(-7.12 -7.5)"/><path class="cls-5" d="M353.52,96.58c3.41,0,6.82-2.54,9.44-6.1,0,0,.94-1.45,1.81-1.45a3.14,3.14,0,0,1,2.54,2.25,6.31,6.31,0,0,1-1.23,2.47c-2.9,3.85-7.77,8-13.94,8-5.3,0-12.42-5.15-12.42-10,0-8.2,8.13-24.1,14.88-24.1,3.34,0,10.38,4.36,10.38,7.11,0,4-4.65,14.88-9.37,14.88a29,29,0,0,1-6.82-1,9,9,0,0,0-.36,2.76C348.44,93.89,351.49,96.58,353.52,96.58Zm5.37-21.85c0-.65-1.16-1.45-2.18-1.45-2.83,0-6.75,8.64-7.41,12.05C355.7,85.32,358.89,77.48,358.89,74.72Z" transform="translate(-7.12 -7.5)"/><path class="cls-5" d="M393.81,64.56a3.64,3.64,0,0,0-1.31,2.61c0,1.67,3.48,5.59,3.48,6.61s-4.65,4.72-5.74,4.72c-1.45,0-5.52-7.19-5.52-9,0-2.54,5.08-9.37,6.9-10.31,4.36-2.11,11.25-4.28,17.21-6,0.8-.22,3.7-3,4.57-3,1.23,0,5.3,3,5.3,4.07,0,0.65-3.56,4.21-4.43,6.32C412.4,65.07,406.73,85,406.73,89a3.8,3.8,0,0,0,3.41,3.77c3.27,0,13.14-8.49,14.08-11.91,3.27-11.4,6-21.64,6.61-23.81s6.1-6.9,6.9-6.9c1.23,0,5.37,3,5.37,4.07,0,0.65-4.28,4.21-4.94,6.17-0.87,2.69-6.53,23.3-10.89,38.84,1.38-.15,2.54-0.29,3.41-0.29,1.6,0,5.59,1.45,5.59,2.76s-1.82,4.43-2.9,4.43-4.21-2.25-5.23-2.25c-0.51,0-1.31.07-2.18,0.15,0,0-2.9,10.67-3.78,12.78-1.6,3.85-9.15,6.68-12.92,6.68-4.14,0-13.87-5.88-13.87-8.64,0-2.54,3-7.33,5.23-8.42,3.92-2,11.4-4.07,18.08-5.59,0.87-2.9,1.74-6.32,2.69-9.66-3.49,3.56-7.84,7.48-10.46,7.48-4.79,0-13.21-4.94-13.21-9.66,0-4.21,5.66-23.23,6.82-26.57a12.76,12.76,0,0,1,3-4.28S398.31,61.66,393.81,64.56Zm23.52,41.24c-4.65,1.16-9.44,2.69-11.83,4.14a3.32,3.32,0,0,0-1.74,2.54c0,2.47,4.14,6.9,6.1,6.9,1.23,0,4-3,5-5.15C415.44,113,417.33,105.8,417.33,105.8Z" transform="translate(-7.12 -7.5)"/><path class="cls-5" d="M460.67,96.43c-0.87,0-1.89,0-2.9-.07-2.4,3.19-5.23,5.37-8.28,5.37-5.08,0-13.43-4.79-13.43-10,0-10.09,7.19-24.1,15-24.1,5.59,0,13.5,5.3,13.5,9.8,0,3.85-1.45,9.22-3.78,14a5.16,5.16,0,0,0,1.89.29c5.15,0,8.57-7.11,8.57-7.11s0.65-1.31,1.52-1.31,2.61,1.16,2.61,2a7.4,7.4,0,0,1-1,2.54S469.89,96.43,460.67,96.43ZM448,96.72c0.8,0,1.81-.73,2.83-2a2,2,0,0,1-.94-1.6c0-1.45,3-4.43,4.65-4.72,1.81-4.14,3.27-9.08,3.27-12.56,0-1.6-2-2.9-3.41-2.9-3.7,0-9.66,12.34-9.66,20.47A3.51,3.51,0,0,0,448,96.72Z" transform="translate(-7.12 -7.5)"/><path class="cls-5" d="M487.89,96.58s-6.9,5.15-9.66,5.15c-3.78,0-9.44-4-9.44-7,0-3.41,4.94-21.13,6.39-25.7a1.76,1.76,0,0,1,1.6-1.38c1.38,0,6.17,2.54,6.17,3.85a6.72,6.72,0,0,1-.29,1.74c-0.51,1.89-5.15,17.42-5.15,20.76a2.57,2.57,0,0,0,2,2c2.9,0,8.28-6.39,8.93-8.71,1.82-5.88,4.21-15.25,5.16-18.3a1.63,1.63,0,0,1,1.52-1.38c1.45,0,6.24,2.54,6.24,3.85A6.72,6.72,0,0,1,501,73.2c-0.65,1.89-5.52,17.64-5.52,21.49a2.47,2.47,0,0,0,2,2c2.11,0,6.1-5.59,9.66-12.12,0,0,.65-1.31,1.6-1.31s2.47,1.16,2.47,2a7.73,7.73,0,0,1-.94,2.54c-4.07,7.26-8.28,13.87-13.5,13.87C493.48,101.73,488.4,98.68,487.89,96.58Z" transform="translate(-7.12 -7.5)"/><path class="cls-5" d="M534.79,84.6s0.65-1.31,1.6-1.31,2.47,1.16,2.47,2a7.72,7.72,0,0,1-.94,2.54c-4,7.26-8.28,13.87-13.5,13.87-3.27,0-9.08-2.76-9.08-5.59,0-5.66,3.85-16,3.85-19.38,0-.8-2.9-1.38-2.9-1.38s-2.54,6-6.1,12.49c0,0-.73,1.31-1.6,1.31S506,88,506,87.21a8,8,0,0,1,1-2.61,119.92,119.92,0,0,0,5.23-11.33s-3-1.89-3-4.36,3-8.13,4.86-8.13c2.11,0,5.81,2.32,5.81,4s-1.09,3.34-1.09,5.23S528,72.55,528,75.59c0,2.4-4.21,15.68-4.21,19.82a1.3,1.3,0,0,0,1.31,1.31C527.31,96.72,531.23,91.13,534.79,84.6Z" transform="translate(-7.12 -7.5)"/><path class="cls-5" d="M245.22,225.59h-5.87l7.05-41.18H234.51l0.85-5h29.59l-0.85,5H252.27Z" transform="translate(-7.12 -7.5)"/><path class="cls-5" d="M269.22,225.58h-5.87l7.9-46.17H284c9.93,0,15.08,5,13.65,13.42a15.52,15.52,0,0,1-8.71,11.63c-2.44,1.18-4.62,1.66-8.94,1.94l14.83,19.17h-7.48l-14.8-19.37Zm9.87-23.33c7.06,0,11.46-3.19,12.45-9s-2-8.86-8.42-8.86h-6.86l-3.06,17.86h5.88Z" transform="translate(-7.12 -7.5)"/><path class="cls-5" d="M310.05,206.88c-1,5.88-.68,8.86,1.18,11.07a10.8,10.8,0,0,0,7.72,3.11,14.37,14.37,0,0,0,8.83-3.39c2.93-2.42,4-4.78,5-10.94l4.68-27.34h6l-4.68,27.34c-1.18,6.92-3,10.87-6.56,14.19a20.46,20.46,0,0,1-14.09,5.47c-5.46,0-10.07-2.07-12.57-5.81-2.31-3.25-2.64-6.64-1.41-13.84l4.68-27.34h5.88Z" transform="translate(-7.12 -7.5)"/><path class="cls-5" d="M384.08,218.55c-5.62,5.47-11.2,7.82-18.41,7.83-6.5,0-11.63-2.35-14.86-6.78s-4.4-10.66-3.3-17.09c2.37-13.84,13.54-24,26.41-24a20.22,20.22,0,0,1,11.15,3.11,18.89,18.89,0,0,1,4.64,4.77l-4.7,3.74c-3.75-4.64-6.9-6.3-11.86-6.29-9.51,0-17.78,7.83-19.62,18.62s3.89,18.55,13.54,18.54c5.11,0,9.37-2,13.75-6.37Z" transform="translate(-7.12 -7.5)"/><path class="cls-5" d="M396,225.54h-5.87l7.9-46.17h5.88l-3.64,21.25,21.75-21.25h7.06l-23.35,22.85,15.45,23.32h-7.48l-14-21.31Z" transform="translate(-7.12 -7.5)"/><circle class="cls-6" cx="464" cy="218.09" r="8.05"/><circle class="cls-6" cx="560.82" cy="218.09" r="8.05"/><circle class="cls-6" cx="529.5" cy="218.09" r="8.05"/><path class="cls-6" d="M577.28,208H518.49v6h-7.8V199.91h6.77V172.19h3.41v-3.11h-7.31v27.81h-2.87V166.81h-23c-5.09,0-8.1,1.43-9.19,7.31l-3.61,20.15-0.1,0L457,198.57v24.55l3.31-.1a11,11,0,0,1,18.87-5.53h39.32v2.37H480.85a11.85,11.85,0,0,1,1.14,3.46H525.8a11,11,0,0,1,21.73,0h9.58a11,11,0,0,1,21.73,0c6.42-.25,6.67-2.12,6.67-9C585.48,208.85,585.18,208,577.28,208Zm-91-37h20v18H480.46S482.58,171,486.29,171Z" transform="translate(-7.12 -7.5)"/><path class="cls-6" d="M585.48,214.33v0Z" transform="translate(-7.12 -7.5)"/></svg>