<?xml version="1.0" encoding="UTF-8"?>
<!-- Generator: Adobe Illustrator 17.1.0, SVG Export Plug-In . SVG Version: 6.00 Build 0)  -->
<!DOCTYPE svg PUBLIC "-//W3C//DTD SVG 1.1//EN" "http://www.w3.org/Graphics/SVG/1.1/DTD/svg11.dtd">
<svg version="1.1" id="Layer_1" xmlns="http://www.w3.org/2000/svg" xmlns:xlink="http://www.w3.org/1999/xlink" x="0px" y="0px" viewBox="16.7 114 275.6 41.3" enable-background="new 16.7 114 275.6 41.3" xml:space="preserve">
<rect x="0" y="99.8" display="none" fill="#163353" width="300" height="76.4"/>
<g>
	<path fill="#FFFFFF" d="M16.7,120.7h12.5c6.2,0,10.9,2.7,10.9,8.4c0,3.9-2.5,6.3-6.2,7.4v0.1c4.3,0.3,7.8,3.9,7.8,8.4   c0,6-5.6,9.4-12.6,9.4H16.7V120.7z M21.6,134.7h6.6c3.7,0,6.7-1.4,6.7-5c0-2.7-1.8-4.9-5.7-4.9h-7.6L21.6,134.7L21.6,134.7z    M21.6,150.4h7.1c2.9,0,7.8-1,7.8-5.7c0-4-3-6-7.7-6h-7.2V150.4z"/>
	<path fill="#FFFFFF" d="M50.3,120.7v20.6c0,4.2,2.2,9.6,9,9.6c6.8,0,9-5.4,9-9.6v-20.6h4.9v21.4c0,7.8-6,13.2-13.9,13.2   s-13.9-5.4-13.9-13.2v-21.4H50.3z"/>
	<path fill="#FFFFFF" d="M87.6,140L74,120.7h6.2l9.8,14.8l10.1-14.8h5.9L92.5,140v14.4h-4.9L87.6,140L87.6,140z"/>
	<path fill="#FFFFFF" d="M107.6,120.7h23.1v4.3h-18.3v10.1h17v4.3h-17v10.8h19.2v4.3h-24L107.6,120.7L107.6,120.7z"/>
	<path fill="#FFFFFF" d="M136,120.7h12.6c9.2,0,11.5,5.2,11.5,9.4c0,4.3-3.4,8.3-8.8,8.9l10.2,15.4h-6.1l-9.1-14.8h-5.4v14.8H136   L136,120.7L136,120.7z M140.9,135.6h6.4c3.9,0,7.7-0.8,7.7-5.4c0-4.6-3.9-5.4-7.7-5.4h-6.4V135.6z"/>
</g>
<g>
	<path fill="#FFFFFF" d="M163,150.1l19.2-25.1h-18.6v-4.3h24.3v4.3l-19.1,25.1h19.4v4.3H163L163,150.1L163,150.1z"/>
	<path fill="#FFFFFF" d="M228.8,120.7h6l18.6,27.7h0.1v-27.7h4.6v33.7h-5.8l-18.8-27.7h-0.1v27.7h-4.6V120.7z"/>
	<path fill="#FFFFFF" d="M264.3,120.7h21.7v4.3h-17.2v10.1h16v4.3h-16v10.8h18v4.3h-22.6L264.3,120.7L264.3,120.7z"/>
</g>
<g>
	<path fill="#FFFFFF" d="M195,146.5l2.8,0.1c-1.8-2.3-2.8-5.1-3-8.3c-0.5-7.8,4.6-14.3,12.5-14.8c3.5-0.2,6.5,0.8,8.9,2.7l3.1,0.1   l0.2-2.6c-3.2-2.7-7.6-4.2-12.5-3.9c-10.2,0.6-17.2,8.5-16.5,18.7c0.3,4.3,1.8,8,4.2,10.9L195,146.5z"/>
	<path fill="#3F91EC" d="M221.1,125.4l-0.3,2.9l-2.8-0.1c1.9,2.3,3.1,5.3,3.3,8.6c0.5,7.8-4.6,14.3-12.5,14.8   c-3.7,0.2-6.9-1-9.4-3.1l-2.9-0.1l-0.3,2.8c3.3,2.9,7.7,4.4,12.7,4.1c10.2-0.6,17.2-8.5,16.5-18.7   C225.4,132.1,223.8,128.3,221.1,125.4z"/>
</g>
<text transform="matrix(1.0678 0 0 1 286.1132 120.6115)" fill="#FFFFFF" font-family="'Avenir-Medium'" font-size="7.1688">®</text>
</svg>