<?xml version="1.0" encoding="UTF-8"?>
<!-- Generator: Adobe Illustrator 17.1.0, SVG Export Plug-In . SVG Version: 6.00 Build 0)  -->
<!DOCTYPE svg PUBLIC "-//W3C//DTD SVG 1.1//EN" "http://www.w3.org/Graphics/SVG/1.1/DTD/svg11.dtd">
<svg version="1.1" id="Layer_1" xmlns="http://www.w3.org/2000/svg" xmlns:xlink="http://www.w3.org/1999/xlink" x="0px" y="0px" viewBox="16.7 326 499.9 75.5" enable-background="new 16.7 326 499.9 75.5" xml:space="preserve">
<rect x="-13.6" y="300.8" display="none" fill="#163353" width="544.3" height="138.6"/>
<g>
	<path fill="#FFFFFF" d="M16.7,338.7h22.7c11.2,0,19.8,4.9,19.8,15.2c0,7.1-4.5,11.4-11.2,13.4v0.2c7.8,0.5,14.2,7.1,14.2,15.2   c0,10.9-10.2,17.1-22.9,17.1H16.7V338.7z M25.6,364.1h12c6.7,0,12.2-2.5,12.2-9.1c0-4.9-3.3-8.9-10.3-8.9H25.6V364.1L25.6,364.1z    M25.6,392.6h12.9c5.3,0,14.2-1.8,14.2-10.3c0-7.3-5.4-10.9-14-10.9H25.6C25.6,371.3,25.6,392.6,25.6,392.6z"/>
	<path fill="#FFFFFF" d="M77.7,338.7v37.4c0,7.6,4,17.4,16.3,17.4s16.3-9.8,16.3-17.4v-37.4h8.9v38.8c0,14.2-10.9,23.9-25.2,23.9   s-25.2-9.8-25.2-23.9v-38.8L77.7,338.7L77.7,338.7z"/>
	<path fill="#FFFFFF" d="M145.3,373.7l-24.7-35h11.2l17.8,26.9l18.3-26.9h10.7l-24.5,35v26.1h-8.9V373.7L145.3,373.7z"/>
	<path fill="#FFFFFF" d="M181.6,338.7h41.9v7.8h-33.2v18.3h30.8v7.8h-30.8v19.6h34.8v7.8h-43.5L181.6,338.7L181.6,338.7z"/>
	<path fill="#FFFFFF" d="M233.1,338.7H256c16.7,0,20.9,9.4,20.9,17.1c0,7.8-6.2,15.1-16,16.1l18.5,27.9h-11.1L251.8,373H242v26.9   h-8.9V338.7L233.1,338.7z M242,365.7h11.6c7.1,0,14-1.5,14-9.8c0-8.3-7.1-9.8-14-9.8H242V365.7z"/>
</g>
<g>
	<path fill="#FFFFFF" d="M282.1,392l34.8-45.5h-33.7v-7.8h44.1v7.8L292.6,392h35.2v7.8h-45.7V392L282.1,392z"/>
	<path fill="#FFFFFF" d="M401.5,338.7h10.9l33.7,50.3h0.2v-50.3h8.3v61.1h-10.5L410,349.6h-0.2v50.3h-8.3L401.5,338.7L401.5,338.7z"/>
	<path fill="#FFFFFF" d="M465.9,338.7h39.4v7.8h-31.2v18.3h29v7.8h-29v19.6h32.7v7.8h-41L465.9,338.7L465.9,338.7z"/>
</g>
<g>
	<path fill="#FFFFFF" d="M340.2,385.5l5.1,0.2c-3.3-4.2-5.1-9.3-5.4-15.1c-0.9-14.2,8.3-25.9,22.7-26.9c6.3-0.4,11.8,1.5,16.1,4.9   l5.6,0.2l0.4-4.7c-5.8-4.9-13.8-7.6-22.7-7.1c-18.5,1.1-31.2,15.4-29.9,33.9c0.5,7.8,3.3,14.5,7.6,19.8L340.2,385.5z"/>
	<path fill="#FFFFFF" d="M387.5,347.2l-0.5,5.3l-5.1-0.2c3.4,4.2,5.6,9.6,6,15.6c0.9,14.2-8.3,25.9-22.7,26.9   c-6.7,0.4-12.5-1.8-17.1-5.6l-5.3-0.2l-0.5,5.1c6,5.3,14,8,23,7.4c18.5-1.1,31.2-15.4,29.9-33.9   C395.3,359.4,392.4,352.5,387.5,347.2z"/>
</g>
<text transform="matrix(1.0678 0 0 1 505.4768 338.5315)" fill="#FFFFFF" font-family="'Avenir-Medium'" font-size="13.0058">®</text>
</svg>