<svg id="Layer_1" data-name="Layer 1" xmlns="http://www.w3.org/2000/svg" viewBox="0 0 513.86 233.39"><defs><style>.cls-1{fill:#eec21b;}.cls-2{fill:#bb982f;}.cls-3{fill:#fdd117;}.cls-4{fill:#fff;}.cls-5{fill:#fddf59;}.cls-6{fill:#fedf5a;}</style></defs><title>collage_construction</title><path class="cls-1" d="M383.06,199.67l-6.17-1.4v-1.33a13.18,13.18,0,0,0-9.83-12.74l-1.18-5.91,7.79-35.69h8.1v-6H369.11L363,163.8,352.91,113c-1.22-3.45-2.85-5.17-5.47-5.17H296.28c-2.62,0-4.26,2.17-4.75,5.17l-6.22,47-16,5.14c-5.21,1.65-7,3.23-9.37,9.87l-28.56-9c-0.1-1.86-.19-2.92-0.19-2.92,0-2.17-.38-5.41-3.39-3.92l-39.48,43.61-28,30.45c0,2.17,3.39,3.92,3.39,3.92s52.13-2.32,56.67-9.1c9.65-14.4,11.25-38.3,11.24-52.74l25.14,7.95-1.33,3.41a13.16,13.16,0,0,0-4.91,10.26v1.26L244,199.67a1.51,1.51,0,0,0-1.3,1.66v17.86a1.51,1.51,0,0,0,1.3,1.66l7.41,1.68a1,1,0,0,0,.13,0,13.2,13.2,0,0,0,10.78,7.91l1.37,6a1.51,1.51,0,0,0,1.66,1.3h17.86a1.51,1.51,0,0,0,1.66-1.3l1.35-6h16.92l1.35,6a1.51,1.51,0,0,0,1.66,1.3h17.86a1.51,1.51,0,0,0,1.66-1.3l1.35-6h15.58l1.36,6a1.51,1.51,0,0,0,1.66,1.3h17.86a1.51,1.51,0,0,0,1.66-1.3l1.43-6.3a13.2,13.2,0,0,0,9.22-7.65l7.24-1.64a1.51,1.51,0,0,0,1.3-1.66V201.32A1.51,1.51,0,0,0,383.06,199.67Zm-87.1-55,3.1-28.57a4.15,4.15,0,0,1,3.9-3.45l39.71-.15c1.75,0,2.35,1.15,3.17,3.45l5.41,43.75c0,1.91-1.42,4.83-3.17,4.83l-46.77-3.13C293.78,160.27,296,146.54,296,144.63Zm73.14,69.89a9.62,9.62,0,0,1-9.62,9.62h-91.4a9.62,9.62,0,0,1-9.62-9.62V199.69a9.62,9.62,0,0,1,9.62-9.62h91.4a9.62,9.62,0,0,1,9.62,9.62v14.83Z" transform="translate(-5.9 -4.33)"/><path class="cls-1" d="M351.25,193.95a13,13,0,1,0,13,13A13,13,0,0,0,351.25,193.95Zm-0.13,21.74a8.8,8.8,0,1,1,8.8-8.8A8.8,8.8,0,0,1,351.12,215.69Z" transform="translate(-5.9 -4.33)"/><path class="cls-1" d="M337.81,195.1h-65a6.78,6.78,0,0,0-6.78,6.78v10.45a6.78,6.78,0,0,0,6.78,6.78H337.3A18.14,18.14,0,0,1,337.81,195.1Zm-13.06,17.12H274.32v-8.67h50.44v8.67Z" transform="translate(-5.9 -4.33)"/><path class="cls-2" d="M518.86,165.12L513.72,164a0.7,0.7,0,0,0-.27.07,10.07,10.07,0,0,0-10-9.6H427.69a10.09,10.09,0,0,0-10,10.19v1l-4.7,1.07a1,1,0,0,0-.9,1.15v12.38a1,1,0,0,0,.9,1.15l4.93,1.12a10,10,0,0,0,9.76,8h0.52l0.87,3.82a1,1,0,0,0,1.15.9h12.38a1,1,0,0,0,1.15-.9l0.87-3.82H458.8l0.87,3.82a1,1,0,0,0,1.15.9H473.2a1,1,0,0,0,1.15-.9l0.87-3.82h13.07l0.87,3.82a1,1,0,0,0,1.15.9h12.38a1,1,0,0,0,1.15-.9l0.89-3.91a10.1,10.1,0,0,0,8.73-9.51,0.7,0.7,0,0,0,.27.07l5.14-1.17a1,1,0,0,0,.9-1.15V166.27A1,1,0,0,0,518.86,165.12Zm-11.28,13.07a7.36,7.36,0,0,1-7.29,7.43H431a7.36,7.36,0,0,1-7.29-7.43V166.73A7.36,7.36,0,0,1,431,159.3h69.26a7.36,7.36,0,0,1,7.29,7.43v11.46Z" transform="translate(-5.9 -4.33)"/><path class="cls-2" d="M494,162.3a10,10,0,1,0,9.82,10A9.92,9.92,0,0,0,494,162.3Zm-0.1,16.79a6.8,6.8,0,1,1,6.67-6.8A6.73,6.73,0,0,1,493.94,179.09Z" transform="translate(-5.9 -4.33)"/><path class="cls-2" d="M483.86,163.19H434.62a5.19,5.19,0,0,0-5.14,5.24v8.07a5.19,5.19,0,0,0,5.14,5.24h48.85A14.21,14.21,0,0,1,483.86,163.19ZM474,176.41H435.74v-6.69H474v6.69Z" transform="translate(-5.9 -4.33)"/><path class="cls-2" d="M509.81,123.13H478.09V111.48c0-6.69-6.81-12.12-15.21-12.12H440c-8.4,0-11.87,4.55-15.21,12.12l-8.87,25.29c-2.66,9.32-1.38,12.12,15.21,12.12h78.67a3,3,0,0,0,3-3V126.13A3,3,0,0,0,509.81,123.13Zm-73.67,16.42c-12,0-12.16-2.43-11-8.9l6.41-18.57c2.41-5.56,4.92-8.9,11-8.9h13.67v36.36H436.14Zm33.92-8.9c0,4.44-4,8.11-9.28,8.78V103.31c5.25,0.67,9.28,4.34,9.28,8.78v18.57Z" transform="translate(-5.9 -4.33)"/><polygon class="cls-2" points="389.94 67.53 370.12 67.53 362.64 67.53 361.67 67.53 347.69 125.92 357.13 119.79 368.3 74.86 386.82 74.93 410.41 111.16 414.71 100.38 389.94 67.53"/><path class="cls-2" d="M379.13,179.94l-14.61-48.12c-26.8,7.53-17.59,34.69-17.59,34.69,3.65,12.32,4.76,15.93,7,16.22,7.44,1,13.48,1.52,17.91,1.82h0s4.87,0.47,8.78.38c2.11,0,9.54-5,9.35-5.55S383.18,179,379.13,179.94Z" transform="translate(-5.9 -4.33)"/><path class="cls-3" d="M58.19,102.88c1.8-.77,2,0.91,2,2l-0.13,36.34a2,2,0,0,1-2,2H7.93s-2-.91-2-2" transform="translate(-5.9 -4.33)"/><path class="cls-3" d="M236.72,102.08c3.18,20.73-3.58,18.92-24.15,18.92H197.14c-25.52,0-32.45-4.12-35.16-18.92-7.25-39.65,26.85-55.71,26.85-55.71,3.85-6.24-2.65-3.49,4.89-5h23c7.92,0,9.06,0,11.15,12.14Z" transform="translate(-5.9 -4.33)"/><path class="cls-3" d="M210.53,72.35l-3.05-24.06-9.18,1.58-7.57-39.51c-0.57-3.5-2.48-6-5.54-6H125.51c-3.06,0-5,2-6.39,6L106.78,64.23l-0.24,1.44-11.79,2,3.06,19,5.4-.69-5.75,35H181.4V76ZM127.38,15.62c1-2.69,1.66-4,3.7-4L177.4,9.9a4.84,4.84,0,0,1,4.54,4l3.61,33.33c0,2.22,2.54,18.24-6.24,19.51l-54.55,3.66c-2,0-3.7-3.41-3.7-5.63Z" transform="translate(-5.9 -4.33)"/><path class="cls-4" d="M143.9,124.67c0,16.88-12.29,30.56-29.17,30.56a30.56,30.56,0,0,1,0-61.12C131.6,94.11,143.9,105.33,143.9,124.67Z" transform="translate(-5.9 -4.33)"/><circle class="cls-3" cx="108.1" cy="118.97" r="23.91"/><path class="cls-4" d="M220.5,123.87c0,16.84-12.27,30.49-29.11,30.49s-29.11-13.65-29.11-30.49,12.27-30.5,29.11-30.5S220.5,104.64,220.5,123.87Z" transform="translate(-5.9 -4.33)"/><polygon class="cls-3" points="92.02 82.01 60.15 122.91 60.15 109.34 89.15 63.15 92.02 82.01"/><circle class="cls-3" cx="185.6" cy="119.44" r="23.91"/><rect class="cls-5" x="305.14" y="62.88" width="9.59" height="6.1"/><path class="cls-5" d="M378.13,74.28L378,60.3c0-6.77-.86-7.83-6.83-7.72h-7.87l2.57-11.8h5.24V36.88h-8.19l-3.51,15.68h-8l4.19-19.21h5.24V29.45H352.7l-5.17,23.09H338l-2.88-25.67c-0.32-1.94-1.37-3.34-3.07-3.34H304.68c-1.7,0-2.75,1.11-3.54,3.34l-2.9,24.59H272.59a4.27,4.27,0,0,0-4.27,4.27v4.63H260l-3,2.28h0l-4.61,3.47A94.62,94.62,0,0,0,246.2,50c-0.38-1.18-1.17-2.87-2.54-1.53L237.8,76.57l-17.65,24.08c0.39,1.18,2.54,1.53,2.54,1.53s29.66-11.09,30.92-15.58a29.73,29.73,0,0,0,.63-11.07l7.94-5.9h6.14v5.23a19.61,19.61,0,0,1,14.4-6c11.5,0,19.88,7.4,19.88,20,0,0.58,0,1.15-.08,1.72h5.87V85.37h0V82.72h0V76h0V73.32h0v-6.1h0V64.57h0V60.23H311v4.33h9.59V60.23h2.65V90.56h5.09c0-.56-0.08-1.13-0.08-1.71a19.63,19.63,0,0,1,19.88-20c11.5,0,19.88,7.4,19.88,20,0,0.58,0,1.14-.08,1.7C379.49,90.65,378,91.48,378.13,74.28ZM328.42,51.46L306,51.27c-0.83,0-1.51-1.39-1.51-2.29l2.57-20c0.39-1.1.67-1.64,1.51-1.64l18.88,0.46a2,2,0,0,1,1.85,1.64L330.8,43C330.8,43.88,332,50.94,328.42,51.46Z" transform="translate(-5.9 -4.33)"/><polygon class="cls-5" points="305.14 86.23 305.85 86.23 314.73 86.22 314.73 81.04 305.14 81.04 305.14 86.23"/><rect class="cls-5" x="305.14" y="71.63" width="9.59" height="6.76"/><path class="cls-5" d="M347.92,73.08a15.71,15.71,0,1,0,15.71,15.71A15.71,15.71,0,0,0,347.92,73.08Zm0.23,26.17a10.4,10.4,0,1,1,10.41-10.41A10.4,10.4,0,0,1,348.15,99.25Z" transform="translate(-5.9 -4.33)"/><path class="cls-5" d="M282.48,73.08a15.71,15.71,0,1,0,15.71,15.71A15.71,15.71,0,0,0,282.48,73.08Zm0.23,26.17a10.4,10.4,0,1,1,10.41-10.41A10.4,10.4,0,0,1,282.72,99.25Z" transform="translate(-5.9 -4.33)"/><path class="cls-6" d="M19.5,224.52c0,0.71,1.29,1.29,1.29,1.29H52.61a1.29,1.29,0,0,0,1.29-1.29L54,201.45c0-.71-0.14-1.78-1.29-1.29l-8.24,11.53Z" transform="translate(-5.9 -4.33)"/><circle class="cls-6" cx="83.55" cy="211.32" r="12.52"/><circle class="cls-6" cx="131.42" cy="209.09" r="15.18"/><path class="cls-6" d="M179.31,174.24a117.65,117.65,0,0,0,5.2,13.12c0.5,1.1,2.49,1.1,9.26,1.06,0,0,15.11.49,14.81-14.18H179.31Z" transform="translate(-5.9 -4.33)"/><path class="cls-6" d="M208.12,169.93l-41.8-38.63L164,181.6l-4.05-.08-9-40.09c-0.9-2.56-2.11-3.83-4.05-3.83H109.08c-1.94,0-3.15,1.61-3.52,3.83L101,176.26,89.1,180.07c-2.8.89-4.25,1.75-5.52,4h-7.5L57.68,209.36V218l20.23-26h2.46l-3,7.65a43.74,43.74,0,0,0-.54,5.1,17,17,0,0,1,12.44-5.41c7.94,0,14,4.46,15.77,12.33h6.43l6.93-.13a18.9,18.9,0,0,1,19.12-17.4c10.27,0,17.95,6.11,19.06,16.67l8.19-.16L161.22,190l10.39,0-0.23-8.23-0.5-37.89,30.43,26.06h6.82Zm-60.68,9.63-34.63-2.32c-5.58-.81-4-11-4-12.39l2.29-21.16a3.07,3.07,0,0,1,2.88-2.55l29.41,1.08c1.29,0,1.74.85,2.35,2.55l4,31.21C149.79,177.39,148.74,179.56,147.44,179.56Z" transform="translate(-5.9 -4.33)"/></svg>