<svg id="Layer_1" data-name="Layer 1" xmlns="http://www.w3.org/2000/svg" viewBox="0 0 807.82 388.56"><defs><style>.cls-1{fill:#fed117;stroke:#231f20;stroke-miterlimit:10;stroke-width:6px;}.cls-2{opacity:0.51;}.cls-3{fill:#fff;}.cls-4{fill:#231f20;}</style></defs><title>headline_construction</title><polygon class="cls-1" points="126.38 385.42 3.57 172.71 126.38 3 681.3 3 804.11 172.71 681.11 340 126.38 385.42"/><g class="cls-2"><path class="cls-3" d="M37.17,212.74c0.11,1.13,2.24,1.86,2.24,1.86L90,209.83a2.06,2.06,0,0,0,1.85-2.24L88.5,170.92c-0.11-1.13-.49-2.81-2.24-1.85L74.9,188.62Z" transform="translate(-6.16 -21.5)"/><circle class="cls-3" cx="146.98" cy="188.17" r="19.99" transform="translate(-23.19 -6.86) rotate(-5.39)"/><circle class="cls-3" cx="222.7" cy="177.46" r="24.22" transform="translate(-21.85 0.21) rotate(-5.39)"/><path class="cls-3" d="M283.55,108.9A187.76,187.76,0,0,0,293.78,129c1,1.67,4.12,1.38,14.87.3,0,0,24.09-1.49,21.4-24.76Z" transform="translate(-6.16 -21.5)"/><path class="cls-3" d="M328.69,97.72l-72.2-55.11,3.92,80.27-6.45.48L233.69,61c-1.82-3.92-3.93-5.77-7-5.48l-60.19,5.68c-3.09.29-4.77,3-5,6.61l-2.1,56-18.27,7.83c-4.32,1.83-6.49,3.42-8.16,7.24L121,140,95.57,182.93l1.29,13.68,28.25-44.28L129,152l-3.58,12.6a69.81,69.81,0,0,0-.09,8.18,27.1,27.1,0,0,1,18.95-10.46c12.62-1.19,23,5,26.9,17.22l10.22-1,11-1.25a30.17,30.17,0,0,1,27.77-30.52c16.32-1.54,29.43,7,32.78,23.63l13-1.48-8.76-32.32,16.51-1.53-1.61-13L265.6,61.9l52.25,36.85Zm-95,24.4-55.37,1.5c-9-.45-7.94-16.85-8.15-19.09l0.47-34a4.9,4.9,0,0,1,4.2-4.49l46.89-2.7c2.06-.19,2.9,1.09,4.11,3.71l11,49C237.12,118.34,235.77,121.93,233.72,122.13Z" transform="translate(-6.16 -21.5)"/></g><g class="cls-2"><path class="cls-3" d="M401.68,307.61l-5.67-.74-0.11-1.2A11.93,11.93,0,0,0,386,295l-1.56-5.23,4-32.82,7.3-.69-0.51-5.41L383.74,252l-3.18,25-13.42-44.91c-1.39-3-3-4.42-5.37-4.19l-46.1,4.35c-2.36.22-3.65,2.32-3.84,5.06l-1.61,42.91-14,6c-4.56,1.93-6,3.51-7.6,9.69l-26.5-5.71c-0.25-1.67-.42-2.61-0.42-2.61-0.18-2-.8-4.84-3.38-3.24L226.47,327l-22.65,29.82c0.18,2,3.39,3.24,3.39,3.24s46.77-6.53,50.29-13c7.47-13.8,6.88-35.46,5.64-48.48l23.33,5-0.91,3.19a11.91,11.91,0,0,0-3.55,9.66l0.11,1.13-5.71,1.87a1.37,1.37,0,0,0-1,1.6l1.52,16.09a1.37,1.37,0,0,0,1.31,1.38L285,339.4a0.88,0.88,0,0,0,.12,0,11.94,11.94,0,0,0,10.38,6.21l1.75,5.32a1.37,1.37,0,0,0,1.6,1L315,350.39a1.37,1.37,0,0,0,1.38-1.31l0.71-5.49,15.25-1.44,1.73,5.26a1.37,1.37,0,0,0,1.6,1l16.09-1.52a1.37,1.37,0,0,0,1.38-1.31l0.71-5.49,14-1.32,1.73,5.26a1.37,1.37,0,0,0,1.6,1l16.09-1.52a1.37,1.37,0,0,0,1.38-1.31l0.75-5.79a12,12,0,0,0,7.66-7.68l6.38-2.1a1.37,1.37,0,0,0,1-1.6L403,309A1.37,1.37,0,0,0,401.68,307.61Zm-83.16-42.18,0.36-26A3.76,3.76,0,0,1,322.1,236l35.77-3.51c1.58-.15,2.22.83,3.15,2.84l8.59,39c0.16,1.72-.87,4.47-2.45,4.62L324.76,280C317.88,279.7,318.68,267.14,318.52,265.43Zm71.85,56.76a8.71,8.71,0,0,1-7.85,9.49l-82.36,7.77a8.71,8.71,0,0,1-9.49-7.85l-1.26-13.37a8.71,8.71,0,0,1,7.85-9.49L379.62,301a8.71,8.71,0,0,1,9.49,7.85Z" transform="translate(-6.16 -21.5)"/><path class="cls-3" d="M372.53,305.17a11.73,11.73,0,1,0,12.78,10.58A11.73,11.73,0,0,0,372.53,305.17Zm1.73,19.6a8,8,0,1,1,7.18-8.68A8,8,0,0,1,374.26,324.77Z" transform="translate(-6.16 -21.5)"/><path class="cls-3" d="M360.52,307.34L302,312.87a6.14,6.14,0,0,0-5.53,6.69l0.89,9.42a6.14,6.14,0,0,0,6.69,5.53L362.1,329A16.42,16.42,0,0,1,360.52,307.34Zm-10.31,16.54-45.45,4.29L304,320.36l45.45-4.29Z" transform="translate(-6.16 -21.5)"/></g><g class="cls-2"><path class="cls-3" d="M760.91,180.26l-7.12-.92a1,1,0,0,0-.35.13,13.72,13.72,0,0,0-14.75-11.75l-102.82,9.7a13.75,13.75,0,0,0-12.26,15.1l0.13,1.37-6.24,2a1.43,1.43,0,0,0-1.07,1.67l1.59,16.8a1.43,1.43,0,0,0,1.37,1.44l6.83,0.89a13.69,13.69,0,0,0,14.27,9.62l0.7-.07,1.67,5.08a1.43,1.43,0,0,0,1.67,1.07l16.8-1.59a1.43,1.43,0,0,0,1.44-1.37l0.69-5.3,19.23-1.81,1.66,5.08a1.43,1.43,0,0,0,1.67,1.07l16.8-1.59a1.43,1.43,0,0,0,1.44-1.37l0.69-5.3,17.73-1.67,1.67,5.08a1.43,1.43,0,0,0,1.67,1.07l16.8-1.59a1.43,1.43,0,0,0,1.44-1.37l0.7-5.42a13.76,13.76,0,0,0,10.63-14,1,1,0,0,0,.37.06l6.82-2.24a1.43,1.43,0,0,0,1.07-1.67l-1.59-16.8A1.43,1.43,0,0,0,760.91,180.26Zm-13.63,19.17a10,10,0,0,1-8.94,11l-94,8.87a10,10,0,0,1-10.84-9.15l-1.47-15.54a10,10,0,0,1,8.94-11l94-8.87a10,10,0,0,1,10.85,9.15Z" transform="translate(-6.16 -21.5)"/><path class="cls-3" d="M726.88,179.61a13.64,13.64,0,1,0,14.61,12.32A13.51,13.51,0,0,0,726.88,179.61Zm2,22.79a9.26,9.26,0,1,1,8.18-10.07A9.18,9.18,0,0,1,728.9,202.41Z" transform="translate(-6.16 -21.5)"/><path class="cls-3" d="M713.18,182.12l-66.81,6.3a7.07,7.07,0,0,0-6.3,7.76l1,11a7.07,7.07,0,0,0,7.64,6.45L715,207.33A19.37,19.37,0,0,1,713.18,182.12Zm-11.74,19.21-51.85,4.89-0.86-9.08,51.85-4.89Z" transform="translate(-6.16 -21.5)"/><path class="cls-3" d="M743.27,124.46l-43,4.06-1.49-15.81c-0.86-9.08-10.79-15.57-22.19-14.49l-31,2.93c-11.4,1.08-15.52,7.69-19.09,18.39L617.64,155c-2.42,13-.32,16.62,22.19,14.49L666.27,167l16.62-1.57,63.67-6a4.08,4.08,0,0,0,3.68-4.45l-2.53-26.82A4.08,4.08,0,0,0,743.27,124.46Zm-97.85,31.71c-16.25,1.53-16.81-1.73-16-10.66l6.32-26c2.56-7.85,5.53-12.7,13.77-13.48L668,104.26l4.66,49.33Zm44.87-16.41c0.57,6-4.42,11.52-11.46,13.1l-4.62-49c7.21,0.23,13.14,4.7,13.71,10.72Z" transform="translate(-6.16 -21.5)"/><polygon class="cls-3" points="575.91 47.99 549.02 50.53 538.87 51.49 537.56 51.61 526.06 132.61 538.09 123.1 547.49 60.71 572.63 58.44 609.27 104.56 613.73 89.39 575.91 47.99"/><path class="cls-3" d="M573.25,218.25l-26-63.41c-35.39,13.65-19.42,49.32-19.42,49.32,6.53,16.24,8.5,21,11.61,21.11,10.22,0.37,18.48.34,24.53,0.18h0s6.66,0,12-.61c2.86-.33,12.3-7.95,12-8.73S578.61,216.47,573.25,218.25Z" transform="translate(-6.16 -21.5)"/></g><path class="cls-4" d="M147.78,313.57l-8.65-127.91,19.22-1.3L167,312.27Zm13.61-129.42,21.35-1.44,1.07,15.86L162.47,200ZM165,237.77l14.29-1L180.4,253l-14.29,1ZM169,296.2l21.35-1.44,1.07,15.86L170,312.06Z" transform="translate(-6.16 -21.5)"/><path class="cls-4" d="M228.84,310.61c-21,.63-30.66-17-32.32-41.51l-3.06-45.29c-1.63-24,4.2-43.62,26.4-46l1.2,17.8c-8.13,1.78-9.38,12.17-8.76,21.29l3.78,55.92c0.62,9.19,3.26,19.25,11.55,19.92Zm1.84-18c8.77-1.39,9.58-11.9,8.94-21.37l-3.78-55.92c-0.63-9.33-3.16-19.62-11.74-20l-1.2-17.73c22.55-.87,30.9,17.81,32.53,42l3,44.79c1,14.5-1.07,29.35-10.25,39.05,2.56,4.44,9.61,4.76,11.57,4.84l1,14.14c-13.16.6-19.82-6.74-24-12.94a37.27,37.27,0,0,1-4.83.9Z" transform="translate(-6.16 -21.5)"/><path class="cls-4" d="M303,305.46c-25.11.9-30.89-20.41-32.52-44.46l-5.67-83.84,19.28-1.3,5.66,83.77c1.27,18.73,3.09,27.7,12,28.17Zm1.85-17.79c9.38-1.28,9.19-10.43,7.9-29.59l-5.66-83.77,19.22-1.3L332,256.84c1.63,24.19-.8,46.06-25.93,48.41Z" transform="translate(-6.16 -21.5)"/><path class="cls-4" d="M339.73,172.1l19.28-1.3,8.65,127.91L348.38,300Z" transform="translate(-6.16 -21.5)"/><path class="cls-4" d="M401,296.45l-19.22,1.3-8.65-127.91,19.22-1.3Zm-5.61-128.12,4-.27c19.46-1.32,27.66,12.34,29.12,34C430.34,229,420.67,239.6,401,241l-0.73,0-1.1-16.29,1.58-.11c9.85-.67,10.31-7.4,9.35-21.69-0.79-11.7-2.38-19-16.68-18.05l3-.21Z" transform="translate(-6.16 -21.5)"/><path class="cls-4" d="M444.3,293.53l-8.65-127.91,14.9-1,8.65,127.91Zm51.63-131.92,4.42,65.32-11.77,63.6-10.34.7L458,229.79l-4.42-65.32,1.09-.07,26.53,94.26,13.42-97Zm11.68,127.64L499,161.33l14.9-1,8.65,127.91Z" transform="translate(-6.16 -21.5)"/><path class="cls-4" d="M536.63,287.29L528,159.37l19.22-1.3L555.85,286Zm13.61-129.42,21.35-1.44,1.07,15.86-21.35,1.44Zm3.63,53.62,14.29-1,1.09,16.15-14.29,1Zm3.95,58.43,21.35-1.44,1.07,15.86-21.35,1.44Z" transform="translate(-6.16 -21.5)"/><path class="cls-4" d="M594.89,154.78l3.12,7.29,8.15,120.52-16.54,1.12-8.65-128Zm6.75,15.77,22.57,48.23,3.09,45.72-22.7-50.24Zm29.31,102.79-8.14-120.45,16-1.08,8.65,128L634,280.7Z" transform="translate(-6.16 -21.5)"/><path class="cls-4" d="M646.17,151.38l53.16-3.59,1.16,17.08-53.16,3.59Zm37.71,18.22,7.25,107.24-19.28,1.3L664.6,170.9Z" transform="translate(-6.16 -21.5)"/><path class="cls-4" d="M191.75,98.94c-8.4.59-16,30.16-15.06,43.41,0.38,5.44,4.82,10.78,8.37,10.53,3.07-.22,6-5.5,9.43-11.39,0.51-.8.88-1.4,1.68-1.46,1-.07,4.41,2.66,4.49,3.81a5.92,5.92,0,0,1-.71,2.54c-1.54,3.46-3,7.2-5.28,10.34-1.33,1.82-4.91,2.93-8.06,3.15-7.43.52-19.17-8.24-19.82-17.39-1.17-16.69,8.68-49.86,20.71-50.71,6.63-.47,15.89,5.49,16.24,10.36,0.19,2.77-2,9.05-3.79,13.11-0.42.89-.78,1.59-1.43,1.63-1.29.09-5.17-1.94-5.29-3.65a9,9,0,0,1,.55-2.62c0.9-3.42,1.74-6.45,1.56-9C195.25,100.32,193.52,98.81,191.75,98.94Z" transform="translate(-6.16 -21.5)"/><path class="cls-4" d="M233.23,149.58c-1,.07-2.1.15-3.24,0.13-2.37,4.38-5.32,7.46-8.71,7.7-5.66.4-15.39-5.24-15.87-12.11-0.93-13.25,5.77-32.22,14.42-32.82,6.22-.44,15.52,5.9,15.93,11.82,0.35,5.05-.76,12.22-2.91,18.7a5,5,0,0,0,2.13.23c5.74-.4,8.88-10,8.88-10s0.61-1.77,1.58-1.84c1.13-.08,3,1.32,3.1,2.47a10.78,10.78,0,0,1-.9,3.42S243.49,148.86,233.23,149.58Zm-14,1.37c0.89-.06,2-1.1,3-2.8a2.74,2.74,0,0,1-1.2-2c-0.13-1.91,2.9-6,4.74-6.56,1.64-5.58,2.8-12.17,2.48-16.75a4.17,4.17,0,0,0-4.07-3.55c-4.12.29-9.61,17-8.86,27.64C215.42,149.3,217.58,151.07,219.19,151Z" transform="translate(-6.16 -21.5)"/><path class="cls-4" d="M273.09,147.17c2.42-.17,6.27-7.82,9.63-16.68,0,0,.61-1.77,1.66-1.84a3.45,3.45,0,0,1,2.93,2.48,11.31,11.31,0,0,1-.82,3.41c-3.77,9.85-7.93,18.86-13.75,19.27-3.64.26-11.19-3.24-11.49-7.53-0.43-6.1,3-21.68,2.77-25.3-0.11-1.62-1.6-3.15-2.65-3.07-1.7.12-6.05,2.82-7,6.53-1.66,6.44-4,26-4.31,28.76-0.24,1.26-.41,2.23-1.62,2.32-1.86.13-6.79-1.92-7-4.49s3.94-31.8,5.18-38.4a2.84,2.84,0,0,1,2.61-2.2c1.37-.1,5.57,5.26,5.57,5.26s7.52-6.18,11.72-6.48c2.42-.17,7.06,3.43,7.31,7,0.31,4.48-3.39,23.42-3,28.48C270.88,145.88,272.36,147.22,273.09,147.17Z" transform="translate(-6.16 -21.5)"/><path class="cls-4" d="M315.28,128.2s0.61-1.77,1.66-1.84a3.45,3.45,0,0,1,2.93,2.48,11.31,11.31,0,0,1-.82,3.41c-3.77,9.85-11,19.07-23.12,19.93-8.08.57-17.28-9-17.69-14.95-0.33-4.67,6.12-8.86,6.12-8.86s6.77-14.56,9.14-20.09c0.41-1.08,1.3-2.29,2.43-2.37s6.16,3.3,6.28,5c0.65,9.25,4.3,17.33,4.81,24.48,0.25,3.62-2,7.9-2,7.9C308.39,141.14,311.92,137.06,315.28,128.2Zm-27.37,8c0.33,4.77,3.27,9.54,5.45,9.39,2.75-.19,4.61-3.68,4.37-7.11-0.48-6.86-2.84-13.89-3.2-19C294.52,119.41,287.68,133,287.9,136.16Z" transform="translate(-6.16 -21.5)"/><path class="cls-4" d="M327.59,105.87l6.95-.49a0.89,0.89,0,0,1,1,.79c0.09,1.24-1.18,5.16-2.47,5.25l-6.46.45c-1.91,11-4,24.23-3.83,26.43,0.21,3.05,2.64,5.18,4.9,5s6.27-7.82,9.63-16.68c0,0,.61-1.77,1.66-1.84a3.45,3.45,0,0,1,2.93,2.48,11.31,11.31,0,0,1-.82,3.41c-3.77,9.85-7.93,18.86-13.83,19.27-5.49.39-13.4-3.56-13.74-8.33-0.18-2.57,1.76-16.51,3.64-29.1l-2.75.19a1,1,0,0,1-1-.89c-0.08-1.14,1.11-5.06,2.4-5.15l2.26-.16c1.07-6.78,2-12.4,2.39-14.54,0.23-1.36.9-2.17,1.55-2.22,1.62-.11,7.2,3.13,7.32,4.85a12.16,12.16,0,0,1-.16,2.31Z" transform="translate(-6.16 -21.5)"/><path class="cls-4" d="M368.2,124.48s0.61-1.77,1.66-1.84a3.45,3.45,0,0,1,2.93,2.48,11.34,11.34,0,0,1-.82,3.41c-3.77,9.85-7.93,18.86-13.75,19.27-3.64.26-10.35-2.91-10.61-6.63-0.52-7.44,2.8-21.37,2.49-25.76-0.07-1-3.36-1.58-3.36-1.58s-2.28,8-5.63,16.88c0,0-.69,1.77-1.66,1.84-1.13.08-2.94-1.33-3-2.38a11.62,11.62,0,0,1,.89-3.51c2.41-6.21,4.77-15.28,4.77-15.28s-3.57-2.24-3.8-5.48S341,95,343,94.83c2.34-.16,6.68,2.6,6.83,4.79,0.14,2-.9,4.47-0.73,6.95s10.5,2.62,10.78,6.62c0.22,3.15-3.24,20.92-2.86,26.36a1.59,1.59,0,0,0,1.58,1.61C361,141,364.84,133.34,368.2,124.48Z" transform="translate(-6.16 -21.5)"/><path class="cls-4" d="M387.89,138.91s-7.2,7.31-10.27,7.52c-4.2.3-10.87-4.51-11.15-8.51-0.32-4.48,3.54-28.13,4.74-34.25,0.39-1.37.92-1.89,1.65-1.94,1.54-.11,7.1,2.85,7.22,4.57a10.28,10.28,0,0,1-.16,2.31c-0.39,2.52-4.13,23.29-3.82,27.67a3.17,3.17,0,0,0,2.37,2.52c3.23-.23,8.62-9,9.13-12.14,1.48-7.86,3.28-20.35,4-24.43,0.23-1.36.92-1.89,1.57-1.93,1.62-.11,7.18,2.85,7.3,4.57a10.34,10.34,0,0,1-.16,2.31c-0.55,2.53-4.51,23.6-4.16,28.65,0.09,1.24,1.56,2.57,2.37,2.52,2.34-.16,6.27-7.82,9.63-16.68,0,0,.61-1.77,1.66-1.84a3.45,3.45,0,0,1,2.93,2.48,11.32,11.32,0,0,1-.81,3.41c-3.86,9.85-7.93,18.86-13.75,19.27C394.59,145.24,388.65,141.63,387.89,138.91Z" transform="translate(-6.16 -21.5)"/><path class="cls-4" d="M407.4,131.12c-0.94-13.35,5.69-32.21,14.74-32.85,5.33-.37,11.48,4,11.75,7.8,0.19,2.67-1.83,10.86-3.45,11-2,.14-5.26-2-5.37-3.65-0.14-2,2-5.7,1.91-7.51a1.91,1.91,0,0,0-2-1.3c-4.28.3-8.35,15.15-7.62,25.64,0.24,3.43,3.94,6.33,6.6,6.15,4.28-.3,10.92-6.32,15.62-16.91,0,0,.69-1.77,1.66-1.84a3.44,3.44,0,0,1,3,2.47,10.78,10.78,0,0,1-.9,3.42c-5.13,11.38-12.86,19.21-20.45,19.74C416.24,143.72,407.87,137.89,407.4,131.12Z" transform="translate(-6.16 -21.5)"/><path class="cls-4" d="M451.94,97.13l6.95-.49a0.89,0.89,0,0,1,1,.79c0.09,1.24-1.18,5.16-2.47,5.25l-6.46.45c-1.91,11-4,24.23-3.83,26.43,0.21,3.05,2.64,5.18,4.9,5s6.27-7.82,9.63-16.68c0,0,.61-1.77,1.66-1.84a3.45,3.45,0,0,1,2.93,2.48,11.34,11.34,0,0,1-.82,3.41c-3.77,9.85-7.93,18.86-13.83,19.27-5.49.39-13.4-3.56-13.74-8.33-0.18-2.57,1.76-16.51,3.64-29.1l-2.75.19a1,1,0,0,1-1-.89c-0.08-1.14,1.11-5.06,2.4-5.15l2.26-.16c1.07-6.78,2-12.4,2.39-14.54,0.23-1.36.9-2.17,1.55-2.22,1.62-.11,7.2,3.13,7.32,4.85a12.15,12.15,0,0,1-.16,2.31Z" transform="translate(-6.16 -21.5)"/><path class="cls-4" d="M464.7,97.29a2.62,2.62,0,0,1,2.53-2.19c1-.07,6.71,3,6.83,4.79,0.15,2.19-4.88,24.11-4.41,30.78,0.09,1.24,1.48,2.58,2.29,2.52,2.34-.16,6.19-7.81,9.71-16.68,0,0,.53-1.76,1.58-1.84a3.45,3.45,0,0,1,2.93,2.48,10.78,10.78,0,0,1-.9,3.42c-3.69,9.84-7.93,18.86-13.75,19.27-3.64.26-11.19-3.24-11.49-7.53C459.7,127.83,463.75,103.3,464.7,97.29Zm3.15-10.57c-0.25-3.62,1.17-10,3.83-10.14,2-.14,5.69,1.23,5.86,3.61,0.25,3.62-1.25,10-3.83,10.14C471.69,90.48,468,89.11,467.86,86.72Z" transform="translate(-6.16 -21.5)"/><path class="cls-4" d="M508.75,130.22c-1,.07-2.1.15-3.24,0.13-2.37,4.38-5.32,7.46-8.72,7.7-5.66.4-15.39-5.24-15.87-12.11C480,112.7,486.7,93.73,495.35,93.13c6.22-.44,15.52,5.9,15.93,11.82,0.36,5.05-.76,12.22-2.91,18.7a5,5,0,0,0,2.13.23c5.74-.4,8.88-10,8.88-10S520,112.09,521,112c1.13-.08,3,1.32,3.1,2.47a10.78,10.78,0,0,1-.9,3.42S519,129.5,508.75,130.22Zm-14,1.37c0.89-.06,2-1.1,3-2.8a2.74,2.74,0,0,1-1.2-2c-0.13-1.91,2.9-6,4.74-6.56,1.64-5.58,2.8-12.17,2.48-16.75a4.17,4.17,0,0,0-4.07-3.55c-4.12.29-9.61,17-8.86,27.64C491,129.94,493.1,131.71,494.72,131.59Z" transform="translate(-6.16 -21.5)"/><path class="cls-4" d="M548.61,127.81c2.42-.17,6.27-7.82,9.63-16.68,0,0,.61-1.77,1.66-1.84a3.45,3.45,0,0,1,2.93,2.48,11.31,11.31,0,0,1-.82,3.41c-3.77,9.85-7.93,18.86-13.75,19.27-3.64.26-11.19-3.24-11.49-7.53-0.43-6.1,3-21.68,2.77-25.3-0.11-1.62-1.6-3.15-2.65-3.07-1.7.12-6.05,2.82-7,6.53-1.66,6.44-4,26-4.31,28.76-0.24,1.26-.41,2.23-1.62,2.32-1.86.13-6.79-1.92-7-4.49s3.94-31.8,5.18-38.4a2.84,2.84,0,0,1,2.61-2.2c1.37-.1,5.57,5.26,5.57,5.26s7.52-6.18,11.72-6.48c2.42-.17,7.06,3.43,7.31,7,0.31,4.48-3.39,23.43-3,28.48C546.41,126.52,547.89,127.86,548.61,127.81Z" transform="translate(-6.16 -21.5)"/></svg>