<svg id="Layer_1" data-name="Layer 1" xmlns="http://www.w3.org/2000/svg" viewBox="0 0 576.42 279.71"><title>buyers_guide</title><polygon points="79.14 101.93 0 101.93 20.7 50.97 12.51 0 91.66 0 79.14 101.93" style="fill:#aa822d"/><path d="M571,287.21H492a0.06,0.06,0,0,1-.06-0.07l12.5-101.81a0.06,0.06,0,0,1,.06-0.05h79a0.06,0.06,0,0,1,.05.08l-20.66,50.87a0.06,0.06,0,0,0,0,0L571,287.14A0.06,0.06,0,0,1,571,287.21Z" transform="translate(-7.12 -7.5)" style="fill:#8ab0dd"/><polygon points="457.21 123.37 31.29 123.37 43.8 21.44 469.73 21.44 457.21 123.37" style="fill:#cfa02b"/><polygon points="532.42 248.68 37.02 248.68 49.53 146.75 544.94 146.75 532.42 248.68" style="fill:#afc7e8"/><path d="M114.48,46.15c3.31,0,14.37,2.44,17.94,2.44,1,0,3.4-2.44,4.35-2.44,1.48,0,5.57,3.57,5.57,4.88,0,0.78-4.53,4.88-5.31,7.23-0.7,2-2.52,8.45-4.53,15.67h4.61a0.78,0.78,0,0,1,.78.78c0,0.87-1.39,4.27-2.52,4.27h-4.27c-2.7,9.75-5.4,19.42-6.09,20.63-1.83,3-10.88,8.36-14.63,8.36-5,0-17.85-12.1-17.85-14.71,0-1.39,5-5.57,7-5.57a1.46,1.46,0,0,1,1.39.87c2,3.83,8.27,12.89,10.27,12.89,1,0,3.4-1.39,4.44-3.83,0.7-1.65,3-10.1,5.31-18.63h-7.66a0.8,0.8,0,0,1-.87-0.78c0-.87,1.48-4.27,2.61-4.27h7.31c1.65-6,3.13-11.49,3.83-13.76a11.25,11.25,0,0,1,3.22-4.61s-12.36-2-16.46-2c-1.57,0-3.22,2.18-3.22,3.4,0,2,2.18,7.92,2.18,9.14s-3.31,3.22-4.7,3.22c-1.74,0-7.05-8.1-7.05-10.27C100.12,54.94,110,46.15,114.48,46.15Z" transform="translate(-7.12 -7.5)" style="fill:#fdfdfe"/><path d="M159.84,100.39a1.56,1.56,0,0,0,1.57,1.57c2.61,0,7.31-6.7,11.58-14.54,0,0,.78-1.57,1.92-1.57s3,1.39,3,2.44a9.26,9.26,0,0,1-1.13,3C171.95,100,166.81,108,160.54,108c-3.92,0-10.88-3.31-10.88-6.7,0-6.79,4.61-19.24,4.61-23.25,0-.78-3.48-1.65-3.48-1.65s-5.92,18.54-12.71,30c0,0-.87,1.57-1.92,1.57-1.22,0-3.92-1.39-3.92-2.35a9.56,9.56,0,0,1,1.22-3.13c5.75-9.32,11.75-28.82,11.75-28.82s-2.87-2.09-2.87-5,3.66-9.75,5.83-9.75c2.52,0,7,2.79,7,4.79,0,1.83-1.31,4-1.31,6.27s11.06,3,11.06,6.7C164.89,79.5,159.84,95.43,159.84,100.39Z" transform="translate(-7.12 -7.5)" style="fill:#fdfdfe"/><path d="M189.18,67c4.44,0,12.45,4.35,12.45,8.1,0,4.35-5.57,18.28-11.23,18.28a34.81,34.81,0,0,1-8.18-1.22,10.85,10.85,0,0,0-.7,4.27c0,2.09,3.74,5.31,7.49,5.31,4.7,0,11.58-3.22,17.24-14.37,0,0,.7-1.57,1.83-1.57s3,1.39,3,2.44a9.74,9.74,0,0,1-1,3C204.07,102.57,196.5,108,189.45,108c-7.66,0-18.2-5.66-18.2-12.45C171.25,85.68,181.09,67,189.18,67Zm5.57,9c0-1.22-1.39-2.18-2.61-2.18-3.4,0-8.53,10.36-9.32,14.45C191.19,88.29,194.76,78.37,194.76,76Z" transform="translate(-7.12 -7.5)" style="fill:#fdfdfe"/><path d="M220.7,101.79c4.09,0,8.18-3,11.32-7.31,0,0,1.13-1.74,2.18-1.74,1.22,0,3,1.65,3,2.7s-1.48,3-1.48,3C232.28,103,226.45,108,219,108c-6.36,0-14.89-6.18-14.89-12C204.16,86.11,213.91,67,222,67c4,0,12.45,5.22,12.45,8.53,0,4.79-5.57,17.85-11.23,17.85A34.81,34.81,0,0,1,215,92.21a10.74,10.74,0,0,0-.44,3.31C214.61,98.56,218.26,101.79,220.7,101.79Zm6.44-26.21c0-.78-1.39-1.74-2.61-1.74-3.4,0-8.1,10.36-8.88,14.45C223.31,88.29,227.15,78.89,227.15,75.58Z" transform="translate(-7.12 -7.5)" style="fill:#fdfdfe"/><path d="M111.41,186.77c8.45,0,12.57,3.93,11.38,10.88a11.78,11.78,0,0,1-3.51,6.71A11.29,11.29,0,0,1,114.6,207a8.73,8.73,0,0,1,4.4,1.91c1.93,1.78,2.64,4.55,2.07,7.87a12.77,12.77,0,0,1-6,8.92c-2.69,1.54-5.46,2.09-10.68,2.09H92.7l7-41h11.69ZM98.64,223.62h5.22c4.35,0,6.08-.31,8.06-1.36a7.5,7.5,0,0,0,4-5.78c0.84-4.92-1.71-7.07-8.3-7.07h-6.53Zm3.15-18.39,5.29-.06c3.29,0,5.36-.43,7-1.6a8.79,8.79,0,0,0,3.52-5.66c0.45-2.65-.45-5-2.28-5.9-1.37-.74-3.06-1-6.86-1h-4.29Z" transform="translate(-7.12 -7.5)" style="fill:#1f204f"/><path d="M134.28,211.18c-0.9,5.23-.6,7.87,1.05,9.84a9.6,9.6,0,0,0,6.86,2.77,12.77,12.77,0,0,0,7.85-3c2.61-2.15,3.52-4.25,4.46-9.72l4.16-24.3H164l-4.16,24.3c-1.05,6.15-2.65,9.66-5.83,12.61a18.18,18.18,0,0,1-12.52,4.86c-4.85,0-8.95-1.84-11.17-5.16-2.05-2.89-2.35-5.9-1.25-12.3l4.16-24.3h5.22Z" transform="translate(-7.12 -7.5)" style="fill:#1f204f"/><path d="M181.1,227.77h-5.22l3.1-18.08-10.37-22.94h6.15l7.68,17.59L196,186.74h6.22l-18,22.95Z" transform="translate(-7.12 -7.5)" style="fill:#1f204f"/><path d="M208.64,204.88H225l-0.76,4.43H207.89l-2.4,14h16.35l-0.76,4.43H199.51l7-41H228.1l-0.76,4.43H211Z" transform="translate(-7.12 -7.5)" style="fill:#1f204f"/><path d="M234.63,227.76h-5.22l7-41h11.31c8.83,0,13.41,4.49,12.13,11.93A13.79,13.79,0,0,1,252.14,209c-2.17,1-4.11,1.48-7.94,1.72l13.18,17h-6.65l-13.15-17.22ZM243.4,207c6.28,0,10.18-2.83,11.07-8s-1.76-7.87-7.48-7.87H240.9L238.18,207h5.22Z" transform="translate(-7.12 -7.5)" style="fill:#1f204f"/><path d="M270.41,199.94l-3.22-1.17,7.24-12.86,3.85,1.48Z" transform="translate(-7.12 -7.5)" style="fill:#1f204f"/><path d="M283,216.73c-0.55,4.68,1.58,7.13,6.11,7.13s8.44-2.83,9.15-7c0.61-3.57-1-5.23-7.13-7.38-4.63-1.66-6.11-2.46-7.69-4.12-1.79-1.91-2.44-4.61-1.91-7.75,1.19-7,7-11.69,14.37-11.69s11.33,4.61,10.3,11.75h-5.22a7.2,7.2,0,0,0-.27-4.25c-0.87-1.78-3-2.89-5.66-2.89a8.12,8.12,0,0,0-8.17,6.71,4.8,4.8,0,0,0,1.55,4.74c1.15,0.92,2.18,1.41,6.16,2.89,4.15,1.54,6.07,2.64,7.45,4.43a9.17,9.17,0,0,1,1.55,7.26c-1.21,7.07-7.32,11.87-15.09,11.88-5.28,0-8.57-1.84-10.12-5.53a9.18,9.18,0,0,1-.51-5.35l0.15-.86h5Z" transform="translate(-7.12 -7.5)" style="fill:#1f204f"/><path d="M369.67,205.51c-0.08.86-.27,2-0.34,2.34A22.85,22.85,0,0,1,362.8,221c-4.82,4.92-10.61,7.51-16.89,7.51-11.81,0-18.92-8.91-16.83-21.15,2.13-12.43,12.23-21.35,24.11-21.35,6.28,0,11.24,2.58,14.33,7.44l-4.45,3.14a13.53,13.53,0,0,0-2.92-3.26,12.19,12.19,0,0,0-7.76-2.58c-8.58,0-16.33,7.14-17.94,16.55s3.71,16.48,12.16,16.48a18.23,18.23,0,0,0,13-6c2-2.15,3-4.18,4-7.75H349.14l0.76-4.43h19.77Z" transform="translate(-7.12 -7.5)" style="fill:#1f204f"/><path d="M380.83,211.1c-0.9,5.23-.6,7.87,1.05,9.84a9.6,9.6,0,0,0,6.86,2.77,12.77,12.77,0,0,0,7.85-3c2.61-2.15,3.52-4.25,4.46-9.72l4.16-24.3h5.35L406.4,211c-1.05,6.15-2.65,9.66-5.83,12.61a18.18,18.18,0,0,1-12.52,4.86c-4.85,0-8.95-1.84-11.17-5.16-2.05-2.89-2.35-5.9-1.25-12.3l4.16-24.3H385Z" transform="translate(-7.12 -7.5)" style="fill:#1f204f"/><path d="M418.28,227.7h-5.22l7-41h5.22Z" transform="translate(-7.12 -7.5)" style="fill:#1f204f"/><path d="M435.62,186.67h11c12.5,0,18.73,7.5,16.62,19.86-1.19,7-4.47,12.67-9.34,16.43-4.15,3.2-9.2,4.74-15.23,4.74H428.59Zm-1,36.6h1.86c7,0,10.13-.74,13.52-3.08,4.24-3,6.88-7.51,7.92-13.6,1.7-9.9-2.68-15.56-12.19-15.56h-5.59Z" transform="translate(-7.12 -7.5)" style="fill:#1f204f"/><path d="M476.65,204.8H493l-0.76,4.43H475.89l-2.4,14h16.35l-0.76,4.43H467.51l7-41h21.57l-0.76,4.43H479Z" transform="translate(-7.12 -7.5)" style="fill:#1f204f"/><path d="M310,56.63H295.1c-5.47,0-7.75,3-9.93,7.88L279.38,81a24,24,0,0,0-.6,2.5h-0.14s-10.85-1.35-10.85,9.18c0,3.8.28,8.3,0.28,8.3h6.35a11.85,11.85,0,0,1,23.19,0h22.12V64.56C319.92,60.15,315.46,56.63,310,56.63ZM287.45,76.94l3.66-10.67c1.39-3.2,2.83-5.1,6.31-5.1h9.46c3.48,0,6.31,2.27,6.31,5.1V76.94c0,2.83-2.83,5.1-6.31,5.1H293.76C286.89,82,286.75,80.65,287.45,76.94Z" transform="translate(-7.12 -7.5)" style="fill:#fff"/><circle cx="279.02" cy="96.53" r="8.72" style="fill:#fff"/><path d="M328.31,45.64V101h36.83a11.84,11.84,0,0,1,23.19,0h10.16V45.64H328.31Z" transform="translate(-7.12 -7.5)" style="fill:#fff"/><circle cx="369.61" cy="96.53" r="8.72" style="fill:#fff"/></svg>