<svg id="COMPRESS_YOUR_COSTS" data-name="COMPRESSYOUR COSTS" xmlns="http://www.w3.org/2000/svg" viewBox="0 0 392.67 103.83"><title>savings</title><path d="M83.37,50.4v-47h12.9V39.16h21.3V50.4H83.37Z" transform="translate(-22.54 -3.17)" style="fill:#fff"/><path d="M141.26,50.8a20.33,20.33,0,0,1-9.16-2.05A22.83,22.83,0,0,1,125,43.36a24.51,24.51,0,0,1-4.57-7.64,24.92,24.92,0,0,1-1.62-8.87,24.25,24.25,0,0,1,1.69-8.93,23.75,23.75,0,0,1,4.73-7.58,23.22,23.22,0,0,1,7.18-5.23,21,21,0,0,1,9.1-2,20.35,20.35,0,0,1,9.16,2.05,22.65,22.65,0,0,1,7.08,5.43,24.46,24.46,0,0,1,4.53,7.67,25.22,25.22,0,0,1,1.59,8.8A24,24,0,0,1,162.2,36a24.47,24.47,0,0,1-4.66,7.54,22.78,22.78,0,0,1-7.15,5.26A21,21,0,0,1,141.26,50.8ZM131.93,27a18.6,18.6,0,0,0,.56,4.6,12,12,0,0,0,1.75,3.94,9.41,9.41,0,0,0,3,2.78,8.75,8.75,0,0,0,8.4,0,9,9,0,0,0,2.91-2.84,13.35,13.35,0,0,0,1.69-4,18.76,18.76,0,0,0,.56-4.56,17.65,17.65,0,0,0-.6-4.6,12.65,12.65,0,0,0-1.75-3.9,8.91,8.91,0,0,0-2.94-2.71,8.23,8.23,0,0,0-4.17-1,8,8,0,0,0-4.2,1.06,9.08,9.08,0,0,0-2.91,2.81,12.87,12.87,0,0,0-1.72,4A18.34,18.34,0,0,0,131.93,27Z" transform="translate(-22.54 -3.17)" style="fill:#fff"/><path d="M163.1,50.4l17.53-47h10.45l17.47,47H194.92l-2.85-9.2h-12.5l-2.78,9.2H163.1Zm22.76-33.54-4.37,15.75H190Z" transform="translate(-22.54 -3.17)" style="fill:#fff"/><path d="M212.05,50.4v-47h18.06a26.43,26.43,0,0,1,10.25,1.85,20.65,20.65,0,0,1,11.91,12.47,26.91,26.91,0,0,1,1.52,9.1,26.52,26.52,0,0,1-1.69,9.69,21,21,0,0,1-4.8,7.41,21.51,21.51,0,0,1-7.48,4.76,26.79,26.79,0,0,1-9.72,1.69H212.05ZM240.7,26.85a16.08,16.08,0,0,0-.73-5,11.1,11.1,0,0,0-2.08-3.84,9.4,9.4,0,0,0-3.34-2.48,10.68,10.68,0,0,0-4.43-.89H225V39.16h5.16a10.5,10.5,0,0,0,4.5-.93A9.39,9.39,0,0,0,238,35.65a11.36,11.36,0,0,0,2.05-3.9A16.52,16.52,0,0,0,240.7,26.85Z" transform="translate(-22.54 -3.17)" style="fill:#fff"/><path d="M294.82,39.36a7.1,7.1,0,0,0,3.84-1,7.9,7.9,0,0,0,2.58-2.61A12,12,0,0,0,302.69,32a20.7,20.7,0,0,0,.46-4.43V3.43h12.9V27.58a32.29,32.29,0,0,1-1.26,9.16,19.9,19.9,0,0,1-3.9,7.38,18.45,18.45,0,0,1-6.65,4.9,23,23,0,0,1-9.43,1.79,22.43,22.43,0,0,1-9.63-1.89,18.45,18.45,0,0,1-6.58-5.06,20.34,20.34,0,0,1-3.77-7.38,32.48,32.48,0,0,1-1.19-8.9V3.43h12.9V27.58A21.09,21.09,0,0,0,287,32a12,12,0,0,0,1.46,3.77A7.69,7.69,0,0,0,291,38.4,7.1,7.1,0,0,0,294.82,39.36Z" transform="translate(-22.54 -3.17)" style="fill:#fff"/><path d="M323.4,50.4v-47h20.25A14.28,14.28,0,0,1,350,4.85a16.5,16.5,0,0,1,5,3.7,17.31,17.31,0,0,1,3.27,5.23,15.68,15.68,0,0,1,1.19,5.92A17.23,17.23,0,0,1,355.19,31a15,15,0,0,1-4.9,3.64A14.63,14.63,0,0,1,344,36H336.3V50.4H323.4Zm12.9-25.67h6.81a3,3,0,0,0,2.22-1.09q1-1.09,1-3.94t-1.19-4a3.61,3.61,0,0,0-2.38-1.06H336.3V24.73Z" transform="translate(-22.54 -3.17)" style="fill:#fff"/><path d="M45,106.8a20.32,20.32,0,0,1-9.16-2.05,22.83,22.83,0,0,1-7.08-5.39,24.51,24.51,0,0,1-4.57-7.64,24.93,24.93,0,0,1-1.62-8.87,24.25,24.25,0,0,1,1.69-8.93A23.76,23.76,0,0,1,29,66.34a23.23,23.23,0,0,1,7.18-5.23,21,21,0,0,1,9.1-2,20.35,20.35,0,0,1,9.16,2.05,22.65,22.65,0,0,1,7.08,5.43A24.45,24.45,0,0,1,66,74.32a25.22,25.22,0,0,1,1.59,8.8A24,24,0,0,1,65.91,92a24.48,24.48,0,0,1-4.66,7.54,22.77,22.77,0,0,1-7.15,5.26A21,21,0,0,1,45,106.8ZM35.64,83a18.59,18.59,0,0,0,.56,4.6A12,12,0,0,0,38,91.52a9.41,9.41,0,0,0,3,2.78,8.75,8.75,0,0,0,8.4,0,9,9,0,0,0,2.91-2.84,13.35,13.35,0,0,0,1.69-4,18.76,18.76,0,0,0,.56-4.57,17.65,17.65,0,0,0-.6-4.6,12.64,12.64,0,0,0-1.75-3.9,8.91,8.91,0,0,0-2.94-2.71,8.23,8.23,0,0,0-4.17-1,8,8,0,0,0-4.2,1.06,9.08,9.08,0,0,0-2.91,2.81,12.86,12.86,0,0,0-1.72,4A18.33,18.33,0,0,0,35.64,83Z" transform="translate(-22.54 -3.17)" style="fill:#fff"/><path d="M86.05,83.31V106.4H73.15v-47H83.21l18.86,23.88V59.43H115v47H104.71Z" transform="translate(-22.54 -3.17)" style="fill:#fff"/><path d="M166.37,74.78a36.18,36.18,0,0,0-4.1-2.12,37.5,37.5,0,0,0-4-1.49,14.43,14.43,0,0,0-4.33-.7,6,6,0,0,0-2.75.53,1.85,1.85,0,0,0-1,1.79,2.06,2.06,0,0,0,.6,1.52,5.65,5.65,0,0,0,1.72,1.09,21.64,21.64,0,0,0,2.75,1q1.62,0.46,3.67,1.13a48.13,48.13,0,0,1,5.86,2.18,18.2,18.2,0,0,1,4.47,2.81,10.83,10.83,0,0,1,2.84,3.94,14.26,14.26,0,0,1,1,5.62,14.82,14.82,0,0,1-1.55,7.11,12.76,12.76,0,0,1-4.1,4.6,17.31,17.31,0,0,1-5.76,2.48,28,28,0,0,1-6.45.76,36.52,36.52,0,0,1-5.29-.4,45.88,45.88,0,0,1-5.39-1.12,47.1,47.1,0,0,1-5.16-1.72,32.92,32.92,0,0,1-4.6-2.25l5.56-11.31a38.88,38.88,0,0,0,4.83,2.58,34.3,34.3,0,0,0,4.8,1.79,19.12,19.12,0,0,0,5.46.79,5.55,5.55,0,0,0,2.94-.56,1.72,1.72,0,0,0,.83-1.49,2.13,2.13,0,0,0-.83-1.69A7.61,7.61,0,0,0,156,90.39q-1.46-.53-3.34-1.06t-4-1.26a34.45,34.45,0,0,1-5.36-2.28A14.51,14.51,0,0,1,139.64,83a9.92,9.92,0,0,1-2.15-3.54,13.79,13.79,0,0,1-.69-4.57A15.78,15.78,0,0,1,138.22,68a14.12,14.12,0,0,1,3.87-5,17.32,17.32,0,0,1,5.59-3,21.3,21.3,0,0,1,6.65-1,25.23,25.23,0,0,1,5,.5,40.37,40.37,0,0,1,4.73,1.26,45.4,45.4,0,0,1,4.27,1.65q2,0.89,3.57,1.69Z" transform="translate(-22.54 -3.17)" style="fill:#fff"/><path d="M173.25,106.4l17.53-47h10.45l17.47,47H205.07l-2.85-9.2h-12.5l-2.78,9.2h-13.7ZM196,72.86l-4.37,15.75h8.54Z" transform="translate(-22.54 -3.17)" style="fill:#fff"/><path d="M227.64,59.43l9.2,30.76,9.06-30.76h13.56l-17.27,47H231.47L214,59.43h13.63Z" transform="translate(-22.54 -3.17)" style="fill:#fff"/><path d="M263,106.4v-47h12.9v47H263Z" transform="translate(-22.54 -3.17)" style="fill:#fff"/><path d="M296.84,83.31V106.4h-12.9v-47H294l18.86,23.88V59.43h12.9v47H315.5Z" transform="translate(-22.54 -3.17)" style="fill:#fff"/><path d="M363.07,102.57a14.52,14.52,0,0,1-10.25,4.17,18.24,18.24,0,0,1-8.27-2,22.63,22.63,0,0,1-6.85-5.26,25.7,25.7,0,0,1-6.38-17,24,24,0,0,1,1.75-9.23,22.58,22.58,0,0,1,12.07-12.37,22.08,22.08,0,0,1,8.93-1.82,22.86,22.86,0,0,1,5.69.7,19.45,19.45,0,0,1,5,2.05,19.22,19.22,0,0,1,4.14,3.24,17.17,17.17,0,0,1,3,4.27l-9.59,7.34a10.26,10.26,0,0,0-3.61-4.47,8.8,8.8,0,0,0-5.13-1.69,7.51,7.51,0,0,0-3.67.93A9,9,0,0,0,347,74.05,12.81,12.81,0,0,0,345.11,78a18.43,18.43,0,0,0,0,10,12,12,0,0,0,2,3.87,8.88,8.88,0,0,0,3,2.51,8.4,8.4,0,0,0,3.87.89,9.6,9.6,0,0,0,4.6-1.19,14.51,14.51,0,0,0,4.13-3.44H354.4V81.4h19.32v25H363.07v-3.84Z" transform="translate(-22.54 -3.17)" style="fill:#fff"/><path d="M408.52,74.78a36.19,36.19,0,0,0-4.1-2.12,37.48,37.48,0,0,0-4-1.49,14.43,14.43,0,0,0-4.33-.7,6,6,0,0,0-2.75.53,1.85,1.85,0,0,0-1,1.79,2.06,2.06,0,0,0,.6,1.52,5.65,5.65,0,0,0,1.72,1.09,21.68,21.68,0,0,0,2.75,1Q399,76.83,401,77.49a48.1,48.1,0,0,1,5.86,2.18,18.19,18.19,0,0,1,4.47,2.81,10.82,10.82,0,0,1,2.84,3.94,14.25,14.25,0,0,1,1,5.62,14.81,14.81,0,0,1-1.55,7.11,12.75,12.75,0,0,1-4.1,4.6,17.31,17.31,0,0,1-5.76,2.48,28,28,0,0,1-6.45.76,36.55,36.55,0,0,1-5.29-.4,45.87,45.87,0,0,1-5.39-1.12,47.09,47.09,0,0,1-5.16-1.72,33,33,0,0,1-4.6-2.25l5.56-11.31a38.83,38.83,0,0,0,4.83,2.58,34.31,34.31,0,0,0,4.8,1.79,19.11,19.11,0,0,0,5.46.79,5.55,5.55,0,0,0,2.94-.56,1.72,1.72,0,0,0,.83-1.49,2.13,2.13,0,0,0-.83-1.69,7.6,7.6,0,0,0-2.28-1.22q-1.46-.53-3.34-1.06t-4-1.26a34.43,34.43,0,0,1-5.36-2.28A14.51,14.51,0,0,1,381.79,83a9.93,9.93,0,0,1-2.15-3.54,13.8,13.8,0,0,1-.69-4.57A15.77,15.77,0,0,1,380.37,68a14.11,14.11,0,0,1,3.87-5,17.31,17.31,0,0,1,5.59-3,21.29,21.29,0,0,1,6.65-1,25.23,25.23,0,0,1,5,.5,40.32,40.32,0,0,1,4.73,1.26,45.36,45.36,0,0,1,4.27,1.65q2,0.89,3.57,1.69Z" transform="translate(-22.54 -3.17)" style="fill:#fff"/></svg>