<?xml version="1.0" encoding="utf-8"?>
<!-- Generator: Adobe Illustrator 17.1.0, SVG Export Plug-In . SVG Version: 6.00 Build 0)  -->
<!DOCTYPE svg PUBLIC "-//W3C//DTD SVG 1.1//EN" "http://www.w3.org/Graphics/SVG/1.1/DTD/svg11.dtd">
<svg version="1.1" id="Layer_1" xmlns="http://www.w3.org/2000/svg" xmlns:xlink="http://www.w3.org/1999/xlink" x="0px" y="0px"
	 viewBox="0 0 500 500" enable-background="new 0 0 500 500" xml:space="preserve">
<g>
	<path fill="#FFFFFF" d="M250,0C112.1,0,0.1,112.4,0.1,250.1C0.1,388,112.1,500,250,500s249.9-112,249.9-249.9
		C500.1,112.4,387.7,0,250,0z M250,483.9c-129,0-233.8-104.8-233.8-233.8C16.2,121.2,121,16.3,250,16.3s234,104.9,234,233.8
		C484,379.1,378.9,483.9,250,483.9z"/>
</g>
<g>
	<g enable-background="new    ">
		<path fill="#FFFFFF" stroke="#474747" stroke-width="3" stroke-miterlimit="10" d="M219.8,137.4h-7.7V90l-10.8,9l-4.6-5.4
			l16.1-13.1h6.9V137.4z"/>
		<path fill="#FFFFFF" stroke="#474747" stroke-width="3" stroke-miterlimit="10" d="M259.4,121h-18.6v-6.3h18.6V121z"/>
		<path fill="#FFFFFF" stroke="#474747" stroke-width="3" stroke-miterlimit="10" d="M304.9,137.4h-37.1v-7.5l22.6-22.5
			c1.7-1.8,3.2-3.6,4.4-5.5s1.8-4.1,1.8-6.5c0-1.5-0.3-2.9-0.8-4.1s-1.3-2.2-2.2-3.1c-0.9-0.9-2-1.5-3.2-2c-1.2-0.5-2.5-0.7-3.9-0.7
			c-2.9,0-5.3,0.9-7.1,2.8s-3.1,4.2-3.5,7.1l-7.6-1.3c0.3-2.1,1-4.1,2-6c1-1.8,2.4-3.5,4-4.8s3.5-2.4,5.6-3.2
			c2.1-0.7,4.4-1.1,6.8-1.1c2.4,0,4.6,0.3,6.8,1c2.2,0.7,4.1,1.7,5.7,3.1c1.7,1.3,3,3,4,5.1c1,2,1.5,4.4,1.5,7
			c0,1.8-0.2,3.5-0.7,5.1c-0.5,1.6-1.1,3-2,4.4c-0.8,1.4-1.8,2.7-2.9,4c-1.1,1.3-2.3,2.5-3.5,3.7l-18.5,18h27.9V137.4z"/>
	</g>
	<g>
		<g>
			<path fill="#FFFFFF" stroke="#474747" stroke-width="3" stroke-miterlimit="10" d="M195.3,190.3v228.9h109.4V190.3H195.3z
				 M232.7,260.7h-22v-21.9h22V260.7z M232.7,232.9h-22v-21.9h22V232.9z M261.4,260.7h-22v-21.9h22V260.7z M261.4,232.9h-22v-21.9
				h22V232.9z M289.3,260.7h-22v-21.9h22V260.7z M289.3,232.9h-22v-21.9h22V232.9z"/>
		</g>
		<g>
			<polygon fill="#FFFFFF" stroke="#474747" stroke-width="3" stroke-miterlimit="10" points="346.5,166 153.7,166 153.7,190.3 
				167.2,190.3 167.2,419.2 196,419.2 196,190.3 305.6,190.3 305.6,419.2 334.4,419.2 334.4,190.3 346.5,190.3 			"/>
			<path fill="#B5B6B6" stroke="#474747" stroke-width="3" stroke-miterlimit="10" d="M336.1,420.9h-32.3V192h-106v228.9h-32.4V192
				h-13.5v-27.7h196.1V192h-12L336.1,420.9L336.1,420.9z M307.3,417.4h25.3V188.5h12v-20.8h-189v20.8h13.5v228.9h25.3V188.5h112.9
				V417.4L307.3,417.4z"/>
		</g>
		<g>
			<g>
				
					<rect x="241.1" y="281" fill="#FFFFFF" stroke="#474747" stroke-width="3" stroke-miterlimit="10" width="19.6" height="119.3"/>
				<path fill="#B5B6B6" stroke="#474747" stroke-width="3" stroke-miterlimit="10" d="M261.9,401.3h-22V279.7h22V401.3z
					 M242.3,398.9h17.3V281.8h-17.3V398.9z"/>
			</g>
			<g>
				
					<rect x="209.3" y="281" fill="#FFFFFF" stroke="#474747" stroke-width="3" stroke-miterlimit="10" width="19.6" height="119.3"/>
				<path fill="#B5B6B6" stroke="#474747" stroke-width="3" stroke-miterlimit="10" d="M230.1,401.3h-22V279.7h22V401.3z
					 M210.5,398.9h17.3V281.8h-17.3V398.9z"/>
			</g>
			<g>
				
					<rect x="271.1" y="281" fill="#FFFFFF" stroke="#474747" stroke-width="3" stroke-miterlimit="10" width="19.6" height="119.3"/>
				<path fill="#B5B6B6" stroke="#474747" stroke-width="3" stroke-miterlimit="10" d="M291.9,401.3h-22V279.7h22V401.3z
					 M272.3,398.9h17.3V281.8h-17.3V398.9z"/>
			</g>
		</g>
	</g>
</g>
</svg>
