<?xml version="1.0" encoding="utf-8"?>
<!-- Generator: Adobe Illustrator 17.1.0, SVG Export Plug-In . SVG Version: 6.00 Build 0)  -->
<!DOCTYPE svg PUBLIC "-//W3C//DTD SVG 1.1//EN" "http://www.w3.org/Graphics/SVG/1.1/DTD/svg11.dtd">
<svg version="1.1" id="Layer_1" xmlns="http://www.w3.org/2000/svg" xmlns:xlink="http://www.w3.org/1999/xlink" x="0px" y="0px"
	 viewBox="0 0 500 500" enable-background="new 0 0 500 500" xml:space="preserve">
<g>
	<path fill="#FFFFFF" d="M250,0C112.1,0,0.1,112.4,0.1,250.1C0.1,388,112.1,500,250,500s249.9-112,249.9-249.9
		C500.1,112.4,387.7,0,250,0z M250,483.9c-129,0-233.8-104.8-233.8-233.8C16.2,121.2,121,16.3,250,16.3s234,104.9,234,233.8
		C484,379.1,378.9,483.9,250,483.9z"/>
</g>
<g enable-background="new    ">
	<path fill="#FFFFFF" stroke="#474747" stroke-width="3" stroke-miterlimit="10" d="M214.4,92.1h2.7c1.8,0,3.5-0.2,5.2-0.5
		c1.7-0.3,3.2-0.9,4.5-1.7c1.3-0.8,2.3-1.9,3.1-3.2c0.8-1.4,1.2-3.1,1.2-5.1c0-1.6-0.3-3-0.9-4.3c-0.6-1.3-1.4-2.4-2.4-3.2
		c-1-0.9-2.2-1.6-3.5-2.1c-1.3-0.5-2.7-0.8-4.2-0.8c-2.7,0-4.9,0.7-6.8,2c-1.9,1.4-3.3,3.2-4.2,5.7l-7.8-2.7c1.5-3.8,4-6.7,7.4-8.9
		c3.4-2.2,7.3-3.2,11.7-3.2c2.6,0,5.1,0.4,7.4,1.1s4.4,1.8,6.1,3.2c1.8,1.4,3.1,3.2,4.2,5.3s1.5,4.6,1.5,7.4c0,1.8-0.3,3.4-0.8,5
		c-0.6,1.5-1.3,2.9-2.3,4.2c-1,1.2-2.1,2.3-3.5,3.2c-1.4,0.9-2.8,1.5-4.4,1.9v0.2c1.8,0.4,3.5,1,5.1,1.9c1.6,0.9,2.9,2,4,3.3
		c1.1,1.3,2,2.8,2.7,4.6c0.6,1.7,1,3.6,1,5.6c0,3.1-0.6,5.9-1.8,8.3c-1.2,2.4-2.7,4.4-4.6,6c-1.9,1.6-4.2,2.8-6.7,3.6
		c-2.5,0.8-5.1,1.2-7.8,1.2c-5,0-9.3-1.1-13.1-3.4c-3.8-2.2-6.5-5.7-8.2-10.4l8-2.7c0.9,2.7,2.6,4.9,4.8,6.6
		c2.3,1.7,5.1,2.6,8.4,2.6c1.6,0,3.1-0.3,4.6-0.8c1.5-0.5,2.8-1.3,4-2.3c1.2-1,2.1-2.2,2.8-3.7c0.7-1.5,1.1-3.2,1.1-5.2
		c0-2.2-0.5-4-1.4-5.5c-0.9-1.5-2.2-2.7-3.7-3.6c-1.5-0.9-3.2-1.6-5.1-1.9c-1.9-0.4-3.7-0.6-5.6-0.6h-2.7V92.1z"/>
	<path fill="#FFFFFF" stroke="#474747" stroke-width="3" stroke-miterlimit="10" d="M281.3,97.8h19.6v7.3h-19.6v19.6H274v-19.6
		h-19.6v-7.3H274V78.2h7.3V97.8z"/>
</g>
<g display="none" enable-background="new    ">
	<path display="inline" fill="#FFFFFF" d="M209.4,98h2.8c1.7,0,3.5-0.2,5.2-0.5c1.7-0.3,3.1-0.9,4.5-1.7c1.2-0.9,2.4-1.9,3.1-3.3
		c0.9-1.4,1.2-3.1,1.2-5c0-1.6-0.3-2.9-0.9-4.3c-0.5-1.2-1.4-2.4-2.4-3.3c-1-0.9-2.3-1.6-3.5-2.1c-1.4-0.5-2.8-0.7-4.2-0.7
		c-2.6,0-4.9,0.7-6.8,2.1c-1.9,1.4-3.3,3.3-4.2,5.7l-7.8-2.8c1.6-3.8,4-6.8,7.5-8.8c3.5-2.1,7.3-3.3,11.8-3.3c2.6,0,5,0.3,7.5,1
		c2.3,0.7,4.3,1.7,6.1,3.3c1.7,1.4,3.1,3.1,4.2,5.4c1,2.1,1.6,4.5,1.6,7.3c0,1.7-0.3,3.5-0.9,5c-0.5,1.6-1.4,2.9-2.3,4.2
		c-1,1.2-2.1,2.3-3.5,3.1c-1.4,0.9-2.8,1.6-4.5,1.9v0.2c1.9,0.3,3.5,1,5,1.9c1.6,0.9,2.9,1.9,4,3.3c1,1.4,2.1,2.8,2.6,4.5
		c0.7,1.7,1,3.6,1,5.5c0,3.1-0.5,5.9-1.7,8.3c-1.2,2.4-2.8,4.3-4.7,5.9c-1.9,1.6-4.2,2.8-6.8,3.6s-5.2,1.2-7.8,1.2
		c-5,0-9.4-1-13-3.3c-3.8-2.3-6.6-5.7-8.2-10.4l8-2.6c0.9,2.8,2.6,4.9,4.9,6.6c2.3,1.7,5,2.6,8.3,2.6c1.6,0,3.1-0.2,4.7-0.7
		c1.6-0.5,2.8-1.2,4-2.3c1.2-1,2.1-2.3,2.8-3.6c0.7-1.4,1-3.3,1-5.2c0-2.3-0.5-4-1.4-5.5c-0.9-1.4-2.1-2.6-3.6-3.6
		c-1.6-0.9-3.1-1.6-5-1.9c-1.9-0.3-3.8-0.5-5.5-0.5h-2.6V98H209.4z"/>
	<path display="inline" fill="#FFFFFF" d="M276.2,103.9h19.6v7.1h-19.6v19.6h-7.3V111h-19.6v-7.3h19.6V84.1h7.3V103.9z"/>
</g>
<g>
	<g>
		<path fill="#FFFFFF" stroke="#474747" stroke-width="3" stroke-miterlimit="10" d="M189.6,186.3v252.3h120.5V186.3H189.6z
			 M230.9,264h-24.1v-24.1h24.1V264z M230.9,233.5h-24.1v-24.1h24.1V233.5z M262.3,264h-24.1v-24.1h24.1V264z M262.3,233.5h-24.1
			v-24.1h24.1V233.5z M293.2,264h-24.1v-24.1h24.1V264z M293.2,233.5h-24.1v-24.1h24.1V233.5z"/>
	</g>
	<g>
		<polygon fill="#FFFFFF" stroke="#474747" stroke-width="3" stroke-miterlimit="10" points="356.1,159.6 143.9,159.6 143.9,186.3 
			158.8,186.3 158.8,438.7 190.3,438.7 190.3,186.3 311,186.3 311,438.7 342.8,438.7 342.8,186.3 356.1,186.3 		"/>
		<path fill="#B5B6B6" stroke="#474747" stroke-width="3" stroke-miterlimit="10" d="M344.7,440.6h-35.6V188.2H192.4v252.3h-35.6
			V188.2H142v-30.5H358v30.5h-13.4V440.6L344.7,440.6z M313,436.8h27.9V184.4h13.4v-22.9H145.8v22.9h14.9v252.3h27.9V184.4h124.5
			L313,436.8L313,436.8z"/>
	</g>
	<g>
		<g>
			
				<rect x="240.1" y="286.4" fill="#FFFFFF" stroke="#474747" stroke-width="3" stroke-miterlimit="10" width="21.5" height="131.3"/>
			<path fill="#B5B6B6" stroke="#474747" stroke-width="3" stroke-miterlimit="10" d="M263,419.1h-24.1V285.2H263V419.1z
				 M241.5,416.5h19.1V287.6h-19.1V416.5z"/>
		</g>
		<g>
			
				<rect x="205.1" y="286.4" fill="#FFFFFF" stroke="#474747" stroke-width="3" stroke-miterlimit="10" width="21.5" height="131.3"/>
			<path fill="#B5B6B6" stroke="#474747" stroke-width="3" stroke-miterlimit="10" d="M228,419.1h-24.1V285.2H228V419.1z
				 M206.5,416.5h19.1V287.6h-19.1V416.5z"/>
		</g>
		<g>
			
				<rect x="273.1" y="286.4" fill="#FFFFFF" stroke="#474747" stroke-width="3" stroke-miterlimit="10" width="21.5" height="131.3"/>
			<path fill="#B5B6B6" stroke="#474747" stroke-width="3" stroke-miterlimit="10" d="M296,419.1h-24.1V285.2H296V419.1z
				 M274.5,416.5h19.1V287.6h-19.1V416.5z"/>
		</g>
	</g>
</g>
</svg>
