<?xml version="1.0" encoding="utf-8"?>
<!-- Generator: Adobe Illustrator 17.1.0, SVG Export Plug-In . SVG Version: 6.00 Build 0)  -->
<!DOCTYPE svg PUBLIC "-//W3C//DTD SVG 1.1//EN" "http://www.w3.org/Graphics/SVG/1.1/DTD/svg11.dtd">
<svg version="1.1" id="Layer_1" xmlns="http://www.w3.org/2000/svg" xmlns:xlink="http://www.w3.org/1999/xlink" x="0px" y="0px"
	 viewBox="0 0 300 400" enable-background="new 0 0 300 400" xml:space="preserve">
<rect x="6.2" y="6.4" fill="none" stroke="#000000" stroke-width="3" stroke-miterlimit="10" width="287" height="386.6"/>
<g>
	<path d="M50,58h12.7c3.5,0,6.3,1,8,2.7c1.3,1.3,2,2.9,2,4.8v0.1c0,4.2-2.7,6.3-5.2,7.3c3.7,1,6.9,3.1,6.9,7.3v0.1
		c0,5.1-4.4,8.4-11,8.4H50V58z M70.3,65.8c0-3.4-2.8-5.7-7.7-5.7H52.3v12.1h10.1C67,72.2,70.3,69.9,70.3,65.8L70.3,65.8z M62.7,74.3
		H52.3v12.3h11.2c5.3,0,8.6-2.4,8.6-6.3v-0.1C72,76.5,68.7,74.3,62.7,74.3z"/>
	<path d="M81.2,76V58h2.3v17.7c0,7.2,3.9,11.4,10.4,11.4c6.2,0,10.2-3.8,10.2-11.2V58h2.3v17.7c0,8.8-5.1,13.5-12.6,13.5
		C86.5,89.2,81.2,84.6,81.2,76z"/>
	<path d="M125.1,76.6L111.9,58h2.9l11.5,16.5L137.9,58h2.7l-13.2,18.5v12.2h-2.3V76.6z"/>
	<path d="M146.6,58h21.9v2.1h-19.6v12.1h17.6v2.1h-17.6v12.3h19.8v2.1h-22.1V58z"/>
	<path d="M176,58h12.9c3.8,0,6.8,1.2,8.7,3c1.5,1.4,2.3,3.5,2.3,5.7v0.1c0,5.1-3.8,8.1-9,8.8L201,88.7h-2.9L188.3,76h-10.1v12.7H176
		V58z M188.6,73.9c5.1,0,9-2.6,9-7v-0.1c0-4.1-3.2-6.7-8.8-6.7h-10.5v13.8H188.6z"/>
	<path d="M205.7,65.3c1.9-1,2.6-1.9,2.5-3.6H207V58h2.9v3.3c0,2.7-1,4.2-3.6,5.2L205.7,65.3z"/>
	<path d="M215.9,84.3l1.5-1.7c3.4,3.1,6.5,4.6,11,4.6c4.6,0,7.8-2.6,7.8-6.1v-0.1c0-3.3-1.7-5.1-8.7-6.5c-7.4-1.5-10.4-4-10.4-8.7
		v-0.1c0-4.6,4.2-8.1,9.9-8.1c4.5,0,7.4,1.2,10.5,3.7l-1.4,1.8c-2.9-2.5-5.8-3.5-9.2-3.5c-4.5,0-7.5,2.6-7.5,5.8v0.1
		c0,3.3,1.7,5.2,9,6.7c7.1,1.4,10.1,4,10.1,8.5v0.1c0,5-4.3,8.4-10.2,8.4C223.3,89.2,219.6,87.6,215.9,84.3z"/>
	<path d="M81.4,126.2L81.4,126.2c0-8.4,6-16,15.2-16c5,0,8.2,1.5,11.2,4l-1.5,1.7c-2.4-2.1-5.2-3.7-9.9-3.7
		c-7.5,0-12.7,6.3-12.7,13.8v0.1c0,8,5,13.9,13.2,13.9c3.9,0,7.6-1.6,9.8-3.5v-8.8H96.4v-2.1h12.5v11.9c-2.8,2.5-7.1,4.6-12.1,4.6
		C87.1,142,81.4,134.8,81.4,126.2z"/>
	<path d="M116.7,128.7v-18h2.3v17.7c0,7.2,3.9,11.4,10.4,11.4c6.2,0,10.2-3.8,10.2-11.2v-18h2.3v17.7c0,8.8-5.1,13.5-12.6,13.5
		C121.9,141.9,116.7,137.3,116.7,128.7z"/>
	<path d="M150.9,110.7h2.3v30.8h-2.3V110.7z"/>
	<path d="M162.6,110.7h10.2c9.7,0,16.3,6.6,16.3,15.3v0.1c0,8.7-6.7,15.4-16.3,15.4h-10.2V110.7z M164.9,112.8v26.5h8
		c8.6,0,14-5.8,14-13.2v-0.1c0-7.3-5.4-13.3-14-13.3H164.9z"/>
	<path d="M197,110.7h21.9v2.1h-19.6v12.1h17.6v2.1h-17.6v12.3h19.8v2.1H197V110.7z"/>
</g>
<line fill="none" stroke="#000000" stroke-width="4" stroke-miterlimit="10" x1="35.7" y1="194.9" x2="259.4" y2="194.9"/>
<line fill="none" stroke="#000000" stroke-width="4" stroke-miterlimit="10" x1="36.1" y1="247.2" x2="259.8" y2="247.2"/>
<line fill="none" stroke="#000000" stroke-width="4" stroke-miterlimit="10" x1="36.1" y1="299.6" x2="259.8" y2="299.6"/>
<line fill="none" stroke="#000000" stroke-width="4" stroke-miterlimit="10" x1="35.7" y1="351.9" x2="259.4" y2="351.9"/>
</svg>
