<?xml version="1.0" encoding="utf-8"?>
<!-- Generator: Adobe Illustrator 17.1.0, SVG Export Plug-In . SVG Version: 6.00 Build 0)  -->
<!DOCTYPE svg PUBLIC "-//W3C//DTD SVG 1.1//EN" "http://www.w3.org/Graphics/SVG/1.1/DTD/svg11.dtd">
<svg version="1.1" id="Layer_1" xmlns="http://www.w3.org/2000/svg" xmlns:xlink="http://www.w3.org/1999/xlink" x="0px" y="0px"
	 viewBox="0 0 500 500" enable-background="new 0 0 500 500" xml:space="preserve">
<g>
	<path fill="#FFFFFF" d="M249.9-1C112-1,0,111.4,0,249.1C0,387,112,499,249.9,499s249.9-112,249.9-249.9C500,111.4,387.6-1,249.9-1z
		 M249.9,482.9c-129,0-233.8-104.8-233.8-233.8c0-128.9,104.8-233.8,233.8-233.8s234,104.9,234,233.8
		C483.9,378.1,378.8,482.9,249.9,482.9z"/>
</g>
<g enable-background="new    ">
	<path fill="#FFFFFF" stroke="#474747" stroke-width="3" stroke-miterlimit="10" d="M249.2,111.9h-8.2v-4.2c0-1.6,0.2-2.9,0.5-4.2
		c0.3-1.2,0.7-2.4,1.2-3.3c0.5-1,1.2-1.9,2.1-2.9c0.9-0.9,1.7-1.9,2.8-2.8l3.3-3.1c1.2-1,2.4-2.3,3.3-3.6c0.9-1.4,1.2-2.9,1.2-5
		c0-2.8-0.9-5-2.8-6.8c-1.7-1.7-4.2-2.4-6.9-2.4c-2.9,0-5.4,0.9-7.1,2.8c-1.7,1.9-2.8,4.2-3.1,6.9l-8.5-1c0.3-2.6,1-4.9,2.3-6.8
		c1-2.1,2.4-3.8,4.2-5.2c1.7-1.4,3.6-2.4,5.7-3.3c2.3-0.7,4.5-1,6.9-1c2.4,0,4.9,0.3,6.9,1c2.1,0.7,4,1.7,5.7,3.1
		c1.6,1.4,2.9,3.1,3.8,5.2s1.4,4.3,1.4,6.9c0,1.9-0.2,3.5-0.7,4.9c-0.3,1.4-1,2.8-1.7,3.8c-0.7,1.2-1.6,2.3-2.8,3.3
		c-1,1-2.3,2.1-3.5,3.1c-1.2,1-2.3,1.9-2.9,2.8c-0.9,0.9-1.4,1.6-1.9,2.4c-0.5,0.9-0.9,1.7-1,2.8c-0.2,1-0.3,2.3-0.3,3.6v2.9H249.2z
		 M251.5,124.2c0,1.6-0.5,2.9-1.7,4c-1,1.2-2.6,1.7-4.2,1.7c-1.6,0-3.1-0.5-4.2-1.7c-1.2-1.2-1.7-2.4-1.7-4c0-1.6,0.5-2.9,1.7-4.2
		c1-1.2,2.6-1.7,4.2-1.7c1.7,0,3.1,0.5,4.2,1.7C251,121.3,251.5,122.7,251.5,124.2z"/>
</g>
<g>
	<g>
		<path fill="#FFFFFF" stroke="#464646" stroke-width="3" stroke-miterlimit="10" d="M184.7,187.5v251.6h120.4V187.5H184.7z
			 M225.8,265h-24.1v-24.1h24.1V265z M225.8,234.7h-24.1v-24.1h24.1V234.7z M257.2,265h-24.1v-24.1h24.1V265z M257.2,234.7h-24.1
			v-24.1h24.1V234.7z M287.9,265h-24.1v-24.1h24.1V265z M287.9,234.7h-24.1v-24.1h24.1V234.7z"/>
	</g>
	<g>
		<polygon fill="#FFFFFF" stroke="#464646" stroke-width="3" stroke-miterlimit="10" points="350.7,161 138.9,161 138.9,187.5 
			153.8,187.5 153.8,439.2 185.4,439.2 185.4,187.5 305.8,187.5 305.8,439.2 337.5,439.2 337.5,187.5 350.7,187.5 		"/>
		<path fill="#B5B5B6" stroke="#464646" stroke-width="3" stroke-miterlimit="10" d="M339.4,441.1H304V189.4H187.5v251.6h-35.6
			V189.4H137v-30.4h215.6v30.5h-13.2V441.1L339.4,441.1z M307.7,437.3h27.7V185.6h13.2v-22.7H140.8v22.7h14.9v251.6h27.7V185.6
			h124.2V437.3L307.7,437.3z"/>
	</g>
	<g>
		<g>
			<rect x="235" y="287.2" fill="#FFFFFF" stroke="#464646" stroke-width="3" stroke-miterlimit="10" width="21.5" height="130.9"/>
			<path fill="#B5B5B6" stroke="#464646" stroke-width="3" stroke-miterlimit="10" d="M257.7,419.6h-24.1V286h24.1V419.6z
				 M236.2,417h18.9V288.5h-18.9V417z"/>
		</g>
		<g>
			
				<rect x="200.1" y="287.2" fill="#FFFFFF" stroke="#464646" stroke-width="3" stroke-miterlimit="10" width="21.5" height="130.9"/>
			<path fill="#B5B5B6" stroke="#464646" stroke-width="3" stroke-miterlimit="10" d="M222.9,419.6h-24.1V286h24.1V419.6z
				 M201.4,417h18.9V288.5h-18.9V417z"/>
		</g>
		<g>
			<rect x="268" y="287.2" fill="#FFFFFF" stroke="#464646" stroke-width="3" stroke-miterlimit="10" width="21.5" height="130.9"/>
			<path fill="#B5B5B6" stroke="#464646" stroke-width="3" stroke-miterlimit="10" d="M290.7,419.6h-24.1V286h24.1V419.6z
				 M269.2,417h18.9V288.5h-18.9V417z"/>
		</g>
	</g>
</g>
</svg>
