<?xml version="1.0" encoding="UTF-8" standalone="no"?>
<!DOCTYPE svg PUBLIC "-//W3C//DTD SVG 1.1//EN" "http://www.w3.org/Graphics/SVG/1.1/DTD/svg11.dtd">
<svg width="100%" height="100%" viewBox="0 0 270 270" version="1.1" xmlns="http://www.w3.org/2000/svg" xmlns:xlink="http://www.w3.org/1999/xlink" xml:space="preserve" xmlns:serif="http://www.serif.com/" style="fill-rule:evenodd;clip-rule:evenodd;stroke-linejoin:round;stroke-miterlimit:1.41421;">
    <g transform="matrix(1,0,0,1,-15.1019,-15.1019)">
        <path d="M62.3,282.3C37.7,282.3 17.7,262.3 17.7,237.7L17.7,62.3C17.7,37.7 37.7,17.7 62.3,17.7L237.8,17.7C262.4,17.7 282.4,37.7 282.4,62.3L282.4,237.8C282.4,262.4 262.4,282.4 237.8,282.4L62.3,282.4L62.3,282.3Z" style="fill:rgb(105,105,105);fill-rule:nonzero;"/>
    </g>
    <g transform="matrix(0.92531,0.232142,-0.232142,0.92531,-762.053,-213.291)">
        <path d="M917.228,188.375L946.642,188.375C939.587,203.427 938.669,208.103 944.881,214.315L925.79,233.407C916.669,224.287 912.691,213.575 913.964,201.569C914.455,196.956 915.685,192.552 917.228,188.375Z" style="fill:white;stroke:rgb(140,173,231);stroke-width:1.05px;"/>
    </g>
    <g transform="matrix(0.92531,0.232142,-0.232142,0.92531,-762.053,-213.291)">
        <path d="M917.228,188.375L946.642,188.375C939.587,173.323 938.669,168.646 944.881,162.435L925.79,143.343C916.669,152.463 912.691,163.175 913.964,175.181C914.455,179.794 915.685,184.198 917.228,188.375Z" style="fill:white;fill-rule:nonzero;stroke:rgb(140,173,231);stroke-width:1.05px;"/>
    </g>
    <g transform="matrix(0.92531,0.232142,-0.232142,0.92531,-762.053,-213.291)">
        <path d="M1100.09,102.092C1108.33,102.113 1116.61,94.801 1110.5,82.239C1105.73,72.449 1102.12,67.345 1100.76,62.159C1100.6,61.555 1099.75,61.514 1099.59,62.119C1098.22,67.311 1094.58,72.396 1089.76,82.185C1083.6,94.717 1091.86,102.071 1100.09,102.092Z" style="fill:white;fill-rule:nonzero;"/>
    </g>
    <g transform="matrix(0.92531,0.232142,-0.232142,0.92531,-762.053,-213.291)">
        <path d="M933.061,127.513L927.732,132.841C927.029,133.544 927.029,134.684 927.732,135.387L952.869,160.523C953.572,161.226 954.71,161.226 955.414,160.523L960.743,155.195L967.824,162.275C968.527,162.978 969.666,162.978 970.369,162.275L1017.59,115.053C1018.38,114.261 1018.73,113.115 1018.5,112.018L1015.44,97.308C1015.22,96.21 1015.56,95.064 1016.35,94.272L1026.02,84.603C1026.82,83.809 1027.16,82.665 1026.95,81.563L1024.67,69.878C1024.45,68.728 1023.88,67.667 1023.05,66.839L1022.26,66.051C1023.21,65.054 1024.22,64.077 1025.26,63.144C1027.52,61.124 1029.96,59.301 1032.49,57.739C1037.57,54.606 1043.04,52.537 1048.68,51.692C1054.33,50.84 1060.18,51.197 1066.07,52.669C1071.41,53.993 1076.76,56.215 1081.97,59.082C1082.86,59.569 1083.98,59.308 1084.48,58.435L1095.78,38.918C1096.28,38.055 1095.99,36.948 1095.12,36.456C1093.77,35.687 1092.38,34.952 1090.99,34.235C1085.2,31.273 1079.02,28.781 1072.43,27.084C1063.65,24.806 1054.1,24.056 1044.72,25.414C1035.34,26.738 1026.32,30.14 1018.43,34.937C1014.48,37.333 1010.79,40.063 1007.35,43.082C1005.93,44.332 1004.56,45.647 1003.22,47.008L1000.78,44.563C999.981,43.767 998.84,43.404 997.73,43.594L996.546,43.797L981.417,46.384C980.263,46.581 979.197,47.133 978.37,47.959L953.043,73.285C952.241,74.087 951.841,75.218 951.962,76.347L953.472,90.487C953.593,91.616 953.193,92.747 952.39,93.549L927.017,118.923C926.314,119.626 926.314,120.766 927.017,121.469L933.061,127.513ZM947.582,117.687L984.024,81.243C984.727,80.54 985.867,80.54 986.57,81.243L990.174,84.848C990.168,84.855 990.161,84.86 990.155,84.866L970.907,104.115L967.869,123.498C967.292,127.18 969.809,130.634 973.493,131.211C973.846,131.267 974.198,131.293 974.545,131.293C977.812,131.293 980.684,128.916 981.206,125.588L983.563,110.55L997.126,96.989L1000.42,112.281C1000.65,113.375 1000.31,114.522 999.521,115.313L972.365,142.471C971.662,143.173 970.523,143.173 969.82,142.471L947.582,120.232C946.878,119.53 946.878,118.39 947.582,117.687Z" style="fill:white;fill-rule:nonzero;"/>
    </g>
    <g transform="matrix(0.847696,-0.530483,0.530483,0.847696,-25.283,108.974)">
        <path d="M150.109,80.429L159.541,80.429C167.353,80.429 170.737,77.117 170.737,67.829C170.737,57.461 165.697,54.797 159.073,54.797C156.265,54.797 153.205,55.229 150.109,55.841L150.109,80.429ZM155.617,75.605L155.617,60.017C157.093,59.801 158.425,59.621 159.613,59.621C163.069,59.621 165.193,61.169 165.193,67.829C165.193,75.533 163.033,75.605 155.617,75.605Z" style="fill:rgb(105,105,105);fill-rule:nonzero;"/>
    </g>
</svg>
