<?xml version="1.0" encoding="UTF-8" standalone="no"?>
<!DOCTYPE svg PUBLIC "-//W3C//DTD SVG 1.1//EN" "http://www.w3.org/Graphics/SVG/1.1/DTD/svg11.dtd">
<svg width="100%" height="100%" viewBox="0 0 270 270" version="1.1" xmlns="http://www.w3.org/2000/svg" xmlns:xlink="http://www.w3.org/1999/xlink" xml:space="preserve" xmlns:serif="http://www.serif.com/" style="fill-rule:evenodd;clip-rule:evenodd;stroke-linejoin:round;stroke-miterlimit:2;">
    <g transform="matrix(1,0,0,1,-15.1019,-15.1019)">
        <path d="M62.3,282.3C37.7,282.3 17.7,262.3 17.7,237.7L17.7,62.3C17.7,37.7 37.7,17.7 62.3,17.7L237.8,17.7C262.4,17.7 282.4,37.7 282.4,62.3L282.4,237.8C282.4,262.4 262.4,282.4 237.8,282.4L62.3,282.4L62.3,282.3Z" style="fill:rgb(105,105,105);fill-rule:nonzero;"/>
    </g>
    <g transform="matrix(0.163539,0,0,0.163539,-97.1654,-72.122)">
        <path d="M1876.91,1017.67L1807.87,1017.67L1807.87,1086.71L1759.45,1086.71L1759.45,1017.67L1690.41,1017.67L1690.41,969.255L1759.45,969.255L1759.45,900.221L1807.87,900.221L1807.87,969.255L1876.91,969.255L1876.91,1017.67ZM1174.27,1661.93L1436.14,1327.87L1232.8,1327.87L1528.56,993.814L1400.71,1263.57L1627.15,1268.19L1174.27,1661.93ZM1141.96,1015.13L1072.92,1015.13L1024.51,1015.13L955.471,1015.13L955.471,966.71L1141.96,966.71L1141.96,1015.13ZM1843.02,858.666L1843.02,783.771L1721.88,783.771L1721.88,858.666L1107.59,858.666L1107.59,782.506L986.45,782.506L986.45,858.666L785.299,858.666L785.299,1749.86L2053.97,1749.86L2053.97,858.666L1843.02,858.666Z" style="fill:white;fill-rule:nonzero;"/>
    </g>
</svg>
