<?xml version="1.0" encoding="UTF-8" standalone="no"?>
<!DOCTYPE svg PUBLIC "-//W3C//DTD SVG 1.1//EN" "http://www.w3.org/Graphics/SVG/1.1/DTD/svg11.dtd">
<svg width="100%" height="100%" viewBox="0 0 270 270" version="1.1" xmlns="http://www.w3.org/2000/svg" xmlns:xlink="http://www.w3.org/1999/xlink" xml:space="preserve" xmlns:serif="http://www.serif.com/" style="fill-rule:evenodd;clip-rule:evenodd;stroke-linejoin:round;stroke-miterlimit:2;">
    <g transform="matrix(1,0,0,1,-15.1019,-15.1019)">
        <path d="M62.3,282.3C37.7,282.3 17.7,262.3 17.7,237.7L17.7,62.3C17.7,37.7 37.7,17.7 62.3,17.7L237.8,17.7C262.4,17.7 282.4,37.7 282.4,62.3L282.4,237.8C282.4,262.4 262.4,282.4 237.8,282.4L62.3,282.4L62.3,282.3Z" style="fill:rgb(105,105,105);fill-rule:nonzero;"/>
    </g>
    <g transform="matrix(2.74932,0,0,2.74932,-815.413,-824.09)">
        <path d="M364.036,379.195L366.16,379.195C367.131,379.195 367.923,379.987 367.923,380.957L367.923,384.695L318.663,384.695L318.663,380.957C318.663,379.987 319.456,379.195 320.426,379.195L343.129,379.195L343.129,377.216C343.129,376.981 343.095,376.898 342.85,376.898L322.277,376.899C322.23,376.621 322.186,376.371 322.186,376.083L322.186,342.972C322.186,341.235 323.604,339.815 325.342,339.815L361.245,339.815C362.982,339.815 364.401,341.235 364.401,342.972L364.401,377.722C364.401,378.241 364.274,378.744 364.036,379.195ZM372.686,328.494L371.58,328.494C371.475,328.646 371.393,328.895 371.336,329.171L370.518,333.184C370.521,333.279 370.57,333.372 370.657,333.415L372.686,333.415L372.686,328.494ZM371.465,326.243L372.62,326.243L367.688,314.953L372.261,312.959L377.685,325.374L377.685,335.666L370.646,335.666C370.515,335.666 370.373,335.651 370.224,335.619C369.708,335.515 369.215,335.214 368.86,334.794C368.501,334.371 368.267,333.819 368.267,333.211C368.267,333.073 368.281,332.92 368.315,332.752L369.137,328.723C369.261,328.112 369.482,327.522 369.824,327.083C370.227,326.566 370.764,326.243 371.465,326.243ZM367.081,347.553L365.427,347.553L365.427,343.252L371.384,343.252L371.384,372.031L373.028,372.031L373.028,337.087L377.33,337.087L377.33,371.765C377.33,374.099 375.854,376.319 373.335,376.332L367.081,376.332L367.081,347.553ZM324.997,313.258L361.589,313.258C363.265,313.258 364.401,314.828 364.401,316.415L364.401,334.444C364.401,336.032 363.265,337.601 361.589,337.601L324.997,337.601C323.321,337.601 322.186,336.032 322.186,334.444L322.186,316.415C322.186,314.827 323.321,313.258 324.997,313.258ZM327.125,318.57L327.132,332.291L359.461,332.291L359.455,318.57L327.125,318.57Z" style="fill:white;"/>
    </g>
    <g transform="matrix(1,0,0,1,-0.0997269,-1.71953)">
        <rect x="83.712" y="123.676" width="36.509" height="81.389" style="fill:rgb(105,105,105);"/>
    </g>
</svg>
