<?xml version="1.0" encoding="utf-8"?>
<!-- Generator: Adobe Illustrator 19.2.1, SVG Export Plug-In . SVG Version: 6.00 Build 0)  -->
<svg version="1.1" id="Layer_1" xmlns="http://www.w3.org/2000/svg" xmlns:xlink="http://www.w3.org/1999/xlink" x="0px" y="0px"
	 viewBox="0 0 500 500" style="enable-background:new 0 0 500 500;" xml:space="preserve">
<style type="text/css">
	.st0{fill:#FFFFFF;stroke:#464646;stroke-width:5;stroke-miterlimit:10;}
	.st1{display:none;fill:#464646;}
	.st2{enable-background:new    ;}
	.st3{fill:#464646;}
</style>
<g>
	<path class="st0" d="M76.7,282v44.7v10.9v76.4h29.8c-0.3,2.1-0.4,4.2-0.4,6.3c0,26.8,21.8,48.7,48.7,48.7s48.7-21.8,48.7-48.7
		c0-2.1-0.3-4.2-0.4-6.3h37.7c-0.3,2.1-0.4,4.2-0.4,6.3c0,27.9,23.5,50.3,52,48.7c24.3-1.6,44-21.6,45.3-45.9
		c1.3-23.5-14.1-43.4-35.2-49.4v-26h6l46.9,68.9l0.6-0.4v-21.8l-40-66.9V327h-0.3l0,0h-0.3h-13.5l-28.7-110.7h-121l-13.2,65.8H76.7
		V282z M194.7,316.3c-5-17.6-19.8-31.1-38-34.2l11.3-53.2h88.1l21.6,87.2L194.7,316.3z"/>
	<polygon class="st0" points="361.7,434.4 361.7,367.9 444.8,434.4 	"/>
</g>
<g>
	<path class="st1" d="M148,111.7h13.3l27.5,42h0.2v-42h10v56.7h-12.8l-28-43.5H158v43.5h-10V111.7z"/>
	<path class="st1" d="M211.7,111.7h37.5v9.2h-27.5v14h26v9.2h-26v15.3h28.8v9.2h-38.8V111.7z"/>
	<path class="st1" d="M254.2,111.7h11l10.7,40.8h0.2l12.7-40.8h10l12.5,40.8h0.2l11.2-40.8h10.2l-16.5,56.7h-9.5l-13.2-43.2h-0.2
		l-13.2,43.2H271L254.2,111.7z"/>
</g>
<g class="st2">
	<path class="st3" d="M114.9,76.1c-2,0.9-4,5-4,6.4c0,3.5,3.8,13.9,3.8,16s-5.8,5.6-8.2,5.6c-3.1,0-13.1-15-13.1-18.8
		c0-5.3,11.9-18.9,16-20.5c10.4-3.7,17.7-5.8,33-10.8c1.7-0.6,7.8-6.4,9.6-6.4c2.6,0,11.1,6.3,11.1,8.5c0,1.4-7.5,7.8-9.2,12.2
		c-3.7,9.6-17.6,58.6-17.6,66.1c0,4.9,6,9,9.5,9c4.4,0,21.7-13.7,23.4-19.2c5.5-18.6,14-48.5,19.1-64.1c1.7-4.9,10.1-12.5,11.8-12.5
		c2.6,0,10.8,6.3,10.8,8.5c0,1.4-6.4,6.9-7.5,11c-5.8,21.1-19.2,62.1-19.2,71.9c0,2,4.4,6.4,4.4,7.8c0,2.3-8.7,9.2-11.3,9.2
		c-1.8,0-10.2-9-10.2-14.2c0,0-16.5,14.2-22.4,14.2c-7.5,0-27.2-10.4-27.2-20.3c0-8.2,13.7-55.3,16.2-62.3c1.5-4.6,6-9,6-9
		S125.4,70.9,114.9,76.1z"/>
	<path class="st3" d="M266.3,120c0,0,1.4-2.7,3.4-2.7s5.2,2.4,5.2,4.3s-2,5.3-2,5.3c-8.4,15.3-23.2,29.2-46.1,29.2
		c-15.3,0-31.3-16.3-31.3-25.8c0-7.5,12.7-13.4,12.7-13.4s14.7-22.4,19.8-31c0.9-1.7,2.7-3.5,4.9-3.5c2,0,11.1,6,11.1,8.7
		c0,14.8,5.8,28.1,5.8,39.5c0,5.8-4.7,12.4-4.7,12.4C251.7,139.9,258.8,133.8,266.3,120z M213.8,129.7c0,7.6,4.9,15.6,9,15.6
		c5.2,0,9.2-5.3,9.2-10.8c0-11-3.5-22.4-3.5-30.7C228.5,103.7,213.8,124.6,213.8,129.7z"/>
	<path class="st3" d="M294.7,84.3c7.8,0,21.8,7.6,21.8,14.2c0,7.6-9.8,32.1-19.7,32.1c-6.9,0-14.3-2.1-14.3-2.1s-1.2,2.6-1.2,7.5
		c0,3.7,6.6,9.3,13.1,9.3c8.2,0,20.3-5.6,30.2-25.2c0,0,1.2-2.7,3.2-2.7c2,0,5.2,2.4,5.2,4.3s-1.8,5.3-1.8,5.3
		c-10.4,19.7-23.7,29.2-36,29.2c-13.4,0-31.9-9.9-31.9-21.8C263.3,117,280.5,84.3,294.7,84.3z M304.5,100c0-2.1-2.4-3.8-4.6-3.8
		c-6,0-15,18.2-16.3,25.3C298.2,121.6,304.5,104.2,304.5,100z"/>
	<path class="st3" d="M358.3,145.8c0,0-11.1,10.2-17.9,10.2c-9.3,0-19.8-10.5-19.8-16.9c0-20.1,16.9-54.8,33-54.8
		c8.4,0,15.9,6.3,15.9,6.3s6.9-24.7,9.2-31.9c0.8-2.3,2.7-3.4,5-3.4c1.8,0,11.3,5.8,11.3,8.4c0,3.8-2.7,10.8-8.7,32.5
		c-4.3,15.6-11,37.7-11,45c0,2,2.7,4.3,4.1,4.3c4.6,0,12.8-11.8,20.5-25.5c0,0,1.2-2.7,3.2-2.7c2,0,5.2,2.4,5.2,4.3s-2,5.3-2,5.3
		c-8.4,15.3-17.4,29.2-28.4,29.2C371,156.1,360.5,149,358.3,145.8z M358.2,96.5c-8.4,0-19.8,30.7-19.8,40.1c0,4.7,2.4,7.6,5.6,7.6
		c4.7,0,12.8-10.1,14.7-15.3c3.5-9.9,5.6-18,7.9-28.2C366.6,100.8,361.8,96.5,358.2,96.5z"/>
</g>
</svg>
