<?xml version="1.0" encoding="utf-8"?>
<!-- Generator: Adobe Illustrator 19.2.1, SVG Export Plug-In . SVG Version: 6.00 Build 0)  -->
<svg version="1.1" id="Layer_1" xmlns="http://www.w3.org/2000/svg" xmlns:xlink="http://www.w3.org/1999/xlink" x="0px" y="0px"
	 viewBox="0 0 500 500" style="enable-background:new 0 0 500 500;" xml:space="preserve">
<style type="text/css">
	.st0{fill:#FFFFFF;stroke:#464646;stroke-width:5;stroke-miterlimit:10;}
	.st1{display:none;fill:#464646;}
	.st2{enable-background:new    ;}
	.st3{fill:#464646;}
</style>
<g>
	<path class="st0" d="M76.7,285v44.7v10.9V417h29.8c-0.3,2.1-0.4,4.2-0.4,6.3c0,26.8,21.8,48.7,48.7,48.7s48.7-21.8,48.7-48.7
		c0-2.1-0.3-4.2-0.4-6.3h37.7c-0.3,2.1-0.4,4.2-0.4,6.3c0,27.9,23.5,50.3,52,48.7c24.3-1.6,44-21.6,45.3-45.9
		c1.3-23.5-14.1-43.4-35.2-49.4v-26h6l46.9,68.9l0.6-0.4v-21.8l-40-66.9V330h-0.3l0,0h-0.3h-13.5l-28.7-110.7h-121L139,285.1H76.7
		V285z M194.7,319.3c-5-17.6-19.8-31.1-38-34.2l11.3-53.2h88.1l21.6,87.2L194.7,319.3z"/>
	<polygon class="st0" points="361.7,437.4 361.7,370.9 444.8,437.4 	"/>
</g>
<g>
	<path class="st1" d="M148,111.7h13.3l27.5,42h0.2v-42h10v56.7h-12.8l-28-43.5H158v43.5h-10V111.7z"/>
	<path class="st1" d="M211.7,111.7h37.5v9.2h-27.5v14h26v9.2h-26v15.3h28.8v9.2h-38.8V111.7z"/>
	<path class="st1" d="M254.2,111.7h11l10.7,40.8h0.2l12.7-40.8h10l12.5,40.8h0.2l11.2-40.8h10.2l-16.5,56.7h-9.5l-13.2-43.2h-0.2
		l-13.2,43.2H271L254.2,111.7z"/>
</g>
<g class="st2">
	<path class="st3" d="M167.7,64.1c5.3-4.9,18.2-15.4,25.9-15.4c8.2,0,22.4,9.3,22.4,16c0,8.2-19.1,67.2-19.1,75.4
		c0,2,4.6,6.4,4.6,7.8c0,2.3-9.8,9.2-12.4,9.2c-1.7,0-10.5-9.3-10.5-14.5c0-10.7,18.5-68.8,18.5-73.9c0-2.6-3.1-7.5-6.9-7.5
		c-5.8,0-24.6,14-27,21.8c-6.7,21.8-17.2,57.8-17.2,71.1c0,1.7-0.6,2.9-2.7,2.9c-2.7,0-15-2.4-15-6.7c0-16.5,21.2-79.2,21.2-87
		c0-2-2-4.6-4.1-4.6c-2.6,0-12.7,9.5-21.1,17.9c-0.8,0.8-2.4,5-2.4,6.4c0,3.5,3.8,13.9,3.8,16s-5.8,5.6-8.2,5.6
		c-3.1,0-13.1-15-13.1-18.8c0-4,7.5-16.6,10.8-19.1c9.5-6.7,26.1-18.2,32.8-18.2C154.4,48.7,167.6,57.9,167.7,64.1z"/>
	<path class="st3" d="M244.5,85.3c7.8,0,21.8,7.6,21.8,14.2c0,7.6-9.8,32.1-19.7,32.1c-6.9,0-14.3-2.1-14.3-2.1s-1.2,2.6-1.2,7.5
		c0,3.7,6.6,9.3,13.1,9.3c8.2,0,20.3-5.6,30.2-25.2c0,0,1.2-2.7,3.2-2.7s5.2,2.4,5.2,4.3c0,1.8-1.8,5.3-1.8,5.3
		c-10.4,19.7-23.7,29.2-36,29.2c-13.4,0-31.9-9.9-31.9-21.8C213,118,230.3,85.3,244.5,85.3z M254.3,101c0-2.1-2.4-3.8-4.6-3.8
		c-6,0-15,18.2-16.3,25.3C248,122.6,254.3,105.2,254.3,101z"/>
	<path class="st3" d="M326.1,140.7c0,2.9,4,5,6.3,5c1.5,0,3.4-1.2,5.2-3.4c-1.5-0.9-2.4-2.1-2.4-3.4c0-3.2,6.9-9.9,10.2-9.9h0.2
		c6.4-13.6,12.1-31.9,12.5-40.4c0.2-2.3,1.1-3.4,3.7-3.4c2.7,0,13,4.6,13,8.7c0,6.9-6.1,26.7-15.9,42.3c1.7,0.8,3.4,1.4,5.3,1.4
		c10.2,0,18.5-16.6,18.5-16.6s1.5-2.7,3.4-2.7c2.1,0,5.3,2.4,5.3,4.3c0,1.8-2.1,5.3-2.1,5.3s-11,19.8-24.6,19.8
		c-3.2,0-8.4-0.3-13.4-1.2c-5.8,6.4-12.2,10.5-19.2,10.5c-11.1,0-22-6.3-22.9-11.3c0,0-12.8,11.3-20,11.3c-7.6,0-19.5-8.1-19.5-14.8
		c0-7.9,10.1-44,13.3-54c0.9-2.1,2-2.9,3.4-2.9c2.9,0,13,5.3,13,8.1c0,1.1-0.3,2.7-0.6,3.7c-1.4,4.7-11,38.6-11,43
		c0,2.3,3.1,4.9,5.3,4.9c3.7,0,13.6-8.2,15.6-14c5-13.7,9.9-32.7,13-42.4c0.6-2.3,1.8-3.2,3.1-3.2c3.1,0,13.1,5.3,13.1,8.1
		c0,1.1-0.3,2.7-0.6,3.7C335.9,101.8,326.1,133.7,326.1,140.7z"/>
</g>
</svg>
