<?xml version="1.0" encoding="utf-8"?>
<!-- Generator: Adobe Illustrator 19.0.0, SVG Export Plug-In . SVG Version: 6.00 Build 0)  -->
<svg version="1.1" id="Layer_1" xmlns="http://www.w3.org/2000/svg" xmlns:xlink="http://www.w3.org/1999/xlink" x="0px" y="0px"
	 viewBox="0 0 300 300" style="enable-background:new 0 0 300 300;" xml:space="preserve">
<style type="text/css">
	.st0{fill:#FFFFFF;stroke:#000000;stroke-width:5;stroke-miterlimit:10;}
</style>
<g>
	<g>
		<path class="st0" d="M150.4,216.5c-5.7,0-10.5,2-14.2,5.8s-5.6,8.5-5.6,13.8c0,5.2,1.9,9.7,5.8,13.6c3.8,3.8,8.6,5.8,14.1,5.8
			c5.7,0,10.5-2,14.3-6c3.7-3.9,5.6-8.5,5.6-13.6c0-5.3-1.9-9.9-5.7-13.7C160.9,218.4,156.1,216.5,150.4,216.5z"/>
		<path class="st0" d="M203.7,86.3c-3-6.4-7.1-11.8-12.3-16.2c-5.2-4.3-11.2-7.6-17.9-9.8S159.6,57,151.9,57c-7.7,0-15,1.2-21.7,3.4
			c-6.8,2.3-12.9,5.7-18.1,10.1s-9.7,9.9-13.1,16.2c-4.4,7.9-6.4,20.6-6.9,24.3l-0.3,2.3h29.7l0.2-1.8c0.8-7.7,3.8-14.3,8.8-19.7
			c5-5.3,11.5-7.9,19.9-7.9c8,0,14.6,2.4,19.6,7.1s7.5,10.9,7.5,18.9c0,5.8-1.2,10.6-3.5,14.3c-2.5,3.8-5.6,7.4-9.4,10.7l-9.9,9.3
			c-3,2.9-5.8,5.7-8.3,8.5c-2.5,2.9-4.6,5.9-6.4,9c-1.8,3.2-3.1,6.8-4.1,10.6c-0.9,3.9-1.4,8.2-1.4,13v14.8h29.1v-11.3
			c0-4.3,0.3-7.9,0.9-10.8c0.6-2.8,1.5-5.4,2.8-7.7s3.2-4.6,5.5-6.9c2.4-2.3,5.4-5.1,9-8.1c3.8-3.2,7.3-6.4,10.5-9.4
			c3.3-3.1,6.1-6.5,8.4-10.1c2.3-3.6,4.1-7.7,5.4-12.1c1.3-4.4,1.9-9.7,1.9-15.5C208.2,100.1,206.7,92.6,203.7,86.3z"/>
	</g>
</g>
</svg>
