<svg viewBox="0 0 237.83 237.83"><path d="M202.62,204.16l-13-5.82,4.53,13.54-12.41-7,3.2,13.91-11.68-8.21,1.84,14.16-10.83-9.3.46,14.27-9.88-10.31-.91,14.25-8.85-11.21-2.28,14.1-7.72-12-3.63,13.81-6.53-12.7L120,239l-5.27-13.27-6.22,12.85-4-13.71-7.43,12.19-2.63-14-8.57,11.42-1.25-14.22L75,230.75l.12-14.28L64.5,226l1.5-14.2-11.47,8.5,2.86-14-12.24,7.34L49.35,200l-12.9,6.12L42,193l-13.43,4.85,6.75-12.58-13.84,3.53,7.93-11.87L15.25,179.1l9-11L10,168.86l10.06-10.13-14.26-.56,11-9.12L2.67,147.11l11.82-8L.6,135.81,13.14,129-.37,124.35l13.14-5.59-13-5.9,13.62-4.3L1,101.43l14-3L3.36,90.18l14.19-1.6L6.78,79.21,21.06,79,11.24,68.61l14.23,1.16L16.71,58.5,30.76,61,23.12,49l13.75,3.87L30.43,40.09l13.3,5.18L38.56,32,51.3,38.4,47.43,24.66l12.06,7.63L57,18.24,68.24,27,67.08,12.78l10.37,9.81.22-14.28,9.38,10.77,1.6-14.19,8.29,11.63,3-14L107,14.92l4.3-13.62,5.9,13,5.59-13.14,4.62,13.51,6.83-12.54,3.3,13.9,8-11.82,1.94,14.14,9.11-11,.57,14.27,10.13-10.07-.81,14.26,11-9-2.18,14.11L187.26,23,183.73,36.8l12.58-6.75-4.85,13.43L204.63,38l-6.13,12.9,13.65-4.2-7.34,12.24,14-2.86L210.3,67.54,224.5,66l-9.56,10.6,14.28-.12-10.54,9.63,14.22,1.26L221.48,96l14,2.62L223.32,106,237,110l-12.85,6.22,13.27,5.27-13.4,5,12.7,6.52L223,136.58l12,7.72-14.09,2.29,11.21,8.84-14.25.91,10.3,9.89-14.27-.47,9.3,10.83L209,174.75l8.21,11.68-13.92-3.2,7,12.42-13.54-4.53Z" transform="translate(0.37 -1.16)" style="fill:#35311c"/><path d="M78,130.61a10.23,10.23,0,0,1-3.4,8.1,10.38,10.38,0,0,1-7.29,2.76A10.7,10.7,0,0,1,60,138.8a11,11,0,0,1-3.56-8.19A9.68,9.68,0,0,1,59.47,123a10.75,10.75,0,0,1,7.69-3.12h3.65v-3.64a3.23,3.23,0,0,0-1.13-2.61,4,4,0,0,0-2.68-1q-3.4,0-3.4,3.57H56.39a11,11,0,0,1,11.26-10.78,10.13,10.13,0,0,1,7.13,2.68,10.49,10.49,0,0,1,3.24,8.1Zm-7.21.08v-3.64H67.16q-3.15,0-3.56,3.64,0,3.57,3.56,3.57a3.76,3.76,0,0,0,2.56-1A3.34,3.34,0,0,0,70.81,130.69Z" transform="translate(0.37 -1.16)" style="fill:#fdfdfe"/><path d="M104.92,130.67a10.27,10.27,0,0,1-3.4,8.12,11,11,0,0,1-7.46,2.68,10.65,10.65,0,0,1-7.37-2.68,10.27,10.27,0,0,1-3.4-8.12V91H90.5v14.42h3.56a10.75,10.75,0,0,1,7.38,2.92,10.24,10.24,0,0,1,3.48,7.88Zm-7.21,0V116.2a3.47,3.47,0,0,0-1-2.52,3.55,3.55,0,0,0-2.6-1.06H90.5v18.06q0,3.58,3.65,3.58T97.71,130.68Z" transform="translate(0.37 -1.16)" style="fill:#fdfdfe"/><path d="M131.82,130.67a10.27,10.27,0,0,1-3.4,8.12,10.94,10.94,0,0,1-7.45,2.68,10.66,10.66,0,0,1-7.38-2.68,10.27,10.27,0,0,1-3.4-8.12V116.21a10.41,10.41,0,0,1,3.32-8.12,10.7,10.7,0,0,1,7.37-2.68,10.87,10.87,0,0,1,7.54,2.76,10.2,10.2,0,0,1,3.4,8Zm-7.21,0V116.2c0-2.38-1.19-3.58-3.56-3.58s-3.65,1.2-3.65,3.58v14.48q0,3.58,3.65,3.58T124.61,130.68Z" transform="translate(0.37 -1.16)" style="fill:#fdfdfe"/><path d="M158.73,130.67a10.28,10.28,0,0,1-3.41,8.12,10.93,10.93,0,0,1-7.45,2.68,10.66,10.66,0,0,1-7.38-2.68,10.31,10.31,0,0,1-3.4-8.12V105.41h7.21v25.27a3.28,3.28,0,0,0,1.1,2.64,3.78,3.78,0,0,0,2.55.94c2.38,0,3.56-1.19,3.56-3.58V105.41h7.22Z" transform="translate(0.37 -1.16)" style="fill:#fdfdfe"/><path d="M178.42,141.47h-3.65A10.74,10.74,0,0,1,164,130.67V98.2h7.21v7.21h7.22v7.21H171.2v18.06a3.36,3.36,0,0,0,1.06,2.6,3.57,3.57,0,0,0,2.51,1h3.65Z" transform="translate(0.37 -1.16)" style="fill:#fdfdfe"/></svg>
