<svg id="Layer_1" data-name="Layer 1" xmlns="http://www.w3.org/2000/svg" viewBox="0 0 237.83 237.83"><title>about</title><path d="M203,203l-13-5.81,4.53,13.54-12.42-7,3.2,13.91-11.68-8.21,1.84,14.16-10.83-9.3,0.47,14.27-9.88-10.3-0.91,14.25-8.84-11.21-2.28,14.09-7.72-12-3.63,13.81-6.53-12.7-4.95,13.39L115,224.56l-6.22,12.85-4-13.72-7.43,12.19-2.62-14-8.57,11.42L85,219l-9.63,10.54,0.12-14.28-10.6,9.56,1.5-14.2L54.9,219.16l2.86-14-12.24,7.34,4.2-13.65L36.82,205l5.5-13.18-13.43,4.85,6.74-12.58L21.8,187.63l7.93-11.87-14.11,2.18,9-11.05-14.25.81,10.06-10.13L6.2,157l11-9.11L3,145.95l11.82-8L1,134.64l12.54-6.83L0,123.19l13.14-5.59-13-5.9,13.62-4.29L1.39,100.27l14-3L3.73,89l14.19-1.6L7.15,78l14.28-.22L11.61,67.45l14.23,1.16L17.08,57.34l14.05,2.53L23.49,47.8l13.74,3.87L30.8,38.93,44.1,44.1,38.93,30.8l12.74,6.44L47.8,23.49l12.06,7.64L57.34,17.08l11.27,8.77L67.45,11.61l10.37,9.81L78,7.15l9.38,10.77L89,3.73l8.29,11.62,3-14,7.13,12.37L111.7,0.14l5.9,13L123.19,0l4.62,13.51L134.64,1l3.3,13.89,8-11.82,1.94,14.15L157,6.2l0.57,14.27L167.7,10.4l-0.81,14.25,11.05-9-2.18,14.11,11.87-7.93-3.54,13.83,12.58-6.74-4.85,13.43L205,36.82l-6.13,12.9,13.65-4.2-7.34,12.24,14-2.86-8.49,11.48,14.2-1.5-9.56,10.6,14.28-.12L219,85l14.22,1.26-11.42,8.57,14,2.62-12.19,7.43,13.72,4L224.56,115l13.27,5.27-13.39,4.95,12.7,6.53-13.81,3.63,12,7.72-14.09,2.28,11.21,8.84-14.25.91,10.3,9.88-14.27-.47,9.3,10.83-14.16-1.84,8.21,11.68-13.91-3.2,7,12.42L197.18,190Z" style="fill:#824b1f"/><path d="M82,129.61a10.25,10.25,0,0,1-3.4,8.1,10.39,10.39,0,0,1-7.29,2.75A10.67,10.67,0,0,1,64,137.8a11,11,0,0,1-3.57-8.18A9.7,9.7,0,0,1,63.47,122a10.72,10.72,0,0,1,7.7-3.12h3.65v-3.65a3.23,3.23,0,0,0-1.13-2.61,4,4,0,0,0-2.67-1q-3.4,0-3.4,3.57H60.39a11,11,0,0,1,11.26-10.78,10.17,10.17,0,0,1,7.13,2.67,10.51,10.51,0,0,1,3.24,8.1v14.42Zm-7.21.08V126H71.16q-3.16,0-3.56,3.65,0,3.57,3.56,3.57a3.72,3.72,0,0,0,2.55-1A3.3,3.3,0,0,0,74.81,129.69Z" style="fill:#fdfdfe"/><path d="M108.92,129.67a10.29,10.29,0,0,1-3.4,8.12,11,11,0,0,1-7.46,2.68,10.67,10.67,0,0,1-7.37-2.68,10.28,10.28,0,0,1-3.4-8.12V90H94.5v14.42h3.56a10.71,10.71,0,0,1,7.37,2.92,10.22,10.22,0,0,1,3.48,7.88v14.46Zm-7.21,0V115.2a3.45,3.45,0,0,0-1.05-2.52,3.52,3.52,0,0,0-2.59-1.06H94.5v18.06q0,3.58,3.65,3.58T101.71,129.68Z" style="fill:#fdfdfe"/><path d="M135.83,129.67a10.28,10.28,0,0,1-3.4,8.12,11,11,0,0,1-7.46,2.68,10.66,10.66,0,0,1-7.37-2.68,10.29,10.29,0,0,1-3.4-8.12V115.21a10.4,10.4,0,0,1,3.32-8.12,10.66,10.66,0,0,1,7.37-2.68,10.88,10.88,0,0,1,7.54,2.76,10.19,10.19,0,0,1,3.4,8v14.46Zm-7.21,0V115.2q0-3.58-3.56-3.58t-3.65,3.58v14.48q0,3.58,3.65,3.58T128.61,129.68Z" style="fill:#fdfdfe"/><path d="M162.73,129.67a10.28,10.28,0,0,1-3.4,8.12,11,11,0,0,1-7.46,2.68,10.66,10.66,0,0,1-7.37-2.68,10.28,10.28,0,0,1-3.4-8.12V104.41h7.21v25.27a3.28,3.28,0,0,0,1.09,2.64,3.81,3.81,0,0,0,2.55.93q3.56,0,3.57-3.58V104.41h7.21v25.26Z" style="fill:#fdfdfe"/><path d="M182.42,140.47h-3.65A10.73,10.73,0,0,1,168,129.67V97.2h7.21v7.21h7.21v7.21H175.2v18.06a3.38,3.38,0,0,0,1.05,2.6,3.58,3.58,0,0,0,2.51,1h3.65v7.21Z" style="fill:#fdfdfe"/></svg>