<svg id="Layer_1" data-name="Layer 1" xmlns="http://www.w3.org/2000/svg" viewBox="0 0 240.62 240.67"><title>about3</title><path id="sticker" d="M204.4,204.4l-13-5.81,4.53,13.54-12.42-7,3.2,13.91L175,210.83,176.87,225,166,215.69l.47,14.27-9.88-10.3-.91,14.25-8.84-11.21-2.28,14.09-7.72-12-3.63,13.81-6.53-12.7-5,13.39L116.4,226l-6.22,12.85-4-13.72-7.43,12.19-2.62-14L87.56,234.7,86.4,220.4l-9.63,10.54.12-14.28-10.6,9.56,1.5-14.2L56.3,220.56l2.86-14L46.92,213.9l4.2-13.65-12.9,6.15,5.5-13.18-13.43,4.85L37,185.49,23.2,189l7.93-11.87L17,179.34l9-11.05-14.25.81L21.83,159,7.6,158.4l11-9.11L4.4,147.35l11.82-8L2.4,136l12.54-6.83L1.4,124.59,14.54,119l-13-5.9,13.62-4.29L2.79,101.67l14-3L5.13,90.4l14.19-1.6L8.55,79.4l14.28-.22L13,68.85,27.24,70,18.48,58.74l14.05,2.53L24.89,49.2l13.74,3.87L32.2,40.33,45.5,45.5,40.33,32.2l12.74,6.44L49.2,24.89l12.06,7.64-2.52-14L70,27.25,68.85,13l10.37,9.81L79.4,8.55l9.38,10.77L90.4,5.13l8.29,11.62,3-14,7.13,12.37L113.1,1.54l5.9,13L124.59,1.4l4.62,13.51L136,2.4l3.3,13.89,8-11.82,1.94,14.15,9.12-11L159,21.87,169.1,11.8l-.81,14.25,11.05-9-2.18,14.11L189,23.23l-3.54,13.83,12.58-6.74-4.85,13.43,13.18-5.53-6.13,12.9,13.65-4.2-7.34,12.24,14-2.86-8.49,11.48,14.2-1.5-9.56,10.6L231,76.76,220.4,86.4l14.22,1.26L223.2,96.23l14,2.62L225,106.28l13.72,4L226,116.4l13.27,5.27-13.39,5,12.7,6.53-13.81,3.63,12,7.72-14.09,2.28,11.21,8.84-14.25.91,10.3,9.88-14.27-.47,9.3,10.83-14.16-1.84L219,186.61l-13.91-3.2,7,12.42-13.49-4.43Z" transform="translate(0 0)" style="stroke:#524d21;stroke-miterlimit:10"/><path d="M89.13,123.07a7.74,7.74,0,0,1-2.56,6.11,7.85,7.85,0,0,1-5.5,2.07,8.05,8.05,0,0,1-5.56-2,8.31,8.31,0,0,1-2.69-6.17,7.33,7.33,0,0,1,2.32-5.78A8.09,8.09,0,0,1,81,114.94H83.7v-2.75a2.45,2.45,0,0,0-.86-2,3,3,0,0,0-2-.72c-1.71,0-2.56.9-2.56,2.69H72.82a8.3,8.3,0,0,1,8.49-8.13,7.7,7.7,0,0,1,5.38,2,7.91,7.91,0,0,1,2.44,6.11Zm-5.43.06v-2.75H81c-1.59,0-2.49.91-2.69,2.75A2.38,2.38,0,0,0,81,125.82a2.8,2.8,0,0,0,1.92-.74A2.49,2.49,0,0,0,83.7,123.13Z" transform="translate(0 0)" style="fill:#fff"/><path d="M110.34,123.11a7.76,7.76,0,0,1-2.57,6.12,8.25,8.25,0,0,1-5.62,2,8.07,8.07,0,0,1-5.56-2A7.76,7.76,0,0,1,94,123.12V93.19h5.44v10.87h2.69a8.07,8.07,0,0,1,5.56,2.21,7.7,7.7,0,0,1,2.63,5.94Zm-5.44,0V112.2a2.59,2.59,0,0,0-.8-1.9,2.66,2.66,0,0,0-1.95-.8H99.46v13.62c0,1.8.92,2.7,2.75,2.7A2.38,2.38,0,0,0,104.9,123.12Z" transform="translate(0 0)" style="fill:#fff"/><path d="M131.54,123.11a7.76,7.76,0,0,1-2.57,6.12,8.25,8.25,0,0,1-5.62,2,8,8,0,0,1-5.56-2,7.76,7.76,0,0,1-2.57-6.12v-10.9a7.88,7.88,0,0,1,2.51-6.13,8.08,8.08,0,0,1,5.56-2,8.2,8.2,0,0,1,5.68,2.09,7.69,7.69,0,0,1,2.57,6.06Zm-5.44,0V112.2a2.38,2.38,0,0,0-2.69-2.7c-1.83,0-2.75.9-2.75,2.7v10.92c0,1.8.92,2.7,2.75,2.7A2.38,2.38,0,0,0,126.1,123.12Z" transform="translate(0 0)" style="fill:#fff"/><path d="M152.74,123.11a7.75,7.75,0,0,1-2.56,6.12,8.28,8.28,0,0,1-5.63,2,8,8,0,0,1-5.56-2,7.75,7.75,0,0,1-2.56-6.12v-19h5.44v19.06a2.47,2.47,0,0,0,.82,2,2.88,2.88,0,0,0,1.93.71,2.38,2.38,0,0,0,2.68-2.7V104.06h5.44Z" transform="translate(0 0)" style="fill:#fff"/><path d="M168.51,131.25h-2.75a8.08,8.08,0,0,1-8.13-8.14V98.63h5.44v5.43h5.44v5.44h-5.44v13.62a2.53,2.53,0,0,0,.79,2,2.7,2.7,0,0,0,1.9.74h2.75Z" transform="translate(0 0)" style="fill:#fff"/></svg>