<svg xmlns="http://www.w3.org/2000/svg" viewBox="0 0 240.62 240.62"><title>about</title><path d="M203,203l-13-5.81,4.53,13.54-12.42-7.05,3.21,13.92-11.68-8.21,1.84,14.15-10.83-9.3.46,14.27-9.88-10.3-.91,14.25-8.85-11.21-2.28,14.09-7.72-12-3.63,13.81-6.53-12.7-4.94,13.4-5.27-13.27-6.22,12.85-4-13.72-7.42,12.2-2.63-14-8.57,11.42L85,219.05l-9.64,10.54.13-14.28-10.61,9.56,1.5-14.2L54.9,219.16l2.86-14-12.24,7.35,4.2-13.65L36.82,205l5.5-13.18-13.43,4.86,6.75-12.59L21.8,187.63l7.93-11.87-14.11,2.18,9-11.05-14.26.81,10.06-10.13L6.2,157l11-9.11L3,146l11.82-8L1,134.64l12.54-6.83L0,123.19l13.14-5.59-13-5.9,13.62-4.3L1.39,100.27l14-3L3.73,89l14.19-1.6L7.15,78l14.28-.22L11.61,67.45l14.23,1.16L17.08,57.34l14.05,2.52L23.49,47.8l13.75,3.87L30.8,38.93,44.1,44.1,38.93,30.8l12.74,6.44L47.8,23.49l12.06,7.64-2.52-14,11.27,8.76L67.45,11.61l10.37,9.82L78,7.15l9.38,10.77L89,3.73l8.29,11.62,3-14,7.13,12.37L111.7.14l5.9,13L123.19,0l4.62,13.51L134.64,1l3.3,13.89L146,3l1.94,14.15L157,6.2l.57,14.26L167.7,10.4l-.81,14.26,11.05-9-2.18,14.11,11.87-7.93-3.54,13.84,12.59-6.75-4.86,13.43L205,36.82l-6.13,12.9,13.65-4.2-7.35,12.24,14-2.86-8.49,11.47,14.2-1.5-9.56,10.61,14.28-.13L219.05,85l14.22,1.25-11.42,8.57,14,2.63-12.2,7.42,13.72,4-12.85,6.22,13.27,5.27-13.4,4.94,12.7,6.53-13.81,3.63,12,7.72-14.09,2.28,11.21,8.85-14.25.91,10.3,9.88-14.27-.46,9.3,10.83-14.15-1.84,8.21,11.68-13.92-3.21,7.05,12.42L197.18,190Z" transform="translate(1.4 1.4)" style="fill:#35311c;stroke:#fff7cb;stroke-miterlimit:10"/><path d="M90.35,102H79.83v2.66a2.36,2.36,0,0,0,.82,1.89,2.82,2.82,0,0,0,1.9.71c1.65,0,2.5-.88,2.54-2.66h5.26a8.28,8.28,0,0,1-2.69,5.82,8.14,8.14,0,0,1-5.53,2.1,7.44,7.44,0,0,1-5.2-1.93,7.68,7.68,0,0,1-2.36-5.93V94.21a7.53,7.53,0,0,1,2.48-6,7.87,7.87,0,0,1,5.44-2,7.63,7.63,0,0,1,5.37,2,7.51,7.51,0,0,1,2.49,6Zm-5.26-5.26V94.18a2.29,2.29,0,0,0-2.6-2.57,2.83,2.83,0,0,0-1.87.68,2.33,2.33,0,0,0-.79,1.89v2.57Z" transform="translate(1.4 1.4)" style="fill:#fdfdfe"/><path d="M120.42,112.53h-5.26V94.1a2.4,2.4,0,0,0-.79-1.89,2.7,2.7,0,0,0-1.9-.71c-1.67,0-2.51.86-2.51,2.6v18.43H104.7V94.1c0-1.74-.88-2.6-2.66-2.6a2.3,2.3,0,0,0-2.6,2.6v18.43H94.19V94.11a7.46,7.46,0,0,1,2.33-5.62A7.7,7.7,0,0,1,102,86.24a8.14,8.14,0,0,1,5.32,2,7.49,7.49,0,0,1,5.14-2A7.84,7.84,0,0,1,118,88.49a7.41,7.41,0,0,1,2.39,5.62Z" transform="translate(1.4 1.4)" style="fill:#fdfdfe"/><path d="M140,104.61a7.5,7.5,0,0,1-2.48,5.91,7.58,7.58,0,0,1-5.32,2,7.79,7.79,0,0,1-5.38-2,8.06,8.06,0,0,1-2.6-6A7.06,7.06,0,0,1,126.45,99a7.79,7.79,0,0,1,5.61-2.28h2.66V94.1a2.36,2.36,0,0,0-.83-1.91,2.94,2.94,0,0,0-1.95-.69c-1.65,0-2.48.86-2.48,2.6H124.2a8,8,0,0,1,8.21-7.86,7.44,7.44,0,0,1,5.21,2A7.65,7.65,0,0,1,140,94.1Zm-5.26.06V102h-2.66c-1.54,0-2.4.89-2.6,2.66a2.3,2.3,0,0,0,2.6,2.6,2.67,2.67,0,0,0,1.86-.71A2.4,2.4,0,0,0,134.72,104.67Z" transform="translate(1.4 1.4)" style="fill:#fdfdfe"/><path d="M149.08,81h-5.26V75.72h5.26Zm0,31.55h-5.26V86.24h5.26Z" transform="translate(1.4 1.4)" style="fill:#fdfdfe"/><path d="M158.12,112.53h-5.26V75.72h5.26Z" transform="translate(1.4 1.4)" style="fill:#fdfdfe"/><path d="M61.6,152.64H56.34V134.21a2.43,2.43,0,0,0-.79-1.9,2.77,2.77,0,0,0-1.9-.71c-1.67,0-2.51.87-2.51,2.61v18.43H45.88V134.21a2.33,2.33,0,0,0-2.66-2.61,2.3,2.3,0,0,0-2.6,2.61v18.43H35.36V134.22a7.49,7.49,0,0,1,2.34-5.63,7.67,7.67,0,0,1,5.52-2.25,8.16,8.16,0,0,1,5.32,2,7.49,7.49,0,0,1,5.14-2,7.84,7.84,0,0,1,5.53,2.25,7.43,7.43,0,0,1,2.39,5.63Z" transform="translate(1.4 1.4)" style="fill:#fdfdfe"/><path d="M81.16,144.72a7.47,7.47,0,0,1-2.49,5.91,7.55,7.55,0,0,1-5.31,2A7.79,7.79,0,0,1,68,150.69a8,8,0,0,1-2.6-6,7.06,7.06,0,0,1,2.24-5.58,7.83,7.83,0,0,1,5.62-2.28H75.9V134.2a2.36,2.36,0,0,0-.83-1.9,2.9,2.9,0,0,0-1.95-.7c-1.65,0-2.48.87-2.48,2.6H65.38a8,8,0,0,1,8.21-7.86,7.41,7.41,0,0,1,5.2,1.95,7.66,7.66,0,0,1,2.37,5.91Zm-5.26.06v-2.66H73.24c-1.54,0-2.41.89-2.6,2.66a2.3,2.3,0,0,0,2.6,2.6,2.72,2.72,0,0,0,1.86-.71A2.4,2.4,0,0,0,75.9,144.78Z" transform="translate(1.4 1.4)" style="fill:#fdfdfe"/><path d="M95.51,131.6H92.86a2.38,2.38,0,0,0-1.92.8,2.7,2.7,0,0,0-.68,1.81v18.43H85V134.22a7.64,7.64,0,0,1,2.27-5.57,7.55,7.55,0,0,1,5.59-2.31h2.65Z" transform="translate(1.4 1.4)" style="fill:#fdfdfe"/><path d="M115.07,152.64h-5.26v-7.91a2.72,2.72,0,0,0-2.66-2.67h-2.6v10.58H99.3V115.83h5.25v21h2.6a2.51,2.51,0,0,0,1.9-.82,2.62,2.62,0,0,0,.76-1.82v-7.82h5.26v7.88a7.4,7.4,0,0,1-2.07,5.27,7.68,7.68,0,0,1,2.07,5.27Z" transform="translate(1.4 1.4)" style="fill:#fdfdfe"/><path d="M134.69,142.12H124.17v2.66a2.36,2.36,0,0,0,.83,1.89,2.83,2.83,0,0,0,1.89.71c1.65,0,2.5-.89,2.54-2.66h5.26a8.26,8.26,0,0,1-2.69,5.82,8.12,8.12,0,0,1-5.52,2.1,7.45,7.45,0,0,1-5.2-1.94,7.63,7.63,0,0,1-2.37-5.92V134.32a7.54,7.54,0,0,1,2.49-6,7.83,7.83,0,0,1,5.43-2,7.66,7.66,0,0,1,5.38,2,7.57,7.57,0,0,1,2.48,6Zm-5.26-5.26v-2.57a2.29,2.29,0,0,0-2.6-2.57,2.78,2.78,0,0,0-1.86.67,2.36,2.36,0,0,0-.8,1.9v2.57Z" transform="translate(1.4 1.4)" style="fill:#fdfdfe"/><path d="M149.05,152.64h-2.66a7.82,7.82,0,0,1-7.86-7.88V121.08h5.26v5.26h5.26v5.26h-5.26v13.17a2.45,2.45,0,0,0,.77,1.9,2.61,2.61,0,0,0,1.83.71h2.66Z" transform="translate(1.4 1.4)" style="fill:#fdfdfe"/><path d="M158.09,121.08h-5.26v-5.25h5.26Zm0,31.56h-5.26v-26.3h5.26Z" transform="translate(1.4 1.4)" style="fill:#fdfdfe"/><path d="M177.65,152.64h-5.26V134.21a2.3,2.3,0,0,0-2.6-2.61,2.72,2.72,0,0,0-1.86.71,2.41,2.41,0,0,0-.8,1.9v18.43h-5.26V134.22a7.5,7.5,0,0,1,2.48-5.92,7.75,7.75,0,0,1,5.38-2,7.93,7.93,0,0,1,5.43,2,7.48,7.48,0,0,1,2.49,5.92Z" transform="translate(1.4 1.4)" style="fill:#fdfdfe"/><path d="M197.26,155.24a7.47,7.47,0,0,1-7.74,7.86,7.89,7.89,0,0,1-5.37-1.95,8,8,0,0,1-2.66-5.91h5.26a2.3,2.3,0,0,0,2.6,2.6,2.32,2.32,0,0,0,2.65-2.6v-2.6h-2.65a8.07,8.07,0,0,1-7.86-7.92V134.2a7.4,7.4,0,0,1,2.48-5.85,8.27,8.27,0,0,1,10.81,0,7.4,7.4,0,0,1,2.48,5.85ZM192,147.38V134.2a2.32,2.32,0,0,0-2.65-2.6,2.3,2.3,0,0,0-2.6,2.6v10.52a2.59,2.59,0,0,0,.76,1.86,2.49,2.49,0,0,0,1.84.8Z" transform="translate(1.4 1.4)" style="fill:#fdfdfe"/></svg>