<svg xmlns="http://www.w3.org/2000/svg" viewBox="0 0 237.83 237.83"><title>branding</title><path d="M203,203l-13-5.81,4.53,13.54-12.42-7.05,3.21,13.92-11.68-8.21,1.84,14.15-10.83-9.3.46,14.27-9.88-10.3-.91,14.25-8.85-11.21-2.28,14.09-7.72-12-3.63,13.81-6.53-12.7-4.94,13.4-5.27-13.27-6.22,12.85-4-13.72-7.42,12.2-2.63-14-8.57,11.42L85,219.05l-9.64,10.54.13-14.28-10.61,9.56,1.5-14.2L54.9,219.16l2.86-14-12.24,7.35,4.2-13.65L36.82,205l5.5-13.18-13.43,4.86,6.75-12.59L21.8,187.63l7.93-11.87-14.11,2.18,9-11.05-14.26.81,10.06-10.13L6.2,157l11-9.11L3,146l11.82-8L1,134.64l12.54-6.83L0,123.19l13.14-5.59-13-5.9,13.62-4.3L1.39,100.27l14-3L3.73,89l14.19-1.6L7.15,78l14.28-.22L11.61,67.45l14.23,1.16L17.08,57.34l14.05,2.52L23.49,47.8l13.75,3.87L30.8,38.93,44.1,44.1,38.93,30.8l12.74,6.44L47.8,23.49l12.06,7.64-2.52-14,11.27,8.76L67.45,11.61l10.37,9.82L78,7.15l9.38,10.77L89,3.73l8.29,11.62,3-14,7.13,12.37L111.7.14l5.9,13L123.19,0l4.62,13.51L134.64,1l3.3,13.89L146,3l1.94,14.15L157,6.2l.57,14.26L167.7,10.4l-.81,14.26,11.05-9-2.18,14.11,11.87-7.93-3.54,13.84,12.59-6.75-4.86,13.43L205,36.82l-6.13,12.9,13.65-4.2-7.35,12.24,14-2.86-8.49,11.47,14.2-1.5-9.56,10.61,14.28-.13L219.05,85l14.22,1.25-11.42,8.57,14,2.63-12.2,7.42,13.72,4-12.85,6.22,13.27,5.27-13.4,4.94,12.7,6.53-13.81,3.63,12,7.72-14.09,2.28,11.21,8.85-14.25.91,10.3,9.88-14.27-.46,9.3,10.83-14.15-1.84,8.21,11.68-13.92-3.21,7.05,12.42L197.18,190Z" style="fill:none"/><path d="M75,108.45H69.73V71.64H75Z" style="fill:#fdfdfe"/><path d="M94.54,100.58a7.5,7.5,0,0,1-2.48,5.92,8,8,0,0,1-5.44,2,7.77,7.77,0,0,1-5.37-2,7.47,7.47,0,0,1-2.48-5.92V90a7.6,7.6,0,0,1,2.42-5.93,7.77,7.77,0,0,1,5.37-2,8,8,0,0,1,5.5,2A7.46,7.46,0,0,1,94.54,90Zm-5.26,0V90a2.3,2.3,0,0,0-2.6-2.61A2.33,2.33,0,0,0,84,90v10.56a2.33,2.33,0,0,0,2.66,2.61A2.3,2.3,0,0,0,89.28,100.59Z" style="fill:#fdfdfe"/><path d="M114.16,111.05a7.47,7.47,0,0,1-7.74,7.86,7.93,7.93,0,0,1-5.38-2,8,8,0,0,1-2.66-5.91h5.26a2.3,2.3,0,0,0,2.6,2.6c1.77,0,2.66-.86,2.66-2.6v-2.6h-2.66a8.05,8.05,0,0,1-7.86-7.91V90a7.43,7.43,0,0,1,2.48-5.85,7.74,7.74,0,0,1,5.44-2,7.66,7.66,0,0,1,5.38,2A7.43,7.43,0,0,1,114.16,90Zm-5.26-7.85V90a2.33,2.33,0,0,0-2.66-2.6,2.3,2.3,0,0,0-2.6,2.6v10.52a2.6,2.6,0,0,0,.77,1.86,2.46,2.46,0,0,0,1.83.8Z" style="fill:#fdfdfe"/><path d="M133.78,100.58a7.48,7.48,0,0,1-2.49,5.92,8,8,0,0,1-5.43,2,7.79,7.79,0,0,1-5.38-2,7.5,7.5,0,0,1-2.48-5.92V90a7.63,7.63,0,0,1,2.42-5.93,7.79,7.79,0,0,1,5.38-2,7.91,7.91,0,0,1,5.49,2A7.43,7.43,0,0,1,133.78,90Zm-5.26,0V90a2.63,2.63,0,0,0-5.26,0v10.56a2.63,2.63,0,0,0,5.26,0Z" style="fill:#fdfdfe"/><path d="M153.33,90h-5.2a2.42,2.42,0,0,0-.79-1.86,2.59,2.59,0,0,0-1.84-.74,2.4,2.4,0,0,0-1.86.77,2.61,2.61,0,0,0-.71,1.83,2.39,2.39,0,0,0,2.59,2.66,7.85,7.85,0,0,1,5.88,2.49,7.48,7.48,0,0,1,1.93,5.22,8,8,0,0,1-2,5.45,7.64,7.64,0,0,1-5.83,2.61,7.16,7.16,0,0,1-5.5-2.18,7.68,7.68,0,0,1-2.32-5.67h5.23a2.55,2.55,0,0,0,.73,1.86,2.52,2.52,0,0,0,1.85.74,2.3,2.3,0,0,0,2.59-2.6,2.39,2.39,0,0,0-2.6-2.66,7.55,7.55,0,0,1-5.85-2.55,8.3,8.3,0,0,1,0-10.68,7.52,7.52,0,0,1,5.83-2.55,7.15,7.15,0,0,1,5.71,2.42A7.94,7.94,0,0,1,153.33,90Z" style="fill:#fdfdfe"/><path d="M161.46,112.81h-3.39l16-31.33h3.31Z" style="fill:#fdfdfe"/><path d="M68.49,141.58A7.5,7.5,0,0,1,66,147.5a8,8,0,0,1-5.44,1.95,7.79,7.79,0,0,1-5.38-1.95,7.5,7.5,0,0,1-2.48-5.92V112.64H58v10.52h2.6A7.82,7.82,0,0,1,66,125.29,7.47,7.47,0,0,1,68.49,131Zm-5.26,0V131a2.52,2.52,0,0,0-.77-1.84,2.57,2.57,0,0,0-1.89-.77H58v13.17a2.33,2.33,0,0,0,2.66,2.61A2.3,2.3,0,0,0,63.23,141.59Z" style="fill:#fdfdfe"/><path d="M82.85,128.42H80.19a2.38,2.38,0,0,0-1.92.8,2.69,2.69,0,0,0-.68,1.81v18.42H72.33V131a7.68,7.68,0,0,1,2.27-5.57,7.55,7.55,0,0,1,5.59-2.31h2.66Z" style="fill:#fdfdfe"/><path d="M102.41,141.54a7.66,7.66,0,0,1-7.8,7.91,7.79,7.79,0,0,1-5.38-1.95,8,8,0,0,1-2.6-6A7.1,7.1,0,0,1,88.87,136a7.86,7.86,0,0,1,5.62-2.27h2.66V131a2.38,2.38,0,0,0-.83-1.91,2.94,2.94,0,0,0-1.95-.69c-1.65,0-2.48.87-2.48,2.6H86.63a8,8,0,0,1,8.21-7.86,7.41,7.41,0,0,1,5.2,2,7.66,7.66,0,0,1,2.37,5.91Zm-5.26.06v-2.66H94.49c-1.54,0-2.41.88-2.6,2.66a2.3,2.3,0,0,0,2.6,2.6,2.72,2.72,0,0,0,1.86-.71A2.43,2.43,0,0,0,97.15,141.6Z" style="fill:#fdfdfe"/><path d="M122,149.45h-5.26V131a2.3,2.3,0,0,0-2.6-2.61,2.74,2.74,0,0,0-1.86.71,2.43,2.43,0,0,0-.8,1.9v18.42h-5.25V131a7.51,7.51,0,0,1,2.48-5.93,7.77,7.77,0,0,1,5.37-2,8,8,0,0,1,5.44,2A7.51,7.51,0,0,1,122,131Z" style="fill:#fdfdfe"/><path d="M141.64,141.58a7.5,7.5,0,0,1-2.48,5.92,7.79,7.79,0,0,1-5.38,1.95,7.89,7.89,0,0,1-5.44-1.95,7.5,7.5,0,0,1-2.48-5.92V131a7.47,7.47,0,0,1,2.54-5.75,7.61,7.61,0,0,1,5.32-2.13h2.66V112.64h5.26Zm-5.26,0V128.42h-2.66a2.63,2.63,0,0,0-2.6,2.61v10.56a2.3,2.3,0,0,0,2.6,2.61A2.33,2.33,0,0,0,136.38,141.59Z" style="fill:#fdfdfe"/><path d="M150.74,117.9h-5.26v-5.26h5.26Zm0,31.55h-5.26V123.16h5.26Z" style="fill:#fdfdfe"/><path d="M170.3,149.45H165V131a2.3,2.3,0,0,0-2.6-2.61,2.72,2.72,0,0,0-1.86.71,2.43,2.43,0,0,0-.8,1.9v18.42h-5.26V131a7.54,7.54,0,0,1,2.48-5.93,7.79,7.79,0,0,1,5.38-2,8,8,0,0,1,5.44,2A7.54,7.54,0,0,1,170.3,131Z" style="fill:#fdfdfe"/><path d="M189.91,152.05a7.47,7.47,0,0,1-7.74,7.86A7.89,7.89,0,0,1,176.8,158a8,8,0,0,1-2.66-5.91h5.26a2.29,2.29,0,0,0,2.6,2.6c1.77,0,2.66-.86,2.66-2.6v-2.6H182a8.05,8.05,0,0,1-7.86-7.91V131a7.4,7.4,0,0,1,2.48-5.85,8.27,8.27,0,0,1,10.81,0,7.4,7.4,0,0,1,2.48,5.85Zm-5.25-7.85V131a2.33,2.33,0,0,0-2.66-2.6,2.3,2.3,0,0,0-2.6,2.6v10.52a2.59,2.59,0,0,0,.76,1.86,2.49,2.49,0,0,0,1.84.8Z" style="fill:#fdfdfe"/></svg>