<svg id="Layer_1" data-name="Layer 1" xmlns="http://www.w3.org/2000/svg" viewBox="0 0 522.18 160.08"><title>logo</title><path d="M25.62,101.78a17.25,17.25,0,0,1-5.11,12.34A16.72,16.72,0,0,1,8,119.43H2V107.62H8a5.36,5.36,0,0,0,4.18-1.86,5.88,5.88,0,0,0,1.66-4V36.89H25.62v64.89Zm0-76.7H13.81V13.27H25.62V25.08Z" transform="translate(-2 -13.27)" style="fill:#fff"/><path d="M45.79,95.94H34V84H45.79V95.94Z" transform="translate(-2 -13.27)" style="fill:#fff"/><path d="M87.46,48.7h-6a5.34,5.34,0,0,0-4.31,1.8,6.1,6.1,0,0,0-1.53,4.06V95.94H63.84V54.58a17.17,17.17,0,0,1,5.11-12.5,16.91,16.91,0,0,1,12.54-5.19h6V48.7Z" transform="translate(-2 -13.27)" style="fill:#fff"/><path d="M131.38,101.78q0,8.36-5.44,13.27A17,17,0,0,1,114,119.43a17.8,17.8,0,0,1-12.08-4.38q-5.57-4.91-6-13.27h11.81q0.13,5.84,6,5.84t5.84-5.84V95.94h-6a17.23,17.23,0,0,1-12.34-5.12A16.78,16.78,0,0,1,96,78.25V36.89h11.81V78.28a5.48,5.48,0,0,0,1.79,4.19,5.79,5.79,0,0,0,4,1.66h6V36.89h11.81v64.89Z" transform="translate(-2 -13.27)" style="fill:#fff"/><path d="M175.44,78.16q0,8.36-5.57,13.27a17,17,0,0,1-11.94,4.51,17.49,17.49,0,0,1-12.08-4.38q-5.57-5-5.84-13.4a15.89,15.89,0,0,1,5-12.54,17.56,17.56,0,0,1,12.61-5.11h6v-6a5.29,5.29,0,0,0-1.86-4.28,6.6,6.6,0,0,0-4.38-1.56q-5.57,0-5.57,5.84H140q0.53-8.36,6.24-13.27a18.3,18.3,0,0,1,12.21-4.38,16.65,16.65,0,0,1,11.68,4.38q5.31,4.91,5.31,13.27V78.16Zm-11.81.13v-6h-6q-5.18,0-5.84,6,0,5.84,5.84,5.84a6.1,6.1,0,0,0,4.18-1.59A5.4,5.4,0,0,0,163.63,78.29Z" transform="translate(-2 -13.27)" style="fill:#fff"/><path d="M219.49,95.94H207.68V54.56q0-5.85-5.84-5.86a6.09,6.09,0,0,0-4.18,1.6,5.42,5.42,0,0,0-1.79,4.26V95.94H184.06V54.58q0-8.38,5.57-13.3a17.46,17.46,0,0,1,12.08-4.39,18,18,0,0,1,12.21,4.39q5.57,4.92,5.57,13.3V95.94Z" transform="translate(-2 -13.27)" style="fill:#fff"/><path d="M283.72,78.26q0,8.38-5.57,13.29a19,19,0,0,1-24.28,0q-5.57-4.92-5.57-13.3V54.58A16.72,16.72,0,0,1,254,41.68a17.07,17.07,0,0,1,11.94-4.79h6V13.27h11.81v65Zm-11.81,0V48.7h-6a5.9,5.9,0,0,0-5.84,5.86V78.27q0,5.86,5.84,5.86T271.91,78.27Z" transform="translate(-2 -13.27)" style="fill:#fff"/><path d="M327.78,78.25q0,8.38-5.57,13.3A18,18,0,0,1,310,95.94a17.46,17.46,0,0,1-12.08-4.39q-5.57-4.92-5.57-13.3V54.58q0-8.38,5.44-13.3a17.46,17.46,0,0,1,12.08-4.39,17.83,17.83,0,0,1,12.34,4.52q5.57,4.92,5.57,13.17V78.25Zm-11.81,0V54.56q0-5.86-5.84-5.86t-6,5.86V78.27q0,5.86,6,5.86T316,78.27Z" transform="translate(-2 -13.27)" style="fill:#fff"/><path d="M371.83,95.94H360V54.56a5.48,5.48,0,0,0-1.79-4.19,6,6,0,0,0-4.18-1.67h-5.84V95.94H336.4V13.27h11.81V36.89h5.84a17.59,17.59,0,0,1,12.34,4.92,17.23,17.23,0,0,1,5.44,12.77V95.94Z" transform="translate(-2 -13.27)" style="fill:#fff"/><path d="M415.89,72.32H392.27v6a5.31,5.31,0,0,0,1.86,4.25,6.34,6.34,0,0,0,4.25,1.59q5.57,0,5.71-6h11.81q-0.67,8.36-6,13.07a18.26,18.26,0,0,1-12.41,4.71,16.72,16.72,0,0,1-11.68-4.35q-5.31-4.87-5.31-13.3V54.81q0-8.49,5.57-13.4a17.67,17.67,0,0,1,12.21-4.51,17.19,17.19,0,0,1,12.08,4.51q5.57,4.91,5.57,13.4V72.32ZM404.08,60.51V54.74q0-5.77-5.84-5.77a6.29,6.29,0,0,0-4.18,1.51,5.26,5.26,0,0,0-1.79,4.26v5.77h11.81Z" transform="translate(-2 -13.27)" style="fill:#fff"/><path d="M448.14,48.7h-6a5.34,5.34,0,0,0-4.31,1.8,6.1,6.1,0,0,0-1.53,4.06V95.94H424.52V54.58a17.16,17.16,0,0,1,5.11-12.5,16.91,16.91,0,0,1,12.54-5.19h6V48.7Z" transform="translate(-2 -13.27)" style="fill:#fff"/><path d="M480.25,95.94h-6a17.57,17.57,0,0,1-17.65-17.68V25.08h11.81V36.89h11.81V48.7H468.44V78.27a5.53,5.53,0,0,0,1.72,4.26,5.85,5.85,0,0,0,4.11,1.6h6V95.94Z" transform="translate(-2 -13.27)" style="fill:#fff"/><path d="M524.18,101.78q0,8.36-5.44,13.27a17,17,0,0,1-11.94,4.38,17.8,17.8,0,0,1-12.08-4.38q-5.57-4.91-6-13.27h11.81q0.13,5.84,6,5.84t5.84-5.84V95.94h-6a17.23,17.23,0,0,1-12.34-5.12,16.78,16.78,0,0,1-5.31-12.57V36.89h11.81V78.28a5.48,5.48,0,0,0,1.79,4.19,5.79,5.79,0,0,0,4,1.66h6V36.89h11.81v64.89Z" transform="translate(-2 -13.27)" style="fill:#fff"/><path d="M282,141.92a59.73,59.73,0,0,0-3.56,17.34,2.06,2.06,0,0,1-1.78.7c-4.38,0-4.64-12.2-4.64-17.41,0-4.51.7-16.2,2.67-16.2,1.46,0,4.19,1.14,3.94,2.6a68.84,68.84,0,0,0-1.46,14.67c0,1.21.13,2.35,0.19,3h0.32a133.12,133.12,0,0,0,5.53-20.77,1.36,1.36,0,0,1,1.46-1.14c0.83,0,3.62.89,3.43,2a118.63,118.63,0,0,0-1.46,22.11h0.45c0.63-3.75,4.7-27.25,8.7-27.25,0.89,0,2.41.32,2.41,1.46,0,0.51-1,2.22-1.84,4.51-3.62,10-7.24,23.63-7.24,34.24a2.18,2.18,0,0,1-1.78.89c-3.43,0-4.19-3.43-4.38-6.54-0.13-2.16-.64-13.15-0.64-14.29H282Z" transform="translate(-2 -13.27)" style="fill:#a25d1a"/><path d="M304.62,124.26c2.41,0,5.21,1.91,5.21,7.75,0,8.13-2.22,15.5-7.24,15.5a4.12,4.12,0,0,1-3.68-2.67,29,29,0,0,0-1.14,8.51c0,3,1.14,5.21,4.38,5.21,4.89,0,8.83-7.94,8.83-12.13a0.76,0.76,0,0,1,.89-0.7c1,0,1.84,1.27,1.84,3,0,5.53-3.43,14.86-10.48,14.86-4.89,0-9.46-4.51-9.46-12.45C293.76,140.59,299,124.26,304.62,124.26Zm-3.37,19.44c2.22,0,4.13-7.18,4.13-13,0-2.67-.45-3-0.76-3s-0.57.25-1,1.14a56.37,56.37,0,0,0-4,13.28S300,143.7,301.26,143.7Z" transform="translate(-2 -13.27)" style="fill:#a25d1a"/><path d="M318.15,111.68c1.59,0,4.26,1.46,4.26,2.16-0.7,2.79-3.68,14-4.32,17.91,1.91-4.07,4.32-5.91,6.1-5.91,4.07,0,7.56,5.91,7.56,10.48,0,5.08-2.6,24.39-10.54,24.39-6.42,0-9.85-4.76-9.85-13.21C311.36,137.47,317,111.68,318.15,111.68Zm-1.46,32.21a43.54,43.54,0,0,0-.64,7.37c0,2.48.89,4.57,2.79,4.57,7.18,0,8.26-21.41,8.26-22.17,0-1.91.06-3.87-1.65-3.87-3.87,0-7,10.54-7.81,14.17,0,0.06-.06.06-0.13,0.06Z" transform="translate(-2 -13.27)" style="fill:#a25d1a"/><path d="M359.13,155.2c-0.83,2.29-3.24,6.61-6.1,6.61-5.72,0-7.62-7.11-7.62-12.58,0-9,3.88-23.5,12.45-23.5a5.83,5.83,0,0,1,3.56,1.52c0.89-5,1.78-12.51,2.1-15,0.13-1.21.76-1.27,1-1.27,2.22,0,4.51.83,4.26,2.16-1,5.08-5.46,36.27-5.46,39.38,0,2.1.76,3,2.1,3,2.1,0,3.43-4.13,3.88-7.94a1.62,1.62,0,0,1,1.84,1.71c0,3.37-2.6,10.54-7.43,10.54a4.39,4.39,0,0,1-4.38-4.7h-0.19Zm-7.56,2c3.3,0,8.32-15.18,8.32-18a2.62,2.62,0,0,1-1.91-1.27c0.51-1.72,1.59-4.7,1.59-6.8,0-1-.19-2.22-1.14-2.22-4.57,0-8.26,15.18-8.26,24.14C350.17,154.37,350.3,157.23,351.57,157.23Z" transform="translate(-2 -13.27)" style="fill:#a25d1a"/><path d="M377.74,124.26c2.41,0,5.21,1.91,5.21,7.75,0,8.13-2.22,15.5-7.24,15.5a4.12,4.12,0,0,1-3.68-2.67,29,29,0,0,0-1.14,8.51c0,3,1.14,5.21,4.38,5.21,4.89,0,8.83-7.94,8.83-12.13a0.76,0.76,0,0,1,.89-0.7c1,0,1.84,1.27,1.84,3,0,5.53-3.43,14.86-10.48,14.86-4.89,0-9.46-4.51-9.46-12.45C366.88,140.59,372.15,124.26,377.74,124.26Zm-3.37,19.44c2.22,0,4.13-7.18,4.13-13,0-2.67-.45-3-0.76-3s-0.57.25-1,1.14a56.37,56.37,0,0,0-4,13.28S373.1,143.7,374.37,143.7Z" transform="translate(-2 -13.27)" style="fill:#a25d1a"/><path d="M389.42,135.57s11.69,5.21,11.69,16.26c0,7.3-3.87,10-8.26,10-5.34,0-10.48-6-10.48-11,0-2.35,1.52-7.37,3.81-7.37,0.89,0,2.86,1.78,2.86,2.35,0,2-2.73,7.05-2.73,7.62a4.28,4.28,0,0,0,4.51,3.68c4,0,5.91-2.92,5.91-7.24,0-6.48-6-11.18-10.16-11.69a6.34,6.34,0,0,1-1.65-4.83c0.25-2.67,15.69-8.19,16.64-8.19,0.64,0,2.1,1.65,2.1,2.79,0,2.41-4.32,5.91-5.91,5.91-0.63,0-.83-1.71-1.46-1.71-1.65.06-6.48,2.6-6.92,3.11Z" transform="translate(-2 -13.27)" style="fill:#a25d1a"/><path d="M407.27,128.2a1.05,1.05,0,0,1,1.14-.83c-0.13,0,5.21.19,4.64,2.35-1.91,7-4.83,19.31-4.76,24.27,0,2.35.89,3.49,1.91,3.49,3.94,0,5.08-6.92,5.27-9.46a1.78,1.78,0,0,1,2.35,1.91c0,4-2.29,11.31-9.34,11.31-3.62,0-5.46-2.6-5.46-7.62C403,146.94,406,132.71,407.27,128.2Zm1.08-9.66c0-1.78.83-7.11,4-7.11,1.59,0,2.54.38,2.1,2.41a3,3,0,0,1,1.91,2.92c0,2-1.33,5.78-5.34,5.78C410,122.55,408.35,121.4,408.35,118.54Z" transform="translate(-2 -13.27)" style="fill:#a25d1a"/><path d="M421.76,169.43c2.86-1.27,6.16-8,7.43-15.25-1.08,1.52-3.18,5-5.65,5-5.08,0-8.38-4.83-8.38-12.58,0-11.5,5.27-21.34,13.28-21.34,2.54,0,5.46.83,5.46,4.89a8.79,8.79,0,0,1-.06.89c0.38,0,2.86.25,2.67,1.71-0.76,5-1.52,14.74-3.62,24.46-2.35,10.86-6.23,16-9.72,16-4.83,0-9-2.6-9.72-4.45-0.83-2,.7-4.51,3.68-4C417.88,166.57,420.81,168.85,421.76,169.43Zm1.46-14.29c3.37,0,6.92-9.66,7.37-16a2.28,2.28,0,0,1-1.71-1,21.21,21.21,0,0,0,1-6.48c0-1.33-.7-2.6-1.91-2.6-4.64,0-7.88,13.59-7.88,20.26C420.11,153.29,421.57,155.13,423.22,155.13Z" transform="translate(-2 -13.27)" style="fill:#a25d1a"/><path d="M448.69,138c-2.6,5.65-6,16.45-5.91,22.42a3.07,3.07,0,0,1-2.16,1c-2.86,0-3.62-3.43-3.62-8.26,0-13.53,1.65-26.3,5.53-26.3,0.76,0,2.22.13,2,1.71-0.76,6.1-2.54,12-2.54,18.29h0.25c2.41-7.05,4.83-14.61,8.39-21.47a1.29,1.29,0,0,1,1.4-.57c1.71,0,4.64,1.14,4.45,3.18-0.51,6.48-3.87,14.74-3.87,23.19,0,3.24.83,4.83,2.6,4.83,2.1,0,3.37-3.37,3.88-5a1.6,1.6,0,0,1,1.4,1.72c0,2.73-2.73,7.62-7.18,7.62s-5.53-4.57-5.53-9.72A95.06,95.06,0,0,1,449.45,138h-0.76Z" transform="translate(-2 -13.27)" style="fill:#a25d1a"/><path d="M248.69,146.09V141a6.36,6.36,0,0,0,3.72-1.15,5.45,5.45,0,0,0,2.17-3.35,49.53,49.53,0,0,0,.56-9.08q0-6.88.84-8.69a11.17,11.17,0,0,1,2.4-3.39q1.6-1.58,6.59-1.58h1.71v4.84h-1q-3.38,0-4.36,1.21t-1,5.21v4.56q0,6.39-1.4,9.41a9.2,9.2,0,0,1-5.09,4.57,9,9,0,0,1,5,4.44q1.49,3,1.49,9.59v4.53q0,3.94.95,5.17t4.39,1.23h1v4.84H265q-5.06,0-6.68-1.66a11.33,11.33,0,0,1-2.37-3.38q-0.74-1.72-.78-8.65a48.59,48.59,0,0,0-.57-9.13,5.4,5.4,0,0,0-2.19-3.32A6.42,6.42,0,0,0,248.69,146.09Z" transform="translate(-2 -13.27)" style="fill:#a25d1a"/><path d="M479.69,138.64v5.09a6.4,6.4,0,0,0-3.72,1.13,5.41,5.41,0,0,0-2.17,3.35,49.9,49.9,0,0,0-.56,9.1q0,6.88-.84,8.7a11.22,11.22,0,0,1-2.4,3.4Q468.4,171,463.4,171H461.7v-4.84h1q3.38,0,4.36-1.21t1-5.18v-4.53q0-6.55,1.49-9.59a9,9,0,0,1,5-4.44q-4.06-1.83-5.27-5a26.21,26.21,0,0,1-1.21-9v-4.56q0-4-1-5.21t-4.36-1.21h-1v-4.84h1.71q5.06,0,6.68,1.66a11.21,11.21,0,0,1,2.37,3.39q0.74,1.74.78,8.63a48.16,48.16,0,0,0,.57,9.09,5.45,5.45,0,0,0,2.19,3.33A6.36,6.36,0,0,0,479.69,138.64Z" transform="translate(-2 -13.27)" style="fill:#a25d1a"/></svg>