<svg id="visual" viewBox="0 0 900 600" width="900" height="600" xmlns="http://www.w3.org/2000/svg" xmlns:xlink="http://www.w3.org/1999/xlink" version="1.1"><rect width="900" height="600" fill="#001829"></rect><g><g transform="translate(144 345)"><path d="M0 -68.6L59.4 -34.3L59.4 34.3L0 68.6L-59.4 34.3L-59.4 -34.3Z" fill="none" stroke="#297EA6" stroke-width="2"></path></g><g transform="translate(518 69)"><path d="M0 -65L56.3 -32.5L56.3 32.5L0 65L-56.3 32.5L-56.3 -32.5Z" fill="none" stroke="#297EA6" stroke-width="2"></path></g><g transform="translate(635 328)"><path d="M0 -66L57.2 -33L57.2 33L0 66L-57.2 33L-57.2 -33Z" fill="none" stroke="#297EA6" stroke-width="2"></path></g><g transform="translate(844 94)"><path d="M0 -38L32.9 -19L32.9 19L0 38L-32.9 19L-32.9 -19Z" fill="none" stroke="#297EA6" stroke-width="2"></path></g><g transform="translate(323 55)"><path d="M0 -59L51.1 -29.5L51.1 29.5L0 59L-51.1 29.5L-51.1 -29.5Z" fill="none" stroke="#297EA6" stroke-width="2"></path></g><g transform="translate(687 183)"><path d="M0 -57L49.4 -28.5L49.4 28.5L0 57L-49.4 28.5L-49.4 -28.5Z" fill="none" stroke="#297EA6" stroke-width="2"></path></g><g transform="translate(890 534)"><path d="M0 -63L54.6 -31.5L54.6 31.5L0 63L-54.6 31.5L-54.6 -31.5Z" fill="none" stroke="#297EA6" stroke-width="2"></path></g><g transform="translate(830 408)"><path d="M0 -65L56.3 -32.5L56.3 32.5L0 65L-56.3 32.5L-56.3 -32.5Z" fill="none" stroke="#297EA6" stroke-width="2"></path></g><g transform="translate(17 4)"><path d="M0 -54L46.8 -27L46.8 27L0 54L-46.8 27L-46.8 -27Z" fill="none" stroke="#297EA6" stroke-width="2"></path></g><g transform="translate(46 215)"><path d="M0 -49L42.4 -24.5L42.4 24.5L0 49L-42.4 24.5L-42.4 -24.5Z" fill="none" stroke="#297EA6" stroke-width="2"></path></g><g transform="translate(379 215)"><path d="M0 -65L56.3 -32.5L56.3 32.5L0 65L-56.3 32.5L-56.3 -32.5Z" fill="none" stroke="#297EA6" stroke-width="2"></path></g><g transform="translate(443 366)"><path d="M0 -51L44.2 -25.5L44.2 25.5L0 51L-44.2 25.5L-44.2 -25.5Z" fill="none" stroke="#297EA6" stroke-width="2"></path></g><g transform="translate(682 462)"><path d="M0 -64L55.4 -32L55.4 32L0 64L-55.4 32L-55.4 -32Z" fill="none" stroke="#297EA6" stroke-width="2"></path></g><g transform="translate(540 469)"><path d="M0 -51L44.2 -25.5L44.2 25.5L0 51L-44.2 25.5L-44.2 -25.5Z" fill="none" stroke="#297EA6" stroke-width="2"></path></g><g transform="translate(333 477)"><path d="M0 -38L32.9 -19L32.9 19L0 38L-32.9 19L-32.9 -19Z" fill="none" stroke="#297EA6" stroke-width="2"></path></g><g transform="translate(720 25)"><path d="M0 -51L44.2 -25.5L44.2 25.5L0 51L-44.2 25.5L-44.2 -25.5Z" fill="none" stroke="#297EA6" stroke-width="2"></path></g><g transform="translate(230 574)"><path d="M0 -58L50.2 -29L50.2 29L0 58L-50.2 29L-50.2 -29Z" fill="none" stroke="#297EA6" stroke-width="2"></path></g><g transform="translate(67 523)"><path d="M0 -37L32 -18.5L32 18.5L0 37L-32 18.5L-32 -18.5Z" fill="none" stroke="#297EA6" stroke-width="2"></path></g><g transform="translate(236 232)"><path d="M0 -53L45.9 -26.5L45.9 26.5L0 53L-45.9 26.5L-45.9 -26.5Z" fill="none" stroke="#297EA6" stroke-width="2"></path></g><g transform="translate(818 236)"><path d="M0 -50L43.3 -25L43.3 25L0 50L-43.3 25L-43.3 -25Z" fill="none" stroke="#297EA6" stroke-width="2"></path></g><g transform="translate(606 599)"><path d="M0 -55L47.6 -27.5L47.6 27.5L0 55L-47.6 27.5L-47.6 -27.5Z" fill="none" stroke="#297EA6" stroke-width="2"></path></g><g transform="translate(172 13)"><path d="M0 -43L37.2 -21.5L37.2 21.5L0 43L-37.2 21.5L-37.2 -21.5Z" fill="none" stroke="#297EA6" stroke-width="2"></path></g><g transform="translate(452 589)"><path d="M0 -57L49.4 -28.5L49.4 28.5L0 57L-49.4 28.5L-49.4 -28.5Z" fill="none" stroke="#297EA6" stroke-width="2"></path></g><g transform="translate(532 209)"><path d="M0 -51L44.2 -25.5L44.2 25.5L0 51L-44.2 25.5L-44.2 -25.5Z" fill="none" stroke="#297EA6" stroke-width="2"></path></g><g transform="translate(756 594)"><path d="M0 -49L42.4 -24.5L42.4 24.5L0 49L-42.4 24.5L-42.4 -24.5Z" fill="none" stroke="#297EA6" stroke-width="2"></path></g></g></svg>