<svg xmlns="http://www.w3.org/2000/svg" viewBox="0 0 240.62 240.62"><title>iiArtboard 1</title><path d="M204.4,204.4l-13-5.81,4.53,13.54-12.42-7,3.2,13.91L175,210.83,176.87,225,166,215.69l.47,14.27-9.88-10.3-.91,14.25-8.84-11.21-2.28,14.09-7.72-12-3.63,13.81-6.53-12.7-5,13.39L116.4,226l-6.22,12.85-4-13.72-7.43,12.19-2.62-14L87.56,234.7,86.4,220.4l-9.63,10.54.12-14.28-10.6,9.56,1.5-14.2L56.3,220.56l2.86-14L46.92,213.9l4.2-13.65-12.9,6.15,5.5-13.18-13.43,4.85L37,185.49,23.2,189l7.93-11.87L17,179.34l9-11.05-14.25.81L21.83,159,7.6,158.4l11-9.11L4.4,147.35l11.82-8L2.4,136l12.54-6.83L1.4,124.59,14.54,119l-13-5.9,13.62-4.29L2.79,101.67l14-3L5.13,90.4l14.19-1.6L8.55,79.4l14.28-.22L13,68.85,27.24,70,18.48,58.74l14.05,2.53L24.89,49.2l13.74,3.87L32.2,40.33,45.5,45.5,40.33,32.2l12.74,6.44L49.2,24.89l12.06,7.64-2.52-14L70,27.25,68.85,13l10.37,9.81L79.4,8.55l9.38,10.77L90.4,5.13l8.29,11.62,3-14,7.13,12.37L113.1,1.54l5.9,13L124.59,1.4l4.62,13.51L136,2.4l3.3,13.89,8-11.82,1.94,14.15,9.12-11L159,21.87,169.1,11.8l-.81,14.25,11.05-9-2.18,14.11L189,23.23l-3.54,13.83,12.58-6.74-4.85,13.43,13.18-5.53-6.13,12.9,13.65-4.2-7.34,12.24,14-2.86-8.49,11.48,14.2-1.5-9.56,10.6L231,76.76,220.4,86.4l14.22,1.26L223.2,96.23l14,2.62L225,106.28l13.72,4L226,116.4l13.27,5.27-13.39,5,12.7,6.53-13.81,3.63,12,7.72-14.09,2.28,11.21,8.84-14.25.91,10.3,9.88-14.27-.47,9.3,10.83-14.16-1.84L219,186.61l-13.91-3.2,7,12.42-13.49-4.43Z" style="stroke:#524d21;stroke-miterlimit:10"/><path d="M65,119.3v6.78a7.76,7.76,0,0,1-2.47,5.72,8,8,0,0,1-5.8,2.25,5.75,5.75,0,0,1-4.29-1.69v8.47l-3.78,1.79h-.2V119.3A7.74,7.74,0,0,1,51,113.58a8,8,0,0,1,5.8-2.26,8,8,0,0,1,5.8,2.26A7.66,7.66,0,0,1,65,119.3Zm-4,0a4.19,4.19,0,0,0-1.25-3.36,4.85,4.85,0,0,0-6.08,0,4.19,4.19,0,0,0-1.25,3.36v6.78a4.18,4.18,0,0,0,1.25,3.35,4.85,4.85,0,0,0,6.08,0,4.18,4.18,0,0,0,1.25-3.35Z" style="fill:#fff;stroke:#fff;stroke-miterlimit:10;stroke-width:0.5px"/><path d="M69.39,126.08V119.3a7.78,7.78,0,0,1,2.47-5.72,8.59,8.59,0,0,1,11.61,0,7.7,7.7,0,0,1,2.47,5.72v6.78a7.8,7.8,0,0,1-2.47,5.72,8,8,0,0,1-5.8,2.25,8.09,8.09,0,0,1-5.81-2.25A7.72,7.72,0,0,1,69.39,126.08Zm4,0a4.15,4.15,0,0,0,1.25,3.35,4.85,4.85,0,0,0,6.08,0A4.18,4.18,0,0,0,82,126.08V119.3a4.19,4.19,0,0,0-1.24-3.36,4.85,4.85,0,0,0-6.08,0,4.16,4.16,0,0,0-1.25,3.36Z" style="fill:#fff;stroke:#fff;stroke-miterlimit:10;stroke-width:0.5px"/><path d="M90.29,134.45V119.3a7.74,7.74,0,0,1,2.47-5.72,7.94,7.94,0,0,1,5.8-2.26h2.69v.2l-1.59,3.35h-1.1a4.51,4.51,0,0,0-3,1.07,4.19,4.19,0,0,0-1.25,3.36v13.35l-3.78,1.8Z" style="fill:#fff;stroke:#fff;stroke-miterlimit:10;stroke-width:0.5px"/><path d="M107.27,134.45v-19.1h-5.12v-.2l1.61-3.43h3.51v-7.17l3.79-1.8h.2v9h5.12v.2l-1.61,3.43h-3.51v17.3l-3.79,1.8Z" style="fill:#fff;stroke:#fff;stroke-miterlimit:10;stroke-width:0.5px"/><path d="M120.87,134.45V117.34h-3v-.19l1.61-3.43h1.38v-2.6a7.76,7.76,0,0,1,2.47-5.72,8,8,0,0,1,5.8-2.25h2.69v.2l-1.59,3.35h-1.1a4.58,4.58,0,0,0-3,1.07,4.24,4.24,0,0,0-1.24,3.35v2.6h6.6v.2l-1.61,3.42h-5v15.31l-3.78,1.8Z" style="fill:#fff;stroke:#fff;stroke-miterlimit:10;stroke-width:0.5px"/><path d="M135,126.08V119.3a7.74,7.74,0,0,1,2.47-5.72,8.57,8.57,0,0,1,11.6,0,7.67,7.67,0,0,1,2.48,5.72v6.78a7.77,7.77,0,0,1-2.48,5.72,8,8,0,0,1-5.8,2.25,8.07,8.07,0,0,1-5.8-2.25A7.68,7.68,0,0,1,135,126.08Zm4,0a4.18,4.18,0,0,0,1.24,3.35,4.85,4.85,0,0,0,6.08,0,4.18,4.18,0,0,0,1.25-3.35V119.3a4.19,4.19,0,0,0-1.25-3.36,4.85,4.85,0,0,0-6.08,0A4.19,4.19,0,0,0,139,119.3Z" style="fill:#fff;stroke:#fff;stroke-miterlimit:10;stroke-width:0.5px"/><path d="M156.91,134.45v-29.9l3.79-1.8h.2v29.9l-3.79,1.8Z" style="fill:#fff;stroke:#fff;stroke-miterlimit:10;stroke-width:0.5px"/><path d="M167.54,107.32a2.48,2.48,0,0,1,0-3.45,2.36,2.36,0,0,1,3.39,0,2.5,2.5,0,0,1,0,3.45,2.38,2.38,0,0,1-3.39,0Zm-.3,27.13V112.72l3.79-1.8h.2v21.73l-3.79,1.8Z" style="fill:#fff;stroke:#fff;stroke-miterlimit:10;stroke-width:0.5px"/><path d="M176.57,126.08V119.3a7.78,7.78,0,0,1,2.47-5.72,8,8,0,0,1,5.8-2.26,8.06,8.06,0,0,1,5.81,2.26,7.7,7.7,0,0,1,2.47,5.72v6.78a7.8,7.8,0,0,1-2.47,5.72,8.61,8.61,0,0,1-11.61,0A7.72,7.72,0,0,1,176.57,126.08Zm4,0a4.18,4.18,0,0,0,1.24,3.35,4.85,4.85,0,0,0,6.08,0,4.15,4.15,0,0,0,1.25-3.35V119.3a4.16,4.16,0,0,0-1.25-3.36,4.85,4.85,0,0,0-6.08,0,4.19,4.19,0,0,0-1.24,3.36Z" style="fill:#fff;stroke:#fff;stroke-miterlimit:10;stroke-width:0.5px"/></svg>