<svg viewBox="0 0 240.62 240.62">
  <path id="sticker" d="M203,203l-13-5.81,4.53,13.54-12.42-7,3.2,13.91-11.68-8.21,1.84,14.16-10.83-9.3,0.47,14.27-9.88-10.3-0.91,14.25-8.84-11.21-2.28,14.09-7.72-12-3.63,13.81-6.53-12.7-4.95,13.39L115,224.56l-6.22,12.85-4-13.72-7.43,12.19-2.62-14-8.57,11.42L85,219l-9.63,10.54,0.12-14.28-10.6,9.56,1.5-14.2L54.9,219.16l2.86-14-12.24,7.34,4.2-13.65L36.82,205l5.5-13.18-13.43,4.85,6.74-12.58L21.8,187.63l7.93-11.87-14.11,2.18,9-11.05-14.25.81,10.06-10.13L6.2,157l11-9.11L3,145.95l11.82-8L1,134.64l12.54-6.83L0,123.19l13.14-5.59-13-5.9,13.62-4.29L1.39,100.27l14-3L3.73,89l14.19-1.6L7.15,78l14.28-.22L11.61,67.45l14.23,1.16L17.08,57.34l14.05,2.53L23.49,47.8l13.74,3.87L30.8,38.93,44.1,44.1,38.93,30.8l12.74,6.44L47.8,23.49l12.06,7.64L57.34,17.08l11.27,8.77L67.45,11.61l10.37,9.81L78,7.15l9.38,10.77L89,3.73l8.29,11.62,3-14,7.13,12.37L111.7,0.14l5.9,13L123.19,0l4.62,13.51L134.64,1l3.3,13.89,8-11.82,1.94,14.15L157,6.2l0.57,14.27L167.7,10.4l-0.81,14.25,11.05-9-2.18,14.11,11.87-7.93-3.54,13.83,12.58-6.74-4.85,13.43L205,36.82l-6.13,12.9,13.65-4.2-7.34,12.24,14-2.86-8.49,11.48,14.2-1.5-9.56,10.6,14.28-.12L219,85l14.22,1.26-11.42,8.57,14,2.62-12.19,7.43,13.72,4L224.56,115l13.27,5.27-13.39,4.95,12.7,6.53-13.81,3.63,12,7.72-14.09,2.28,11.21,8.84-14.25.91,10.3,9.88-14.27-.47,9.3,10.83-14.16-1.84,8.21,11.68-13.91-3.2,7,12.42L197.18,190Z" transform="translate(1.4 1.4)" style="stroke:#524d21;stroke-miterlimit:10"/>
  <path d="M68.67,121.65a7.3,7.3,0,0,1-2.45,5.66,8,8,0,0,1-5.47,2.22h-2.6V140H52.9V111.1a7.48,7.48,0,0,1,2.48-5.91,8.37,8.37,0,0,1,10.81.06,7.32,7.32,0,0,1,2.48,5.86v10.54Zm-5.26,0V111.1a2.3,2.3,0,0,0-2.6-2.61,2.33,2.33,0,0,0-2.66,2.61v13.17h2.6a2.57,2.57,0,0,0,1.89-.77A2.52,2.52,0,0,0,63.41,121.66Z" transform="translate(1.4 1.4)" style="fill:#fdfdfe"/>
  <path d="M88.29,121.65a7.5,7.5,0,0,1-2.48,5.92,8,8,0,0,1-5.44,2,7.77,7.77,0,0,1-5.38-2,7.5,7.5,0,0,1-2.48-5.92V111.11a7.58,7.58,0,0,1,2.42-5.92,7.77,7.77,0,0,1,5.38-2,7.93,7.93,0,0,1,5.5,2,7.43,7.43,0,0,1,2.48,5.86v10.54Zm-5.26,0V111.1a2.3,2.3,0,0,0-2.6-2.61,2.33,2.33,0,0,0-2.66,2.61v10.56a2.33,2.33,0,0,0,2.66,2.61A2.3,2.3,0,0,0,83,121.66Z" transform="translate(1.4 1.4)" style="fill:#fdfdfe"/><path d="M102.65,108.5H100a2.38,2.38,0,0,0-1.92.8,2.72,2.72,0,0,0-.68,1.81v18.43H92.13V111.11a7.64,7.64,0,0,1,2.27-5.57,7.53,7.53,0,0,1,5.58-2.31h2.66v5.26Z" transform="translate(1.4 1.4)" style="fill:#fdfdfe"/>
  <path d="M116.95,129.53h-2.66a7.82,7.82,0,0,1-7.86-7.87V98h5.26v5.26h5.26v5.26h-5.26v13.17a2.46,2.46,0,0,0,.77,1.9,2.6,2.6,0,0,0,1.83.71h2.66v5.26Z" transform="translate(1.4 1.4)" style="fill:#fdfdfe"/>
  <path d="M131.25,108.5H126v21h-5.26V100.59a7.82,7.82,0,0,1,7.86-7.87h2.66V98h-2.66a2.61,2.61,0,0,0-1.83.71,2.45,2.45,0,0,0-.77,1.89v2.66h5.26v5.26Z" transform="translate(1.4 1.4)" style="fill:#fdfdfe"/>
  <path d="M150.8,121.65a7.5,7.5,0,0,1-2.48,5.92,8,8,0,0,1-5.44,2,7.77,7.77,0,0,1-5.38-2,7.5,7.5,0,0,1-2.48-5.92V111.11a7.59,7.59,0,0,1,2.42-5.92,7.78,7.78,0,0,1,5.38-2,7.93,7.93,0,0,1,5.5,2,7.43,7.43,0,0,1,2.48,5.86v10.54Zm-5.26,0V111.1a2.3,2.3,0,0,0-2.6-2.61,2.33,2.33,0,0,0-2.66,2.61v10.56a2.33,2.33,0,0,0,2.66,2.61A2.3,2.3,0,0,0,145.55,121.66Z" transform="translate(1.4 1.4)" style="fill:#fdfdfe"/><path d="M159.9,129.53h-5.26V92.72h5.26v36.81Z" transform="translate(1.4 1.4)" style="fill:#fdfdfe"/><path d="M168.94,98h-5.26V92.72h5.26V98Zm0,31.55h-5.26V103.24h5.26v26.29Z" transform="translate(1.4 1.4)" style="fill:#fdfdfe"/><path d="M188.5,121.65a7.5,7.5,0,0,1-2.48,5.92,8,8,0,0,1-5.44,2,7.77,7.77,0,0,1-5.38-2,7.5,7.5,0,0,1-2.48-5.92V111.11a7.59,7.59,0,0,1,2.42-5.92,7.78,7.78,0,0,1,5.38-2,7.93,7.93,0,0,1,5.5,2,7.43,7.43,0,0,1,2.48,5.86v10.54Zm-5.26,0V111.1a2.3,2.3,0,0,0-2.6-2.61A2.33,2.33,0,0,0,178,111.1v10.56a2.33,2.33,0,0,0,2.66,2.61A2.3,2.3,0,0,0,183.24,121.66Z" transform="translate(1.4 1.4)" style="fill:#fdfdfe"/></svg>
