<svg viewBox="0 0 237.83 237.83"><path id="sticker" d="M203,203l-13-5.81,4.53,13.54-12.42-7,3.2,13.91-11.68-8.21,1.84,14.16-10.83-9.3,0.47,14.27-9.88-10.3-0.91,14.25-8.84-11.21-2.28,14.09-7.72-12-3.63,13.81-6.53-12.7-4.95,13.39L115,224.56l-6.22,12.85-4-13.72-7.43,12.19-2.62-14-8.57,11.42L85,219l-9.63,10.54,0.12-14.28-10.6,9.56,1.5-14.2L54.9,219.16l2.86-14-12.24,7.34,4.2-13.65L36.82,205l5.5-13.18-13.43,4.85,6.74-12.58L21.8,187.63l7.93-11.87-14.11,2.18,9-11.05-14.25.81,10.06-10.13L6.2,157l11-9.11L3,145.95l11.82-8L1,134.64l12.54-6.83L0,123.19l13.14-5.59-13-5.9,13.62-4.29L1.39,100.27l14-3L3.73,89l14.19-1.6L7.15,78l14.28-.22L11.61,67.45l14.23,1.16L17.08,57.34l14.05,2.53L23.49,47.8l13.74,3.87L30.8,38.93,44.1,44.1,38.93,30.8l12.74,6.44L47.8,23.49l12.06,7.64L57.34,17.08l11.27,8.77L67.45,11.61l10.37,9.81L78,7.15l9.38,10.77L89,3.73l8.29,11.62,3-14,7.13,12.37L111.7,0.14l5.9,13L123.19,0l4.62,13.51L134.64,1l3.3,13.89,8-11.82,1.94,14.15L157,6.2l0.57,14.27L167.7,10.4l-0.81,14.25,11.05-9-2.18,14.11,11.87-7.93-3.54,13.83,12.58-6.74-4.85,13.43L205,36.82l-6.13,12.9,13.65-4.2-7.34,12.24,14-2.86-8.49,11.48,14.2-1.5-9.56,10.6,14.28-.12L219,85l14.22,1.26-11.42,8.57,14,2.62-12.19,7.43,13.72,4L224.56,115l13.27,5.27-13.39,4.95,12.7,6.53-13.81,3.63,12,7.72-14.09,2.28,11.21,8.84-14.25.91,10.3,9.88-14.27-.47,9.3,10.83-14.16-1.84,8.21,11.68-13.91-3.2,7,12.42L197.18,190Z" /><path d="M73.19,92.58H70.4a2.49,2.49,0,0,0-2,.84,2.84,2.84,0,0,0-.71,1.89v19.29h-5.5V95.32a8,8,0,0,1,2.38-5.83,7.88,7.88,0,0,1,5.84-2.42h2.78v5.5Z" style="fill:#fdfdfe"/><path d="M93.65,103.59h-11v2.78a2.47,2.47,0,0,0,.87,2,3,3,0,0,0,2,.74q2.6,0,2.66-2.78h5.5a8.64,8.64,0,0,1-2.81,6.09,8.51,8.51,0,0,1-5.78,2.2,7.79,7.79,0,0,1-5.44-2,8,8,0,0,1-2.47-6.2V95.42a7.9,7.9,0,0,1,2.6-6.25,8.23,8.23,0,0,1,5.69-2.1,8,8,0,0,1,5.63,2.1,7.9,7.9,0,0,1,2.6,6.25v8.16Zm-5.5-5.5V95.39a2.39,2.39,0,0,0-2.72-2.69,2.93,2.93,0,0,0-1.95.7,2.45,2.45,0,0,0-.83,2v2.69h5.5Z" style="fill:#fdfdfe"/><path d="M114.18,106.37a8.3,8.3,0,0,1-8.53,8.22,7.82,7.82,0,0,1-5.5-2,8,8,0,0,1-2.47-6.2v-11a7.91,7.91,0,0,1,2.47-6.17,7.81,7.81,0,0,1,5.5-2.06,8.26,8.26,0,0,1,5.63,2.06,8.52,8.52,0,0,1,2.91,6.17h-5.5q0-2.72-2.78-2.72a2.4,2.4,0,0,0-2.72,2.72v11.06q0,2.73,2.78,2.73a2.4,2.4,0,0,0,2.72-2.72h5.5Z" style="fill:#fdfdfe"/><path d="M134.71,103.59h-11v2.78a2.47,2.47,0,0,0,.87,2,3,3,0,0,0,2,.74q2.6,0,2.66-2.78h5.5a8.64,8.64,0,0,1-2.81,6.09,8.51,8.51,0,0,1-5.78,2.2,7.79,7.79,0,0,1-5.44-2,8,8,0,0,1-2.47-6.2V95.42a7.9,7.9,0,0,1,2.6-6.25,8.23,8.23,0,0,1,5.69-2.1,8,8,0,0,1,5.63,2.1,7.9,7.9,0,0,1,2.6,6.25v8.16Zm-5.5-5.5V95.39a2.39,2.39,0,0,0-2.72-2.69,2.93,2.93,0,0,0-1.95.7,2.45,2.45,0,0,0-.83,2v2.69h5.5Z" style="fill:#fdfdfe"/><path d="M155.24,114.59h-5.5V95.31A2.41,2.41,0,0,0,147,92.58a2.84,2.84,0,0,0-1.95.74,2.53,2.53,0,0,0-.83,2v19.29h-5.5V95.32a7.85,7.85,0,0,1,2.6-6.2,8.14,8.14,0,0,1,5.63-2,8.37,8.37,0,0,1,5.69,2,7.85,7.85,0,0,1,2.6,6.2v19.27Z" style="fill:#fdfdfe"/><path d="M170.27,114.59h-2.78a8.19,8.19,0,0,1-8.22-8.24V81.57h5.5v5.5h5.5v5.5h-5.5v13.78a2.58,2.58,0,0,0,.8,2,2.72,2.72,0,0,0,1.92.75h2.78v5.5Z" style="fill:#fdfdfe"/><path d="M101.94,148.32a7.75,7.75,0,0,1-2.5,5.89,8.19,8.19,0,0,1-5.78,2.35,7.71,7.71,0,0,1-5.38-2.16,8.39,8.39,0,0,1-5.57,2.16,8,8,0,0,1-5.78-2.35,7.84,7.84,0,0,1-2.44-5.89V129H80v19.29a2.41,2.41,0,0,0,2.72,2.73q2.78,0,2.78-2.73V129H91v19.29q0,2.73,2.63,2.73a2.86,2.86,0,0,0,2-.74,2.54,2.54,0,0,0,.83-2V129h5.5v19.28Z" style="fill:#fdfdfe"/><path d="M122.41,148.32a7.85,7.85,0,0,1-2.6,6.2,8.36,8.36,0,0,1-5.69,2,8.13,8.13,0,0,1-5.63-2,7.85,7.85,0,0,1-2.6-6.2v-11a7.94,7.94,0,0,1,2.54-6.2,8.14,8.14,0,0,1,5.63-2,8.31,8.31,0,0,1,5.75,2.11,7.78,7.78,0,0,1,2.6,6.14v11Zm-5.5,0v-11a2.41,2.41,0,0,0-2.72-2.73q-2.78,0-2.78,2.73v11q0,2.73,2.78,2.73A2.41,2.41,0,0,0,116.9,148.33Z" style="fill:#fdfdfe"/><path d="M137.43,134.55h-2.78a2.49,2.49,0,0,0-2,.84,2.84,2.84,0,0,0-.71,1.89v19.29h-5.5V137.29a8,8,0,0,1,2.38-5.83,7.88,7.88,0,0,1,5.84-2.42h2.78v5.5Z" style="fill:#fdfdfe"/><path d="M157.9,156.57h-5.5V148.3a2.69,2.69,0,0,0-.83-2,2.66,2.66,0,0,0-1.95-.84h-2.72v11.07h-5.5V118h5.5v22h2.72a2.6,2.6,0,0,0,2-.86,2.73,2.73,0,0,0,.8-1.91V129h5.5v8.24a7.75,7.75,0,0,1-2.16,5.52,8,8,0,0,1,2.16,5.52v8.24Z" style="fill:#fdfdfe"/></svg>
