<svg xmlns="http://www.w3.org/2000/svg" viewBox="0 0 237.83 237.83"><title>websites</title><path d="M202.62,204.16l-13-5.82,4.53,13.54-12.41-7,3.2,13.91-11.68-8.21,1.84,14.16-10.83-9.3.46,14.27-9.88-10.31-.91,14.25-8.85-11.21-2.28,14.1-7.72-12-3.63,13.81-6.53-12.7L120,239l-5.27-13.27-6.22,12.85-4-13.71-7.43,12.19-2.63-14-8.57,11.42-1.25-14.22L75,230.75l.12-14.28L64.5,226l1.5-14.2-11.47,8.5,2.86-14-12.24,7.34L49.35,200l-12.9,6.12L42,193l-13.43,4.85,6.75-12.58-13.84,3.53,7.93-11.87L15.25,179.1l9-11L10,168.86l10.06-10.13-14.26-.56,11-9.12L2.67,147.11l11.82-8L.6,135.81,13.14,129-.37,124.35l13.14-5.59-13-5.9,13.62-4.3L1,101.43l14-3L3.36,90.18l14.19-1.6L6.78,79.21,21.06,79,11.24,68.61l14.23,1.16L16.71,58.5,30.76,61,23.12,49l13.75,3.87L30.43,40.09l13.3,5.18L38.56,32,51.3,38.4,47.43,24.66l12.06,7.63L57,18.24,68.24,27,67.08,12.78l10.37,9.81.22-14.28,9.38,10.77,1.6-14.19,8.29,11.63,3-14L107,14.92l4.3-13.62,5.9,13,5.59-13.14,4.62,13.51,6.83-12.54,3.3,13.9,8-11.82,1.94,14.14,9.11-11,.57,14.27,10.13-10.07-.81,14.26,11-9-2.18,14.11L187.26,23,183.73,36.8l12.58-6.75-4.85,13.43L204.63,38l-6.13,12.9,13.65-4.2-7.34,12.24,14-2.86L210.3,67.54,224.5,66l-9.56,10.6,14.28-.12-10.54,9.63,14.22,1.26L221.48,96l14,2.62L223.32,106,237,110l-12.85,6.22,13.27,5.27-13.4,5,12.7,6.52L223,136.58l12,7.72-14.09,2.29,11.21,8.84-14.25.91,10.3,9.89-14.27-.47,9.3,10.83L209,174.75l8.21,11.68-13.92-3.2,7,12.42-13.54-4.53Z" transform="translate(0.37 -1.16)" style="fill:none"/><path d="M78.93,108.49a7.4,7.4,0,0,1-2.4,5.63A7.8,7.8,0,0,1,71,116.37a7.36,7.36,0,0,1-5.14-2.07,8,8,0,0,1-5.32,2.07A7.71,7.71,0,0,1,55,114.12a7.52,7.52,0,0,1-2.33-5.63V90.07H58V108.5a2.3,2.3,0,0,0,2.6,2.61,2.33,2.33,0,0,0,2.66-2.61V90.07h5.26V108.5c0,1.74.84,2.61,2.51,2.61a2.77,2.77,0,0,0,1.9-.71,2.47,2.47,0,0,0,.79-1.9V90.07h5.26Z" transform="translate(0.37 -1.16)" style="fill:#fdfdfe"/><path d="M98.48,105.85H88v2.66a2.36,2.36,0,0,0,.82,1.89,2.85,2.85,0,0,0,1.89.71c1.66,0,2.51-.89,2.54-2.66h5.26a8.22,8.22,0,0,1-2.69,5.82,8.1,8.1,0,0,1-5.52,2.1,7.45,7.45,0,0,1-5.2-1.94,7.61,7.61,0,0,1-2.36-5.92V98.05a7.54,7.54,0,0,1,2.48-6,7.87,7.87,0,0,1,5.43-2,7.66,7.66,0,0,1,5.38,2,7.54,7.54,0,0,1,2.48,6Zm-5.26-5.26V98a2.28,2.28,0,0,0-2.6-2.57,2.82,2.82,0,0,0-1.86.67A2.35,2.35,0,0,0,88,98v2.57Z" transform="translate(0.37 -1.16)" style="fill:#fdfdfe"/><path d="M118.1,108.49a7.5,7.5,0,0,1-2.48,5.92,8,8,0,0,1-5.44,2,7.73,7.73,0,0,1-5.37-2,7.46,7.46,0,0,1-2.49-5.91V79.56h5.26V90.07h2.6a7.79,7.79,0,0,1,5.38,2.14A7.45,7.45,0,0,1,118.1,98Zm-5.26,0V97.94a2.5,2.5,0,0,0-.77-1.84,2.57,2.57,0,0,0-1.89-.77h-2.6V108.5a2.33,2.33,0,0,0,2.66,2.61A2.3,2.3,0,0,0,112.84,108.5Z" transform="translate(0.37 -1.16)" style="fill:#fdfdfe"/><path d="M137.66,97.93h-5.2a2.42,2.42,0,0,0-.79-1.86,2.63,2.63,0,0,0-1.84-.74,2.42,2.42,0,0,0-1.87.77,2.6,2.6,0,0,0-.7,1.83,2.38,2.38,0,0,0,2.58,2.66,7.83,7.83,0,0,1,5.88,2.49,7.52,7.52,0,0,1,1.94,5.22,8.09,8.09,0,0,1-2,5.46,7.72,7.72,0,0,1-5.83,2.61,7.13,7.13,0,0,1-5.5-2.19,7.65,7.65,0,0,1-2.33-5.67h5.23a2.51,2.51,0,0,0,2.58,2.6,2.29,2.29,0,0,0,2.59-2.6,2.39,2.39,0,0,0-2.6-2.66A7.58,7.58,0,0,1,124,103.3a8.3,8.3,0,0,1,0-10.68,7.54,7.54,0,0,1,5.83-2.55,7.11,7.11,0,0,1,5.71,2.43A7.91,7.91,0,0,1,137.66,97.93Z" transform="translate(0.37 -1.16)" style="fill:#fdfdfe"/><path d="M146.82,84.81h-5.26V79.56h5.26Zm0,31.56h-5.26V90.07h5.26Z" transform="translate(0.37 -1.16)" style="fill:#fdfdfe"/><path d="M161.12,116.37h-2.66a7.82,7.82,0,0,1-7.86-7.88V84.81h5.26v5.26h5.26v5.26h-5.26V108.5a2.48,2.48,0,0,0,.76,1.9,2.65,2.65,0,0,0,1.84.71h2.66Z" transform="translate(0.37 -1.16)" style="fill:#fdfdfe"/><path d="M180.67,105.85H170.16v2.66a2.36,2.36,0,0,0,.82,1.89,2.87,2.87,0,0,0,1.89.71c1.66,0,2.51-.89,2.55-2.66h5.25a8.25,8.25,0,0,1-2.68,5.82,8.14,8.14,0,0,1-5.53,2.1,7.45,7.45,0,0,1-5.2-1.94,7.65,7.65,0,0,1-2.36-5.92V98.05a7.57,7.57,0,0,1,2.48-6,7.87,7.87,0,0,1,5.44-2,7.63,7.63,0,0,1,5.37,2,7.54,7.54,0,0,1,2.48,6Zm-5.25-5.26V98a2.29,2.29,0,0,0-2.6-2.57,2.82,2.82,0,0,0-1.87.67,2.35,2.35,0,0,0-.79,1.9v2.57Z" transform="translate(0.37 -1.16)" style="fill:#fdfdfe"/><path d="M80.82,148.6a7.48,7.48,0,0,1-2.49,5.92A7.77,7.77,0,0,1,73,156.47a7.88,7.88,0,0,1-5.44-1.95A7.52,7.52,0,0,1,65,148.6V138.06a7.47,7.47,0,0,1,2.54-5.75,7.61,7.61,0,0,1,5.32-2.13h2.66V119.66h5.26Zm-5.26,0V135.44H72.9a2.63,2.63,0,0,0-2.6,2.61v10.56a2.29,2.29,0,0,0,2.6,2.6C74.67,151.21,75.56,150.35,75.56,148.61Z" transform="translate(0.37 -1.16)" style="fill:#fdfdfe"/><path d="M100.43,146H89.92v2.66a2.38,2.38,0,0,0,.82,1.89,2.84,2.84,0,0,0,1.89.7c1.66,0,2.51-.88,2.54-2.65h5.26a8.25,8.25,0,0,1-2.68,5.82,8.13,8.13,0,0,1-5.53,2.09,7.44,7.44,0,0,1-5.2-1.93,7.63,7.63,0,0,1-2.36-5.92V138.16a7.54,7.54,0,0,1,2.48-6,7.87,7.87,0,0,1,5.44-2,7.65,7.65,0,0,1,5.37,2,7.54,7.54,0,0,1,2.48,6Zm-5.26-5.26v-2.57a2.28,2.28,0,0,0-2.59-2.57,2.82,2.82,0,0,0-1.87.67,2.35,2.35,0,0,0-.79,1.9v2.57Z" transform="translate(0.37 -1.16)" style="fill:#fdfdfe"/><path d="M120,138h-5.2a2.42,2.42,0,0,0-.79-1.86,2.57,2.57,0,0,0-1.84-.74,2.42,2.42,0,0,0-1.87.77,2.65,2.65,0,0,0-.7,1.83,2.39,2.39,0,0,0,2.59,2.66,7.82,7.82,0,0,1,5.87,2.49,7.44,7.44,0,0,1,1.94,5.22,8.08,8.08,0,0,1-2,5.45,7.64,7.64,0,0,1-5.83,2.61,7.16,7.16,0,0,1-5.5-2.18,7.69,7.69,0,0,1-2.33-5.67h5.23a2.56,2.56,0,0,0,.74,1.86,2.49,2.49,0,0,0,1.85.73,2.28,2.28,0,0,0,2.58-2.59,2.39,2.39,0,0,0-2.6-2.66,7.58,7.58,0,0,1-5.85-2.55,8.29,8.29,0,0,1,0-10.68,7.52,7.52,0,0,1,5.82-2.55,7.13,7.13,0,0,1,5.71,2.42A8,8,0,0,1,120,138Z" transform="translate(0.37 -1.16)" style="fill:#fdfdfe"/><path d="M129.15,124.92h-5.26v-5.26h5.26Zm0,31.55h-5.26V130.18h5.26Z" transform="translate(0.37 -1.16)" style="fill:#fdfdfe"/><path d="M148.71,159.07a7.47,7.47,0,0,1-7.74,7.86,7.93,7.93,0,0,1-5.38-2,8,8,0,0,1-2.66-5.91h5.26a2.3,2.3,0,0,0,2.6,2.6c1.77,0,2.66-.86,2.66-2.6v-2.6h-2.66a8.05,8.05,0,0,1-7.86-7.91V138a7.43,7.43,0,0,1,2.48-5.85,7.74,7.74,0,0,1,5.44-2,7.66,7.66,0,0,1,5.38,2,7.43,7.43,0,0,1,2.48,5.85Zm-5.26-7.86V138a2.33,2.33,0,0,0-2.66-2.6,2.3,2.3,0,0,0-2.6,2.6v10.52a2.6,2.6,0,0,0,.77,1.86,2.45,2.45,0,0,0,1.83.79Z" transform="translate(0.37 -1.16)" style="fill:#fdfdfe"/><path d="M168.33,156.47h-5.26V138.05a2.3,2.3,0,0,0-2.6-2.61,2.76,2.76,0,0,0-1.87.71,2.42,2.42,0,0,0-.79,1.9v18.42h-5.26V138.06a7.53,7.53,0,0,1,2.48-5.93,7.79,7.79,0,0,1,5.38-1.95,8,8,0,0,1,5.43,1.95,7.5,7.5,0,0,1,2.49,5.93Z" transform="translate(0.37 -1.16)" style="fill:#fdfdfe"/></svg>